<svg width="20" height="21" viewBox="0 0 20 21" fill="none" xmlns="http://www.w3.org/2000/svg">
<path fill-rule="evenodd" clip-rule="evenodd" d="M16.164 16.8255L15.5342 16.4628L13.0462 15.0396L9.55046 13.0432L6.05865 15.0396L4.98394 15.6557L3.56674 16.4628L2.93688 16.8255V7.13962L9.55046 3.3573L16.164 7.13962V16.8255ZM19.1008 18.5022V6.85107C19.1078 6.42781 18.9987 6.01061 18.7852 5.64392C18.5716 5.27723 18.2617 4.9748 17.8883 4.76884L9.55046 0L1.21656 4.76884C0.843859 4.9759 0.534269 5.27848 0.320247 5.64483C0.106225 6.01118 -0.00434499 6.42782 0.000130675 6.85107V20.2764H2.77941L4.37376 19.3639L5.46815 18.74L8.10177 17.2349L9.55046 16.4043L9.84965 16.5759L13.6367 18.74L14.7272 19.3639L16.3215 20.2764H19.1008V18.5022Z" fill="url(#paint0_linear_48736_15337)"/>
<defs>
<linearGradient id="paint0_linear_48736_15337" x1="9.55046" y1="-2.88938" x2="9.55046" y2="13.0549" gradientUnits="userSpaceOnUse">
<stop stop-color="#162238"/>
<stop offset="1" stop-color="#008080"/>
</linearGradient>
</defs>
</svg>
