<svg width="74" height="74" viewBox="0 0 74 74" fill="none" xmlns="http://www.w3.org/2000/svg">
<path d="M37 67.8337L36.2292 58.5837H35.4583C28.1611 58.5837 21.9688 56.0399 16.8812 50.9524C11.7937 45.8649 9.25 39.6725 9.25 32.3753C9.25 25.0781 11.7937 18.8857 16.8812 13.7982C21.9688 8.71074 28.1611 6.16699 35.4583 6.16699C39.1069 6.16699 42.512 6.84738 45.6734 8.20816C48.8349 9.56894 51.6099 11.4446 53.9984 13.8352C56.387 16.2259 58.2616 19.0009 59.6224 22.1602C60.9832 25.3196 61.6646 28.7247 61.6667 32.3753C61.6667 36.2295 61.0377 39.9295 59.7797 43.4753C58.5217 47.0212 56.7991 50.31 54.612 53.342C52.4249 56.3739 49.8298 59.1232 46.8266 61.5899C43.8234 64.0566 40.5479 66.1378 37 67.8337ZM43.1667 56.5795C46.8153 53.4962 49.7835 49.8866 52.0713 45.7508C54.3592 41.615 55.5021 37.1565 55.5 32.3753C55.5 26.7739 53.5596 22.0338 49.6787 18.155C45.7978 14.2762 41.0577 12.3357 35.4583 12.3337C29.859 12.3316 25.1189 14.272 21.238 18.155C17.3571 22.0379 15.4167 26.778 15.4167 32.3753C15.4167 37.9726 17.3571 42.7137 21.238 46.5987C25.1189 50.4837 29.859 52.4232 35.4583 52.417H43.1667V56.5795ZM35.3813 49.2566C36.2549 49.2566 37 48.9482 37.6167 48.3316C38.2333 47.7149 38.5417 46.9698 38.5417 46.0962C38.5417 45.2225 38.2333 44.4774 37.6167 43.8607C37 43.2441 36.2549 42.9357 35.3813 42.9357C34.5076 42.9357 33.7625 43.2441 33.1458 43.8607C32.5292 44.4774 32.2208 45.2225 32.2208 46.0962C32.2208 46.9698 32.5292 47.7149 33.1458 48.3316C33.7625 48.9482 34.5076 49.2566 35.3813 49.2566ZM33.1458 39.467H37.7708C37.7708 37.9253 37.925 36.8462 38.2333 36.2295C38.5417 35.6128 39.5181 34.4823 41.1625 32.8378C42.0875 31.9128 42.8583 30.9107 43.475 29.8316C44.0917 28.7524 44.4 27.5962 44.4 26.3628C44.4 23.742 43.5141 21.7769 41.7422 20.4675C39.9703 19.1581 37.8757 18.5024 35.4583 18.5003C33.1972 18.5003 31.2958 19.1304 29.7542 20.3904C28.2125 21.6505 27.1333 23.1788 26.5167 24.9753L30.8333 26.6712C31.0903 25.7975 31.5785 24.9373 32.2979 24.0904C33.0174 23.2435 34.0708 22.819 35.4583 22.817C36.8458 22.8149 37.887 23.2004 38.5818 23.9732C39.2765 24.7461 39.6229 25.594 39.6208 26.517C39.6208 27.3906 39.3639 28.1748 38.85 28.8696C38.3361 29.5644 37.7194 30.2704 37 30.9878C35.2014 32.5295 34.1099 33.7505 33.7255 34.6508C33.3411 35.5512 33.1479 37.1565 33.1458 39.467Z" fill="#008080"/>
</svg>
