<svg width="109" height="237" viewBox="0 0 109 237" fill="none" xmlns="http://www.w3.org/2000/svg">
<g clip-path="url(#clip0_49073_15533)">
<path d="M12.2977 98.2835C5.50587 83.171 12.2511 65.4141 27.3636 58.6222L323.803 -74.6028C338.915 -81.3946 356.672 -74.6493 363.464 -59.5368L472.503 183.087L148.701 328.61C133.588 335.402 115.831 328.656 109.04 313.544L12.2977 98.2835Z" fill="white"/>
<g clip-path="url(#clip1_49073_15533)">
<path d="M42.2146 88.7994L40.3779 84.7126L40.7347 84.7944L39.9778 85.7659L39.4652 85.1833L40.4873 83.8592L40.8615 83.691L42.9988 88.4469L42.2146 88.7994ZM41.5744 89.5108L41.2381 88.7626L43.6412 87.6825L43.9775 88.4308L41.5744 89.5108ZM45.265 87.9473C45.1067 88.0185 44.9639 88.0279 44.8366 87.9755C44.7072 87.9184 44.6036 87.8035 44.526 87.6308C44.4549 87.4725 44.4423 87.3225 44.4881 87.1809C44.534 87.0392 44.6313 86.9349 44.78 86.8681C44.9383 86.7969 45.0821 86.7899 45.2116 86.8471C45.3389 86.8994 45.4413 87.0119 45.5189 87.1846C45.5901 87.3429 45.6027 87.4929 45.5569 87.6346C45.511 87.7762 45.4137 87.8805 45.265 87.9473ZM50.7362 85.4798C50.4628 85.6027 50.1924 85.681 49.925 85.7147C49.6625 85.7462 49.4029 85.7331 49.1464 85.6754C48.8925 85.6108 48.6427 85.504 48.397 85.355L48.6545 84.5041C49.0405 84.7343 49.3705 84.8656 49.6445 84.8981C49.9186 84.9306 50.2043 84.88 50.5017 84.7464C50.684 84.6644 50.8365 84.5613 50.9593 84.4369C51.0822 84.3125 51.1641 84.1806 51.2052 84.041C51.2463 83.9015 51.2377 83.767 51.1795 83.6375C51.1407 83.5511 51.0896 83.476 51.0264 83.4122C50.9631 83.3484 50.8863 83.2993 50.7959 83.265C50.7103 83.2285 50.6077 83.2055 50.4881 83.1958C50.3732 83.184 50.2448 83.1869 50.1028 83.2046C49.9587 83.2175 49.7987 83.2462 49.6226 83.2907C49.3399 83.3543 49.0832 83.3861 48.8525 83.386C48.6219 83.3859 48.4127 83.3502 48.225 83.2789C48.0373 83.2076 47.8756 83.1044 47.7399 82.9693C47.6021 82.8295 47.4869 82.6564 47.3942 82.4502C47.3036 82.2487 47.2627 82.0422 47.2715 81.8307C47.285 81.6171 47.3405 81.4134 47.4379 81.2197C47.538 81.0191 47.6785 80.8378 47.8594 80.6758C48.0381 80.509 48.2498 80.3706 48.4944 80.2607C48.7534 80.1442 49.0059 80.0711 49.252 80.0413C49.498 80.0114 49.7351 80.0259 49.9634 80.0848C50.1894 80.1388 50.4008 80.237 50.5973 80.3793L50.293 81.1647C50.1259 81.0495 49.9587 80.9661 49.7914 80.9144C49.6219 80.858 49.4533 80.8358 49.2857 80.8477C49.116 80.8548 48.9495 80.895 48.7865 80.9683C48.5994 81.0523 48.4492 81.1544 48.336 81.2745C48.2228 81.3946 48.1491 81.5257 48.115 81.6679C48.0835 81.8031 48.099 81.9402 48.1615 82.0793C48.2068 82.1801 48.268 82.265 48.3452 82.3341C48.4202 82.3984 48.5112 82.4469 48.6181 82.4795C48.7277 82.5052 48.8615 82.5143 49.0195 82.5067C49.1754 82.4943 49.3554 82.4652 49.5598 82.4196C49.8494 82.3585 50.1179 82.3273 50.3651 82.3257C50.6102 82.3194 50.8316 82.3438 51.0294 82.399C51.2272 82.4543 51.3955 82.5401 51.5342 82.6565C51.6778 82.7707 51.7884 82.9141 51.866 83.0868C52.0104 83.4082 52.0611 83.7198 52.018 84.0216C51.975 84.3235 51.8458 84.6006 51.6306 84.853C51.4133 85.1006 51.1151 85.3095 50.7362 85.4798ZM54.1279 85.7717L51.7189 80.4114L52.4672 80.0751L52.8552 80.9385L52.711 80.9255C52.6751 80.7687 52.6952 80.5953 52.7713 80.4054C52.8453 80.2108 52.9598 80.0296 53.1151 79.8618C53.2729 79.6871 53.455 79.5534 53.6612 79.4607C54.0018 79.3076 54.3417 79.2557 54.681 79.3051C55.0202 79.3544 55.3324 79.4908 55.6174 79.7145C55.9024 79.9381 56.13 80.2393 56.3003 80.6183C56.4684 80.9924 56.5426 81.3627 56.5228 81.729C56.5056 82.0885 56.4039 82.4138 56.2176 82.705C56.0293 82.9915 55.7696 83.2091 55.4386 83.3578C55.218 83.457 54.9851 83.5097 54.7401 83.5161C54.4929 83.5177 54.2661 83.4812 54.0596 83.4068C53.8532 83.3324 53.6998 83.2283 53.5994 83.0947L53.7412 82.9099L54.8762 85.4354L54.1279 85.7717ZM55.0091 82.7293C55.2298 82.6301 55.4017 82.4866 55.5248 82.2986C55.6479 82.1107 55.7167 81.8982 55.7312 81.661C55.7457 81.4239 55.6979 81.183 55.588 80.9384C55.4781 80.6938 55.3307 80.5006 55.1459 80.3588C54.9637 80.21 54.7615 80.1193 54.5393 80.0865C54.317 80.0538 54.0931 80.0881 53.8677 80.1894C53.6423 80.2908 53.468 80.4354 53.3449 80.6233C53.2196 80.8064 53.1498 81.0166 53.1353 81.2537C53.1208 81.4909 53.1685 81.7317 53.2784 81.9764C53.3884 82.221 53.5368 82.4166 53.7238 82.5632C53.9107 82.7098 54.1153 82.7995 54.3376 82.8322C54.5598 82.8649 54.7837 82.8306 55.0091 82.7293ZM59.7147 81.4447C59.3261 81.6194 58.9441 81.693 58.5687 81.6657C58.1958 81.6315 57.8584 81.5093 57.5564 81.2991C57.2591 81.0868 57.0265 80.7935 56.8583 80.4194C56.7247 80.122 56.6508 79.8294 56.6368 79.5417C56.6228 79.2539 56.6599 78.9836 56.748 78.7307C56.8388 78.4708 56.9801 78.2401 57.172 78.0385C57.3666 77.83 57.603 77.6632 57.8812 77.5382C58.1258 77.4283 58.3752 77.3738 58.6294 77.3749C58.8814 77.3712 59.1208 77.4164 59.3476 77.5105C59.5791 77.6024 59.7864 77.7428 59.9692 77.9316C60.1547 78.1135 60.3044 78.3374 60.4181 78.6033L60.5532 78.9231L57.4666 80.3103L57.0359 79.7947L59.6477 78.6209L59.5947 78.7918L59.5171 78.6191C59.4316 78.4673 59.3153 78.3495 59.1681 78.2657C59.0209 78.182 58.8616 78.1354 58.6901 78.1259C58.5187 78.1165 58.3514 78.1484 58.1884 78.2217C57.9293 78.3381 57.7337 78.4866 57.6015 78.6671C57.4672 78.8428 57.3975 79.047 57.3926 79.2798C57.3855 79.5079 57.4445 79.761 57.5696 80.0392C57.6881 80.303 57.8468 80.5085 58.0455 80.6555C58.242 80.7978 58.4647 80.8765 58.7136 80.8914C58.9625 80.9064 59.2189 80.8546 59.4827 80.7361C59.6697 80.652 59.8284 80.5432 59.9587 80.4097C60.0937 80.2741 60.2181 80.0827 60.3319 79.8355L60.9421 80.1926C60.8787 80.3595 60.7825 80.5238 60.6534 80.6856C60.5291 80.8452 60.3853 80.9934 60.222 81.1303C60.0612 81.2602 59.8921 81.365 59.7147 81.4447ZM63.7362 79.6374C63.3861 79.7948 63.0331 79.8496 62.6773 79.802C62.3262 79.7522 62.0024 79.6152 61.7056 79.3911C61.4137 79.1649 61.1847 78.8671 61.0187 78.4977C60.8527 78.1284 60.7821 77.7594 60.8067 77.3909C60.8361 77.0202 60.9488 76.6871 61.1446 76.3916C61.3452 76.0939 61.6205 75.8663 61.9707 75.7089C62.3065 75.558 62.6423 75.4907 62.9782 75.5069C63.3168 75.5162 63.6108 75.606 63.8604 75.7764L63.6766 76.4644C63.5503 76.3885 63.4067 76.332 63.2458 76.2947C63.0849 76.2575 62.9255 76.2427 62.7675 76.2503C62.6094 76.2579 62.4681 76.2897 62.3434 76.3457C62.1131 76.4492 61.9327 76.5995 61.8022 76.7965C61.6743 76.9866 61.6018 77.2037 61.5846 77.4478C61.5675 77.6919 61.6139 77.9362 61.7238 78.1808C61.8338 78.4255 61.9881 78.6213 62.1868 78.7684C62.3834 78.9107 62.5986 78.9984 62.8326 79.0316C63.0667 79.0648 63.294 79.0319 63.5146 78.9327C63.6441 78.8745 63.7592 78.7969 63.8597 78.6998C63.965 78.6006 64.0558 78.4819 64.1321 78.3439C64.2084 78.2058 64.2689 78.0518 64.3136 77.8818L64.9501 78.2011C64.8936 78.4859 64.7527 78.7626 64.5274 79.031C64.3069 79.2973 64.0432 79.4994 63.7362 79.6374ZM66.0362 78.5173L64.3386 74.7399L65.0796 74.4069L66.7772 78.1842L66.0362 78.5173ZM64.3232 73.7436C64.1649 73.8148 64.0243 73.829 63.9013 73.7862C63.7783 73.7435 63.6834 73.6478 63.6166 73.4991C63.5541 73.36 63.5466 73.2278 63.5941 73.1027C63.6464 72.9754 63.7494 72.8773 63.9028 72.8083C64.0611 72.7371 64.2018 72.7229 64.3248 72.7657C64.4477 72.8084 64.5427 72.9041 64.6095 73.0528C64.672 73.1919 64.6771 73.3251 64.6248 73.4524C64.5772 73.5776 64.4767 73.6746 64.3232 73.7436ZM68.2905 77.5041L66.4021 73.3023C66.3051 73.0864 66.2668 72.873 66.2873 72.662C66.3078 72.451 66.3804 72.2598 66.5052 72.0884C66.63 71.9171 66.8027 71.7818 67.0233 71.6826C67.1768 71.6136 67.3336 71.5778 67.4938 71.575C67.654 71.5722 67.7964 71.6004 67.9211 71.6597L67.9247 72.3413C67.8365 72.3117 67.7464 72.2974 67.6546 72.2983C67.5654 72.2923 67.4872 72.3044 67.4201 72.3345C67.3193 72.3798 67.2406 72.4354 67.1837 72.5013C67.1295 72.5603 67.1007 72.6309 67.0973 72.7131C67.0917 72.7906 67.1094 72.8749 67.1504 72.966L69.0388 77.1678L68.6646 77.336C68.6023 77.364 68.5399 77.392 68.4776 77.4201C68.4152 77.4481 68.3529 77.4761 68.2905 77.5041ZM66.3248 74.7467L66.0176 74.0632L68.2624 73.0543L68.5696 73.7378L66.3248 74.7467ZM70.8303 76.3627L69.1327 72.5853L69.8738 72.2523L71.5714 76.0296L70.8303 76.3627ZM69.1174 71.589C68.9591 71.6602 68.8184 71.6744 68.6954 71.6316C68.5725 71.5889 68.4776 71.4932 68.4107 71.3445C68.3482 71.2054 68.3407 71.0733 68.3883 70.9481C68.4406 70.8208 68.5435 70.7227 68.697 70.6537C68.8553 70.5826 68.9959 70.5684 69.1189 70.6111C69.2419 70.6538 69.3368 70.7496 69.4036 70.8983C69.4661 71.0374 69.4712 71.1706 69.4189 71.2979C69.3714 71.423 69.2709 71.5201 69.1174 71.589ZM74.4666 74.815C74.0781 74.9896 73.6961 75.0632 73.3206 75.036C72.9477 75.0017 72.6103 74.8795 72.3083 74.6693C72.0111 74.457 71.7784 74.1637 71.6102 73.7896C71.4766 73.4922 71.4028 73.1996 71.3887 72.9119C71.3747 72.6242 71.4118 72.3538 71.4999 72.1009C71.5907 71.841 71.732 71.6103 71.9239 71.4087C72.1185 71.2002 72.3549 71.0335 72.6331 70.9084C72.8777 70.7985 73.1271 70.7441 73.3813 70.7451C73.6333 70.7414 73.8727 70.7866 74.0995 70.8807C74.3311 70.9727 74.5383 71.113 74.7211 71.3018C74.9066 71.4837 75.0563 71.7076 75.17 71.9736L75.3051 72.2934L72.2185 73.6806L71.7879 73.1649L74.3996 71.9912L74.3467 72.162L74.2691 71.9893C74.1835 71.8375 74.0672 71.7197 73.92 71.6359C73.7728 71.5522 73.6135 71.5056 73.4421 71.4962C73.2706 71.4867 73.1034 71.5187 72.9403 71.5919C72.6813 71.7084 72.4856 71.8568 72.3534 72.0373C72.2191 72.213 72.1494 72.4172 72.1445 72.6501C72.1375 72.8781 72.1965 73.1312 72.3215 73.4094C72.4401 73.6732 72.5987 73.8787 72.7974 74.0258C72.9939 74.168 73.2167 74.2467 73.4655 74.2617C73.7144 74.2767 73.9708 74.2249 74.2346 74.1063C74.4217 74.0222 74.5803 73.9135 74.7106 73.78C74.8457 73.6443 74.9701 73.4529 75.0839 73.2057L75.694 73.5628C75.6307 73.7297 75.5344 73.894 75.4053 74.0558C75.2811 74.2154 75.1372 74.3637 74.9739 74.5005C74.8132 74.6304 74.6441 74.7352 74.4666 74.815ZM78.4594 73.0206C78.114 73.1758 77.7669 73.2309 77.418 73.1859C77.0718 73.1339 76.7538 72.9972 76.464 72.7757C76.1721 72.5495 75.941 72.2469 75.7707 71.8679C75.6004 71.489 75.5262 71.1188 75.5482 70.7572C75.5728 70.3886 75.6817 70.0601 75.8749 69.7715C76.0659 69.4781 76.3317 69.2549 76.6722 69.1018C76.8593 69.0177 77.0532 68.9681 77.2539 68.9528C77.4573 68.9306 77.6522 68.941 77.8387 68.984C78.0231 69.0223 78.1817 69.0865 78.3145 69.1767C78.4499 69.26 78.5456 69.364 78.6017 69.4887L78.3923 69.6001L77.2573 67.0746L77.9984 66.7416L80.3912 72.0658L79.6502 72.3989L79.246 71.4995L79.3899 71.4349C79.4416 71.55 79.455 71.6823 79.43 71.832C79.4028 71.9768 79.346 72.1262 79.2596 72.2804C79.178 72.4324 79.0662 72.5749 78.9242 72.7079C78.787 72.8387 78.632 72.9429 78.4594 73.0206ZM78.2723 72.3349C78.4977 72.2336 78.6709 72.0866 78.7919 71.8939C78.9128 71.7011 78.9771 71.4849 78.9846 71.2451C78.9948 70.9984 78.9428 70.7479 78.8285 70.4937C78.7143 70.2395 78.5626 70.0367 78.3735 69.8853C78.187 69.7269 77.9816 69.629 77.7571 69.5915C77.5327 69.554 77.3078 69.5859 77.0823 69.6872C76.8569 69.7885 76.6837 69.9355 76.5628 70.1282C76.4418 70.321 76.3763 70.5407 76.3661 70.7874C76.3585 71.0272 76.4119 71.2742 76.5261 71.5284C76.6404 71.7826 76.7907 71.9889 76.9772 72.1473C77.1663 72.2987 77.3731 72.3931 77.5975 72.4306C77.8219 72.4682 78.0469 72.4362 78.2723 72.3349ZM84.5 70.2193L82.5728 65.9311L81.1626 66.5649L80.8263 65.8166L84.467 64.1804L84.8033 64.9287L83.3499 65.5819L85.2771 69.8701L84.5 70.2193ZM88.2346 68.6274C87.9228 68.7675 87.5986 68.8094 87.262 68.7532C86.9302 68.6947 86.6207 68.5513 86.3335 68.3229C86.0464 68.0945 85.8188 67.7932 85.6506 67.4191C85.4803 67.0401 85.4062 66.6699 85.4281 66.3083C85.4528 65.9398 85.5593 65.6123 85.7477 65.3258C85.9408 65.0372 86.2029 64.8186 86.5338 64.6698C86.7305 64.5814 86.9233 64.5294 87.1123 64.5136C87.3012 64.4979 87.4794 64.5159 87.6467 64.5675C87.8167 64.6122 87.9702 64.6844 88.1073 64.7842C88.2493 64.8819 88.3643 65.0032 88.4525 65.148L88.2611 65.1648L87.8213 64.1863L88.5696 63.85L90.2672 67.6274L89.519 67.9637L89.1148 67.0643L89.2648 66.9363C89.2942 67.0788 89.2914 67.2328 89.2563 67.3985C89.2239 67.5572 89.1596 67.7158 89.0637 67.8743C88.9725 68.0306 88.8559 68.1752 88.7138 68.3082C88.5766 68.4391 88.4169 68.5455 88.2346 68.6274ZM88.1217 67.8566C88.3471 67.7552 88.5214 67.6106 88.6445 67.4227C88.7676 67.2348 88.834 67.0233 88.8437 66.7883C88.856 66.5464 88.8062 66.3007 88.6941 66.0513C88.5841 65.8067 88.4357 65.611 88.2487 65.4644C88.0666 65.3157 87.8644 65.225 87.6421 65.1922C87.4198 65.1595 87.196 65.1938 86.9705 65.2951C86.7499 65.3943 86.578 65.5378 86.4549 65.7258C86.3366 65.9116 86.2702 66.123 86.2557 66.3601C86.246 66.5951 86.2961 66.8349 86.4061 67.0796C86.5182 67.329 86.6664 67.5305 86.8507 67.684C87.0377 67.8306 87.2399 67.9213 87.4573 67.9562C87.6796 67.9889 87.901 67.9557 88.1217 67.8566ZM92.5574 66.6846C92.2409 66.8269 91.9307 66.9 91.6269 66.9039C91.3231 66.9079 91.0387 66.8396 90.7738 66.6992L91.0835 66.0412C91.3028 66.1444 91.5137 66.1966 91.716 66.1979C91.9211 66.1923 92.1315 66.141 92.3473 66.0439C92.4337 66.0051 92.5085 65.96 92.5718 65.9085C92.6378 65.85 92.6875 65.7873 92.7208 65.7204C92.759 65.6514 92.7795 65.5816 92.7824 65.5111C92.7832 65.4358 92.7674 65.3622 92.7351 65.2903C92.679 65.1656 92.5882 65.0853 92.4626 65.0495C92.3995 65.0375 92.3066 65.036 92.1838 65.0451C92.0637 65.0472 91.9124 65.0633 91.7299 65.0934C91.4193 65.1465 91.1549 65.1673 90.9364 65.156C90.718 65.1446 90.5349 65.1029 90.3873 65.0309C90.2744 64.9721 90.1774 64.8975 90.0964 64.807C90.0132 64.7118 89.9426 64.5994 89.8844 64.4699C89.8132 64.3116 89.7821 64.1526 89.7911 63.993C89.8027 63.8263 89.8469 63.6681 89.9237 63.5183C90.0031 63.3615 90.1125 63.2201 90.2519 63.094C90.3961 62.9658 90.5617 62.8596 90.7487 62.7756C90.9262 62.6958 91.1121 62.6411 91.3063 62.6115C91.5054 62.5797 91.6997 62.5759 91.8893 62.6002C92.079 62.6246 92.2522 62.6764 92.409 62.7559L92.1947 63.4143C92.0626 63.3641 91.9263 63.3303 91.7858 63.3127C91.6479 63.2882 91.5152 63.2815 91.3876 63.2927C91.2601 63.3039 91.1507 63.33 91.0596 63.371C90.9588 63.4162 90.872 63.4668 90.7991 63.5226C90.7262 63.5785 90.6696 63.6385 90.6292 63.7027C90.5937 63.7648 90.5745 63.8311 90.5716 63.9016C90.5687 63.9721 90.5834 64.0433 90.6157 64.1153C90.6486 64.1755 90.6899 64.229 90.7398 64.2758C90.7922 64.3156 90.8511 64.3439 90.9163 64.3607C90.9863 64.3754 91.0838 64.3806 91.2087 64.3763C91.3336 64.3721 91.4863 64.3525 91.6666 64.3176C91.9345 64.2721 92.1624 64.2533 92.3504 64.2611C92.541 64.2619 92.7034 64.2898 92.8377 64.3447C92.9746 64.3928 93.0891 64.4681 93.1814 64.5708C93.2737 64.6735 93.3532 64.7991 93.42 64.9478C93.5171 65.1637 93.542 65.386 93.4949 65.6147C93.4504 65.8365 93.3466 66.0417 93.1835 66.2303C93.0203 66.4189 92.8117 66.5704 92.5574 66.6846ZM94.8189 64.1635L94.4208 63.3738L95.4216 60.7706L96.4217 60.3212L94.8189 64.1635ZM94.6729 65.6474L92.2801 60.3231L93.0212 59.9901L95.414 65.3144L94.6729 65.6474ZM97.2199 64.5027L95.0484 63.4809L95.357 62.7628L98.1697 64.0759L97.2199 64.5027Z" fill="#6E7C87"/>
<rect x="40.6882" y="97.2881" width="659.573" height="23.6645" rx="2.12374" transform="rotate(-24.2 40.6882 97.2881)" fill="white"/>
<rect x="40.6882" y="97.2881" width="659.573" height="23.6645" rx="2.12374" transform="rotate(-24.2 40.6882 97.2881)" stroke="#E5E9EB" stroke-width="0.606783"/>
<path d="M55.3359 106.418L54.9981 100.05L55.8505 99.6673L60.3724 104.154L59.4813 104.555L56.772 101.842C56.7403 101.813 56.6698 101.739 56.5607 101.621C56.4567 101.5 56.3379 101.367 56.2045 101.222C56.0711 101.077 55.9498 100.945 55.8406 100.827C55.7291 100.703 55.6563 100.624 55.6223 100.589L55.797 100.502C55.8055 100.603 55.8166 100.732 55.8305 100.887C55.8495 101.04 55.8669 101.203 55.8826 101.376C55.9034 101.547 55.9207 101.709 55.9346 101.865C55.9462 102.015 55.9562 102.141 55.9646 102.242L56.1882 106.035L55.3359 106.418ZM55.6598 104.652L55.6076 103.707L58.0716 102.599L58.7902 103.245L55.6598 104.652ZM62.6981 103.202C62.321 103.372 61.9409 103.431 61.5577 103.38C61.1797 103.326 60.8309 103.178 60.5114 102.937C60.197 102.693 59.9504 102.373 59.7716 101.975C59.5929 101.577 59.5168 101.18 59.5433 100.783C59.575 100.384 59.6963 100.025 59.9071 99.7068C60.1232 99.3862 60.4197 99.1412 60.7968 98.9717C61.1584 98.8092 61.5201 98.7367 61.8818 98.7542C62.2465 98.7642 62.5631 98.8609 62.8318 99.0444L62.6339 99.7852C62.4979 99.7036 62.3433 99.6427 62.17 99.6026C61.9968 99.5625 61.825 99.5465 61.6549 99.5547C61.4847 99.5629 61.3325 99.5971 61.1981 99.6575C60.9502 99.7689 60.7559 99.9307 60.6154 100.143C60.4776 100.348 60.3995 100.581 60.3811 100.844C60.3626 101.107 60.4126 101.37 60.531 101.634C60.6494 101.897 60.8156 102.108 61.0296 102.267C61.2412 102.42 61.4731 102.514 61.7251 102.55C61.9771 102.586 62.2219 102.55 62.4595 102.443C62.599 102.381 62.7228 102.297 62.8311 102.193C62.9445 102.086 63.0423 101.958 63.1245 101.809C63.2067 101.661 63.2718 101.495 63.32 101.312L64.0054 101.656C63.9445 101.962 63.7928 102.26 63.5502 102.549C63.3128 102.836 63.0287 103.054 62.6981 103.202ZM65.0433 102.055L62.4664 96.3214L63.2645 95.9628L64.3893 98.4655L64.2916 98.6212C64.262 98.4171 64.2884 98.2066 64.3709 97.9894C64.4511 97.7672 64.5736 97.5631 64.7384 97.3772C64.9009 97.1862 65.0906 97.042 65.3076 96.9445C65.6175 96.8052 65.9037 96.7511 66.166 96.7822C66.426 96.8082 66.6634 96.9219 66.8782 97.1234C67.0929 97.3249 67.285 97.6142 67.4545 97.9913L68.5688 100.471L67.7707 100.83L66.6808 98.4042C66.5763 98.1718 66.4594 97.9946 66.3301 97.8726C66.1985 97.7455 66.053 97.6774 65.8937 97.6683C65.732 97.654 65.558 97.695 65.3715 97.7912C65.2165 97.8609 65.0861 97.9505 64.9802 98.0602C64.8719 98.1648 64.7884 98.283 64.7298 98.4149C64.6762 98.5445 64.6478 98.6815 64.6443 98.8258C64.6438 98.9627 64.6737 99.0983 64.734 99.2326L65.8414 101.697L65.4462 101.874C65.3791 101.904 65.3119 101.935 65.2448 101.965C65.1776 101.995 65.1104 102.025 65.0433 102.055ZM69.7445 99.9425L67.9163 95.8745L68.7144 95.5159L70.5426 99.5838L69.7445 99.9425ZM67.8997 94.8016C67.7293 94.8782 67.5778 94.8935 67.4454 94.8475C67.3129 94.8015 67.2107 94.6984 67.1388 94.5382C67.0714 94.3884 67.0634 94.2462 67.1146 94.1114C67.1709 93.9743 67.2817 93.8686 67.447 93.7943C67.6175 93.7177 67.769 93.7024 67.9014 93.7485C68.0339 93.7945 68.1361 93.8976 68.208 94.0577C68.2754 94.2075 68.2808 94.3509 68.2245 94.488C68.1733 94.6228 68.065 94.7273 67.8997 94.8016ZM73.6637 98.2742C73.2453 98.4623 72.8339 98.5416 72.4296 98.5122C72.028 98.4754 71.6647 98.3437 71.3394 98.1174C71.0193 97.8887 70.7687 97.5729 70.5876 97.17C70.4437 96.8497 70.3642 96.5346 70.3491 96.2248C70.334 95.9149 70.3739 95.6238 70.4688 95.3514C70.5666 95.0715 70.7188 94.823 70.9255 94.606C71.135 94.3814 71.3896 94.2018 71.6892 94.0672C71.9526 93.9488 72.2212 93.8902 72.4949 93.8913C72.7663 93.8873 73.0241 93.936 73.2684 94.0373C73.5178 94.1364 73.7409 94.2875 73.9379 94.4908C74.1376 94.6867 74.2988 94.9278 74.4213 95.2142L74.5668 95.5586L71.2427 97.0525L70.7789 96.4973L73.5916 95.2332L73.5346 95.4172L73.451 95.2312C73.3589 95.0677 73.2336 94.9408 73.0751 94.8507C72.9166 94.7605 72.745 94.7103 72.5604 94.7001C72.3758 94.69 72.1956 94.7243 72.02 94.8033C71.7411 94.9286 71.5304 95.0885 71.388 95.2829C71.2433 95.4721 71.1683 95.6921 71.163 95.9428C71.1554 96.1884 71.219 96.4609 71.3536 96.7605C71.4813 97.0447 71.6521 97.2659 71.8661 97.4243C72.0778 97.5775 72.3176 97.6622 72.5857 97.6784C72.8537 97.6945 73.1298 97.6387 73.4139 97.511C73.6153 97.4205 73.7862 97.3034 73.9265 97.1596C74.0719 97.0135 74.2059 96.8074 74.3285 96.5412L74.9856 96.9258C74.9173 97.1055 74.8137 97.2824 74.6747 97.4567C74.5408 97.6286 74.386 97.7882 74.21 97.9356C74.037 98.0754 73.8549 98.1883 73.6637 98.2742ZM77.489 96.462L73.9406 93.1671L74.8007 92.7806L77.409 95.2685L77.2931 95.4044L77.2182 91.6941L78.0395 91.325L78.0623 96.2043L77.489 96.462ZM82.3789 94.3575C81.9605 94.5455 81.5491 94.6248 81.1447 94.5955C80.7432 94.5586 80.3798 94.427 80.0546 94.2006C79.7345 93.972 79.4839 93.6562 79.3028 93.2532C79.1589 92.933 79.0794 92.6179 79.0643 92.308C79.0492 91.9981 79.0891 91.707 79.184 91.4346C79.2817 91.1548 79.434 90.9063 79.6406 90.6892C79.8502 90.4647 80.1047 90.2851 80.4043 90.1504C80.6678 90.032 80.9364 89.9734 81.2101 89.9746C81.4815 89.9706 81.7393 90.0192 81.9835 90.1206C82.2329 90.2196 82.4561 90.3708 82.653 90.5741C82.8528 90.7699 83.0139 91.0111 83.1365 91.2975L83.2819 91.6419L79.9579 93.1358L79.4941 92.5805L82.3068 91.3165L82.2497 91.5004L82.1662 91.3144C82.0741 91.1509 81.9488 91.0241 81.7902 90.9339C81.6317 90.8437 81.4602 90.7935 81.2755 90.7834C81.0909 90.7732 80.9108 90.8076 80.7352 90.8865C80.4562 91.0119 80.2456 91.1718 80.1032 91.3661C79.9585 91.5553 79.8835 91.7753 79.8782 92.026C79.8706 92.2716 79.9341 92.5442 80.0688 92.8438C80.1965 93.1279 80.3673 93.3492 80.5813 93.5076C80.793 93.6608 81.0328 93.7455 81.3008 93.7616C81.5689 93.7778 81.8449 93.722 82.129 93.5943C82.3305 93.5038 82.5014 93.3866 82.6417 93.2428C82.7871 93.0968 82.9211 92.8906 83.0436 92.6245L83.7007 93.009C83.6325 93.1887 83.5289 93.3657 83.3898 93.5399C83.256 93.7118 83.1011 93.8715 82.9252 94.0188C82.7521 94.1587 82.57 94.2716 82.3789 94.3575ZM88.9899 91.3864C88.5457 91.586 88.1136 91.6746 87.6938 91.6522C87.2791 91.6275 86.8714 91.494 86.4708 91.2519L86.7481 90.3356C87.1638 90.5834 87.5191 90.7248 87.8143 90.7598C88.1094 90.7948 88.4171 90.7404 88.7374 90.5964C88.9337 90.5082 89.098 90.3971 89.2302 90.2632C89.3625 90.1292 89.4508 89.9871 89.495 89.8369C89.5392 89.6866 89.53 89.5417 89.4673 89.4023C89.4255 89.3093 89.3706 89.2284 89.3024 89.1597C89.2343 89.091 89.1516 89.0381 89.0542 89.0012C88.9621 88.9619 88.8515 88.937 88.7227 88.9266C88.599 88.9139 88.4607 88.9171 88.3079 88.9361C88.1527 88.95 87.9803 88.9809 87.7907 89.0288C87.3863 89.1237 87.0276 89.1545 86.7146 89.1213C86.4069 89.0857 86.1411 88.9848 85.9173 88.8184C85.6986 88.6496 85.5232 88.4181 85.3908 88.1236C85.2933 87.9067 85.2493 87.6843 85.2587 87.4566C85.2733 87.2265 85.333 87.0072 85.4379 86.7986C85.5457 86.5825 85.697 86.3872 85.8918 86.2127C86.0843 86.0331 86.3122 85.8841 86.5757 85.7657C86.9941 85.5777 87.3954 85.4966 87.7796 85.5226C88.1667 85.5412 88.5203 85.6648 88.8404 85.8935L88.5127 86.7392C88.2439 86.5558 87.9709 86.4456 87.6936 86.4088C87.4214 86.3697 87.1536 86.4093 86.8902 86.5277C86.6887 86.6183 86.527 86.7282 86.4051 86.8575C86.2832 86.9868 86.2038 87.128 86.1671 87.2812C86.1332 87.4268 86.1499 87.5745 86.2172 87.7243C86.266 87.8328 86.3319 87.9242 86.415 87.9986C86.4958 88.0679 86.5938 88.1201 86.7089 88.1552C86.8269 88.1829 86.971 88.1927 87.1412 88.1845C87.309 88.1712 87.503 88.1399 87.723 88.0907C88.035 88.025 88.3241 87.9913 88.5903 87.9896C88.8542 87.9828 89.0927 88.0091 89.3057 88.0686C89.5187 88.1281 89.6999 88.2205 89.8494 88.3458C90.004 88.4688 90.1231 88.6233 90.2066 88.8092C90.3622 89.1553 90.4168 89.4909 90.3704 89.816C90.324 90.1411 90.1849 90.4395 89.9532 90.7113C89.7191 90.9779 89.398 91.203 88.9899 91.3864ZM88.8071 92.2229L87.2261 88.7051L88.0926 88.623L89.5587 91.8851L88.8071 92.2229ZM88.4026 88.4838L87.5361 88.5658L86.077 85.3192L86.8286 84.9815L88.4026 88.4838ZM92.8293 89.1114L90.8514 84.7103L91.2356 84.7984L90.4205 85.8446L89.8685 85.2172L90.9692 83.7912L91.3721 83.6101L93.6739 88.7318L92.8293 89.1114ZM92.1399 89.8776L91.7777 89.0717L94.3657 87.9087L94.7279 88.7145L92.1399 89.8776ZM98.0463 87.2231L95.6087 81.7992L97.8713 80.7824C98.2173 80.6269 98.5324 80.5473 98.8165 80.5439C99.1005 80.5404 99.3484 80.6153 99.56 80.7685C99.7746 80.9142 99.948 81.1343 100.08 81.4288C100.213 81.7232 100.243 82.0109 100.17 82.2918C100.103 82.5704 99.942 82.8134 99.6876 83.0209L99.6179 82.866C99.8839 82.8085 100.137 82.8063 100.379 82.8593C100.617 82.9072 100.83 83.0073 101.016 83.1595C101.208 83.3093 101.361 83.5108 101.474 83.7639C101.59 84.0222 101.652 84.2706 101.66 84.5093C101.671 84.7404 101.627 84.9591 101.527 85.1653C101.432 85.3693 101.29 85.5573 101.1 85.7295C100.908 85.8965 100.67 86.0438 100.386 86.1715L98.0463 87.2231ZM98.521 86.0412L99.9777 85.3865C100.189 85.2913 100.354 85.1803 100.471 85.0533C100.592 84.924 100.665 84.7825 100.69 84.6289C100.717 84.4677 100.692 84.3019 100.615 84.1315C100.543 83.9713 100.438 83.8542 100.299 83.78C100.165 83.7035 100.008 83.6717 99.8274 83.6845C99.6446 83.6922 99.4473 83.7436 99.2355 83.8388L97.8176 84.476L98.521 86.0412ZM97.4554 83.6702L98.8346 83.0503C98.9896 82.9807 99.1125 82.8882 99.2035 82.7728C99.2996 82.6551 99.3569 82.5269 99.3753 82.3882C99.3988 82.2473 99.3793 82.107 99.3166 81.9676C99.2121 81.7351 99.0546 81.5917 98.8439 81.5374C98.6332 81.4831 98.3832 81.5209 98.0939 81.6509L96.8077 82.229L97.4554 83.6702ZM103.212 84.9016L101.384 80.8337L102.182 80.475L104.01 84.5429L103.212 84.9016ZM101.367 79.7608C101.197 79.8374 101.045 79.8527 100.913 79.8066C100.78 79.7606 100.678 79.6575 100.606 79.4974C100.539 79.3476 100.531 79.2053 100.582 79.0705C100.638 78.9334 100.749 78.8277 100.914 78.7535C101.085 78.6769 101.236 78.6616 101.369 78.7076C101.501 78.7536 101.604 78.8567 101.675 79.0168C101.743 79.1666 101.748 79.3101 101.692 79.4472C101.641 79.5819 101.532 79.6865 101.367 79.7608ZM105.213 84.0021L102.637 78.2682L103.435 77.9096L106.012 83.6434L105.213 84.0021ZM107.119 83.1455L104.543 77.4117L105.341 77.053L107.917 82.7868L107.119 83.1455ZM109.142 82.2367L107.313 78.1688L108.111 77.8101L109.94 81.878L109.142 82.2367ZM107.297 77.0959C107.126 77.1725 106.975 77.1878 106.842 77.1417C106.71 77.0957 106.608 76.9926 106.536 76.8325C106.469 76.6827 106.46 76.5404 106.512 76.4056C106.568 76.2685 106.679 76.1629 106.844 76.0886C107.015 76.012 107.166 75.9967 107.299 76.0427C107.431 76.0887 107.533 76.1918 107.605 76.3519C107.672 76.5017 107.678 76.6452 107.622 76.7823C107.57 76.917 107.462 77.0216 107.297 77.0959ZM112.991 80.5998C112.593 80.7786 112.196 80.8483 111.8 80.8092C111.406 80.7625 111.048 80.6222 110.726 80.3884C110.401 80.1494 110.147 79.8258 109.964 79.4177C109.78 79.0096 109.708 78.6074 109.748 78.2111C109.784 77.8096 109.917 77.4487 110.146 77.1287C110.377 76.8011 110.692 76.5479 111.09 76.3692C111.482 76.1927 111.875 76.1278 112.269 76.1745C112.665 76.2137 113.026 76.3528 113.351 76.5918C113.673 76.8257 113.926 77.1466 114.109 77.5547C114.293 77.9628 114.366 78.3676 114.329 78.7691C114.29 79.1655 114.155 79.5274 113.923 79.855C113.694 80.1751 113.384 80.4234 112.991 80.5998ZM112.664 79.8714C112.907 79.7623 113.097 79.6054 113.235 79.4007C113.37 79.1909 113.445 78.9582 113.461 78.7029C113.474 78.4423 113.419 78.1815 113.296 77.9204C113.18 77.6494 113.022 77.435 112.82 77.2771C112.617 77.1141 112.393 77.0161 112.148 76.9832C111.904 76.9503 111.66 76.9884 111.417 77.0975C111.174 77.2066 110.983 77.3673 110.842 77.5795C110.704 77.7842 110.629 78.0168 110.616 78.2773C110.6 78.5327 110.654 78.791 110.777 79.0521C110.891 79.3179 111.049 79.5323 111.253 79.6953C111.454 79.8532 111.678 79.9511 111.925 79.9892C112.175 80.0198 112.421 79.9806 112.664 79.8714ZM115.856 79.2191L114.028 75.1512L114.826 74.7925L115.202 75.6294L115.104 75.785C115.075 75.581 115.101 75.3704 115.184 75.1533C115.264 74.931 115.386 74.727 115.551 74.5411C115.714 74.3501 115.903 74.2058 116.12 74.1083C116.43 73.9691 116.716 73.915 116.979 73.9461C117.239 73.972 117.476 74.0858 117.691 74.2873C117.906 74.4888 118.098 74.7781 118.267 75.1552L119.382 77.6347L118.583 77.9934L117.493 75.5681C117.389 75.3357 117.272 75.1585 117.143 75.0365C117.011 74.9094 116.866 74.8413 116.706 74.8322C116.545 74.8179 116.371 74.8589 116.184 74.9551C116.029 75.0247 115.899 75.1144 115.793 75.2241C115.685 75.3286 115.601 75.4469 115.542 75.5788C115.489 75.7084 115.46 75.8454 115.457 75.9897C115.456 76.1266 115.486 76.2621 115.547 76.3965L116.654 78.8605L116.259 79.038C116.192 79.0682 116.125 79.0984 116.057 79.1286C115.99 79.1588 115.923 79.1889 115.856 79.2191ZM122.69 76.1478L120.862 72.0798L121.66 71.7212L123.488 75.7891L122.69 76.1478ZM120.845 71.0069C120.675 71.0835 120.523 71.0988 120.391 71.0528C120.259 71.0067 120.156 70.9037 120.084 70.7435C120.017 70.5937 120.009 70.4514 120.06 70.3167C120.117 70.1796 120.227 70.0739 120.393 69.9996C120.563 69.923 120.715 69.9077 120.847 69.9537C120.98 69.9998 121.082 70.1028 121.154 70.263C121.221 70.4128 121.226 70.5562 121.17 70.6933C121.119 70.8281 121.011 70.9326 120.845 71.0069ZM124.676 75.2552L122.848 71.1873L123.646 70.8286L124.022 71.6654L123.924 71.8211C123.895 71.6171 123.921 71.4065 124.004 71.1894C124.084 70.9671 124.206 70.763 124.371 70.5772C124.534 70.3862 124.724 70.2419 124.94 70.1444C125.25 70.0051 125.537 69.951 125.799 69.9821C126.059 70.0081 126.296 70.1218 126.511 70.3233C126.726 70.5249 126.918 70.8142 127.087 71.1912L128.202 73.6707L127.404 74.0294L126.314 71.6042C126.209 71.3717 126.092 71.1945 125.963 71.0726C125.831 70.9455 125.686 70.8773 125.527 70.8682C125.365 70.8539 125.191 70.8949 125.004 70.9911C124.849 71.0608 124.719 71.1505 124.613 71.2602C124.505 71.3647 124.421 71.4829 124.363 71.6148C124.309 71.7444 124.281 71.8814 124.277 72.0258C124.277 72.1626 124.307 72.2982 124.367 72.4325L125.474 74.8965L125.079 75.0741C125.012 75.1043 124.945 75.1345 124.878 75.1646C124.81 75.1948 124.743 75.225 124.676 75.2552ZM133.815 71.241C133.438 71.4105 133.062 71.4988 132.687 71.5062C132.311 71.5135 131.951 71.4454 131.608 71.3019C131.261 71.1532 130.947 70.9375 130.665 70.6546C130.388 70.3694 130.157 70.0227 129.974 69.6146C129.8 69.2272 129.705 68.838 129.691 68.4471C129.68 68.0486 129.739 67.6683 129.868 67.3061C129.997 66.9438 130.19 66.621 130.448 66.3376C130.705 66.0542 131.02 65.8289 131.392 65.6618C131.655 65.5434 131.93 65.4698 132.215 65.441C132.503 65.4047 132.78 65.4136 133.046 65.4677C133.316 65.5144 133.555 65.599 133.766 65.7218L133.469 66.5537C133.252 66.4712 133.044 66.4157 132.845 66.3872C132.649 66.3512 132.459 66.3434 132.275 66.3637C132.097 66.3817 131.928 66.4266 131.768 66.4986C131.515 66.6124 131.299 66.7682 131.121 66.9662C130.946 67.1567 130.814 67.3743 130.725 67.6191C130.642 67.8615 130.607 68.1224 130.621 68.4018C130.632 68.676 130.701 68.9526 130.826 69.2316C130.958 69.526 131.123 69.7749 131.32 69.9782C131.52 70.1741 131.741 70.3201 131.983 70.4162C132.224 70.5124 132.48 70.5559 132.749 70.5467C133.021 70.5301 133.296 70.4591 133.575 70.3337C133.746 70.2571 133.903 70.1584 134.048 70.0376C134.192 69.9169 134.317 69.7801 134.422 69.6272C134.527 69.4744 134.612 69.3119 134.678 69.1397L135.403 69.6335C135.347 69.8264 135.241 70.0261 135.085 70.2326C134.935 70.4368 134.748 70.6293 134.525 70.8102C134.305 70.9836 134.069 71.1272 133.815 71.241ZM138.462 69.1526C138.064 69.3314 137.667 69.4012 137.271 69.362C136.878 69.3153 136.52 69.175 136.197 68.9412C135.872 68.7022 135.618 68.3786 135.435 67.9706C135.252 67.5625 135.179 67.1602 135.219 66.7639C135.256 66.3624 135.388 66.0016 135.617 65.6815C135.849 65.3539 136.163 65.1007 136.561 64.922C136.953 64.7455 137.347 64.6807 137.74 64.7273C138.136 64.7665 138.497 64.9056 138.822 65.1446C139.144 65.3785 139.397 65.6994 139.58 66.1075C139.764 66.5156 139.837 66.9204 139.8 67.3219C139.761 67.7183 139.626 68.0803 139.394 68.4078C139.165 68.7279 138.855 68.9762 138.462 69.1526ZM138.135 68.4243C138.378 68.3152 138.568 68.1582 138.706 67.9535C138.841 67.7437 138.917 67.511 138.932 67.2557C138.945 66.9951 138.89 66.7343 138.767 66.4732C138.651 66.2022 138.493 65.9878 138.291 65.83C138.088 65.6669 137.864 65.5689 137.619 65.536C137.375 65.5031 137.131 65.5412 136.888 65.6503C136.645 65.7594 136.454 65.9201 136.313 66.1323C136.175 66.337 136.1 66.5696 136.087 66.8302C136.071 67.0855 136.125 67.3438 136.249 67.6049C136.362 67.8707 136.52 68.0851 136.724 68.2481C136.925 68.406 137.149 68.504 137.396 68.542C137.646 68.5726 137.892 68.5334 138.135 68.4243ZM141.312 67.7789L139.483 63.711L140.289 63.3488L140.679 64.2167L140.574 64.3758C140.555 64.2229 140.561 64.0648 140.593 63.9013C140.631 63.7356 140.693 63.5772 140.78 63.4262C140.871 63.2676 140.978 63.1263 141.102 63.0022C141.231 62.8757 141.376 62.7765 141.536 62.7045C141.769 62.6001 141.99 62.5471 142.201 62.5456C142.411 62.5442 142.608 62.5954 142.791 62.6993C142.975 62.8032 143.144 62.9598 143.301 63.169L143.163 63.1937L143.158 63.0376C143.161 62.8933 143.189 62.7474 143.24 62.6C143.295 62.4451 143.368 62.2973 143.46 62.1566C143.552 62.0159 143.66 61.8898 143.784 61.7783C143.908 61.6668 144.039 61.5797 144.179 61.5171C144.483 61.3801 144.762 61.3295 145.014 61.3652C145.271 61.3987 145.506 61.5199 145.717 61.7289C145.934 61.9356 146.128 62.2275 146.297 62.6046L147.394 65.0453L146.588 65.4075L145.512 63.0132C145.408 62.7808 145.292 62.6061 145.165 62.4894C145.041 62.3651 144.903 62.2935 144.752 62.2746C144.601 62.2557 144.432 62.288 144.246 62.3716C144.101 62.4366 143.976 62.5239 143.87 62.6336C143.767 62.7358 143.689 62.8517 143.635 62.9813C143.582 63.1109 143.556 63.2467 143.558 63.3888C143.557 63.5256 143.588 63.6638 143.651 63.8033L144.744 66.2363L143.938 66.5984L142.855 64.1887C142.76 63.9769 142.649 63.8126 142.522 63.6958C142.393 63.5739 142.251 63.5008 142.098 63.4768C141.944 63.4527 141.782 63.4789 141.612 63.5555C141.467 63.6205 141.344 63.7067 141.243 63.8141C141.14 63.9163 141.062 64.0322 141.009 64.1618C140.953 64.2863 140.926 64.4195 140.927 64.5615C140.927 64.6984 140.957 64.8339 141.017 64.9683L142.117 67.4168L141.312 67.7789ZM149.19 66.2872L146.596 60.5146L147.402 60.1525L147.819 61.0823L147.664 61.0682C147.625 60.8993 147.647 60.7127 147.729 60.5082C147.809 60.2986 147.932 60.1034 148.099 59.9227C148.269 59.7346 148.465 59.5906 148.687 59.4907C149.054 59.3259 149.42 59.27 149.786 59.3232C150.151 59.3763 150.487 59.5232 150.794 59.7641C151.101 60.0049 151.346 60.3293 151.529 60.7374C151.711 61.1403 151.79 61.5391 151.769 61.9336C151.751 62.3207 151.641 62.671 151.44 62.9847C151.238 63.2932 150.958 63.5275 150.602 63.6877C150.364 63.7945 150.113 63.8513 149.849 63.8581C149.583 63.8598 149.339 63.8206 149.116 63.7404C148.894 63.6603 148.729 63.5482 148.621 63.4044L148.774 63.2053L149.996 65.925L149.19 66.2872ZM150.139 63.0108C150.377 62.904 150.562 62.7494 150.694 62.547C150.827 62.3446 150.901 62.1158 150.917 61.8604C150.932 61.605 150.881 61.3456 150.762 61.0821C150.644 60.8187 150.485 60.6106 150.286 60.4579C150.09 60.2977 149.872 60.2 149.633 60.1648C149.394 60.1295 149.153 60.1665 148.91 60.2756C148.667 60.3847 148.479 60.5404 148.347 60.7428C148.212 60.94 148.137 61.1663 148.121 61.4217C148.105 61.6771 148.157 61.9365 148.275 62.2C148.394 62.4634 148.553 62.6741 148.755 62.8319C148.956 62.9898 149.176 63.0864 149.416 63.1216C149.655 63.1568 149.896 63.1199 150.139 63.0108ZM154.873 61.7772C154.538 61.9281 154.188 61.9732 153.826 61.9126C153.469 61.8497 153.135 61.6953 152.826 61.4493C152.517 61.2033 152.272 60.8788 152.091 60.4759C151.907 60.0678 151.827 59.6691 151.851 59.2797C151.878 58.8828 151.992 58.5302 152.195 58.2217C152.403 57.9109 152.685 57.6754 153.042 57.5152C153.254 57.42 153.461 57.364 153.665 57.347C153.868 57.3301 154.06 57.3494 154.24 57.405C154.423 57.4531 154.589 57.5309 154.736 57.6384C154.889 57.7436 155.013 57.8742 155.108 58.0302L154.902 58.0483L154.428 56.9945L155.234 56.6324L157.062 60.7003L156.256 61.0624L155.821 60.0939L155.983 59.9561C156.014 60.1095 156.011 60.2754 155.974 60.4538C155.939 60.6247 155.87 60.7955 155.766 60.9661C155.668 61.1345 155.542 61.2902 155.389 61.4335C155.242 61.5744 155.07 61.689 154.873 61.7772ZM154.752 60.9471C154.994 60.8379 155.182 60.6822 155.315 60.4798C155.447 60.2774 155.519 60.0497 155.529 59.7967C155.543 59.5361 155.489 59.2715 155.368 59.0029C155.25 58.7395 155.09 58.5288 154.889 58.3709C154.692 58.2108 154.475 58.113 154.235 58.0778C153.996 58.0426 153.755 58.0795 153.512 58.1886C153.274 58.2954 153.089 58.45 152.957 58.6524C152.829 58.8524 152.758 59.0802 152.742 59.3355C152.732 59.5886 152.786 59.8468 152.904 60.1103C153.025 60.3789 153.184 60.5959 153.383 60.7612C153.584 60.9191 153.802 61.0168 154.036 61.0544C154.276 61.0896 154.514 61.0538 154.752 60.9471ZM158.138 60.2169L156.31 56.149L157.108 55.7903L157.484 56.6271L157.386 56.7828C157.357 56.5788 157.383 56.3682 157.465 56.1511C157.546 55.9288 157.668 55.7247 157.833 55.5389C157.995 55.3479 158.185 55.2036 158.402 55.1061C158.712 54.9668 158.998 54.9127 159.261 54.9439C159.521 54.9698 159.758 55.0835 159.973 55.2851C160.187 55.4866 160.38 55.7759 160.549 56.153L161.663 58.6325L160.865 58.9911L159.775 56.5659C159.671 56.3334 159.554 56.1562 159.425 56.0343C159.293 55.9072 159.148 55.8391 158.988 55.8299C158.827 55.8157 158.653 55.8566 158.466 55.9529C158.311 56.0225 158.181 56.1122 158.075 56.2219C157.966 56.3264 157.883 56.4446 157.824 56.5766C157.771 56.7062 157.742 56.8431 157.739 56.9875C157.738 57.1243 157.768 57.2599 157.829 57.3942L158.936 59.8582L158.541 60.0358C158.474 60.066 158.406 60.0962 158.339 60.1264C158.272 60.1565 158.205 60.1867 158.138 60.2169ZM164.152 59.656L164.12 57.3885L164.414 58.0204L160.322 54.3457L161.252 53.9278L163.867 56.3476C163.916 56.3877 163.983 56.4538 164.068 56.546C164.15 56.6331 164.228 56.7225 164.3 56.8142L164.119 56.9512C164.112 56.8242 164.102 56.6983 164.089 56.5735C164.082 56.4465 164.072 56.3206 164.059 56.1959L163.801 52.7822L164.746 52.3573L164.901 57.1774L165.012 59.2695L164.152 59.656ZM169.467 55.1252L167.03 49.7013L169.339 48.6636C169.649 48.5243 169.968 48.4741 170.296 48.513C170.626 48.5444 170.928 48.657 171.202 48.8508C171.473 49.0394 171.682 49.2965 171.828 49.6219C171.96 49.9163 172.006 50.2249 171.964 50.5477C171.923 50.8705 171.808 51.1674 171.62 51.4384C171.429 51.7043 171.176 51.908 170.861 52.0497L169.388 52.7113L170.304 54.7491L169.467 55.1252ZM172.691 53.6766L170.211 51.8479L170.984 51.2677L173.709 53.2281L172.691 53.6766ZM169.026 51.9055L170.576 51.209C170.726 51.1417 170.844 51.0452 170.93 50.9194C171.014 50.7886 171.061 50.6435 171.07 50.4841C171.077 50.3197 171.044 50.1573 170.972 49.9972C170.891 49.8164 170.776 49.6786 170.628 49.5838C170.482 49.4814 170.315 49.4263 170.125 49.4185C169.941 49.4083 169.753 49.4462 169.562 49.5321L168.229 50.1311L169.026 51.9055ZM176.397 52.1042C175.978 52.2923 175.567 52.3716 175.162 52.3422C174.761 52.3054 174.398 52.1738 174.072 51.9474C173.752 51.7187 173.502 51.4029 173.321 51C173.177 50.6797 173.097 50.3646 173.082 50.0548C173.067 49.7449 173.107 49.4538 173.202 49.1814C173.299 48.9015 173.452 48.653 173.658 48.436C173.868 48.2114 174.122 48.0318 174.422 47.8972C174.686 47.7788 174.954 47.7202 175.228 47.7213C175.499 47.7173 175.757 47.766 176.001 47.8673C176.251 47.9664 176.474 48.1175 176.671 48.3208C176.871 48.5167 177.032 48.7578 177.154 49.0442L177.3 49.3887L173.976 50.8826L173.512 50.3273L176.325 49.0632L176.267 49.2472L176.184 49.0612C176.092 48.8977 175.966 48.7709 175.808 48.6807C175.649 48.5905 175.478 48.5403 175.293 48.5301C175.109 48.52 174.929 48.5543 174.753 48.6333C174.474 48.7586 174.263 48.9185 174.121 49.1129C173.976 49.3021 173.901 49.5221 173.896 49.7728C173.888 50.0184 173.952 50.2909 174.087 50.5906C174.214 50.8747 174.385 51.0959 174.599 51.2543C174.811 51.4075 175.051 51.4922 175.319 51.5084C175.587 51.5245 175.863 51.4687 176.147 51.341C176.348 51.2505 176.519 51.1334 176.659 50.9896C176.805 50.8435 176.939 50.6374 177.061 50.3712L177.718 50.7558C177.65 50.9355 177.547 51.1124 177.408 51.2867C177.274 51.4586 177.119 51.6182 176.943 51.7656C176.77 51.9054 176.588 52.0183 176.397 52.1042ZM180.222 50.292L176.673 46.9971L177.534 46.6106L180.142 49.0985L180.026 49.2344L179.951 45.5241L180.772 45.155L180.795 50.0343L180.222 50.292ZM185.112 48.1875C184.693 48.3755 184.282 48.4549 183.878 48.4255C183.476 48.3886 183.113 48.257 182.787 48.0306C182.467 47.802 182.217 47.4862 182.036 47.0832C181.892 46.763 181.812 46.4479 181.797 46.138C181.782 45.8281 181.822 45.537 181.917 45.2646C182.015 44.9848 182.167 44.7363 182.374 44.5192C182.583 44.2947 182.838 44.1151 183.137 43.9804C183.401 43.862 183.669 43.8034 183.943 43.8046C184.214 43.8006 184.472 43.8493 184.716 43.9506C184.966 44.0496 185.189 44.2008 185.386 44.4041C185.586 44.5999 185.747 44.8411 185.869 45.1275L186.015 45.4719L182.691 46.9658L182.227 46.4105L185.04 45.1465L184.983 45.3304L184.899 45.1445C184.807 44.981 184.682 44.8541 184.523 44.7639C184.365 44.6737 184.193 44.6235 184.008 44.6134C183.824 44.6032 183.644 44.6376 183.468 44.7165C183.189 44.8419 182.978 45.0018 182.836 45.1961C182.691 45.3853 182.616 45.6053 182.611 45.8561C182.603 46.1016 182.667 46.3742 182.802 46.6738C182.929 46.9579 183.1 47.1792 183.314 47.3376C183.526 47.4908 183.766 47.5755 184.034 47.5916C184.302 47.6078 184.578 47.552 184.862 47.4243C185.063 47.3338 185.234 47.2166 185.375 47.0729C185.52 46.9268 185.654 46.7206 185.777 46.4545L186.434 46.839C186.365 47.0187 186.262 47.1957 186.123 47.3699C185.989 47.5418 185.834 47.7015 185.658 47.8488C185.485 47.9887 185.303 48.1016 185.112 48.1875ZM187.68 46.9402L185.852 42.8722L186.65 42.5136L187.026 43.3504L186.928 43.5061C186.899 43.302 186.925 43.0915 187.008 42.8744C187.088 42.6521 187.21 42.448 187.375 42.2622C187.538 42.0711 187.727 41.9269 187.944 41.8294C188.254 41.6901 188.54 41.636 188.803 41.6671C189.063 41.6931 189.3 41.8068 189.515 42.0083C189.73 42.2098 189.922 42.4991 190.091 42.8762L191.205 45.3557L190.407 45.7144L189.317 43.2891C189.213 43.0567 189.096 42.8795 188.967 42.7576C188.835 42.6304 188.69 42.5623 188.53 42.5532C188.369 42.5389 188.195 42.5799 188.008 42.6761C187.853 42.7458 187.723 42.8354 187.617 42.9451C187.509 43.0497 187.425 43.1679 187.366 43.2998C187.313 43.4294 187.284 43.5664 187.281 43.7107C187.28 43.8476 187.31 43.9832 187.371 44.1175L188.478 46.5815L188.083 46.7591C188.016 46.7893 187.949 46.8194 187.881 46.8496C187.814 46.8798 187.747 46.91 187.68 46.9402ZM193.71 44.3233C193.421 44.4533 193.137 44.4999 192.86 44.4631C192.588 44.424 192.338 44.3097 192.11 44.1204C191.887 43.9286 191.7 43.6649 191.549 43.3291L190.421 40.8187L191.219 40.46L192.25 42.7535C192.357 42.9911 192.486 43.1815 192.637 43.3246C192.791 43.4603 192.959 43.5432 193.14 43.5735C193.327 43.6015 193.52 43.5702 193.722 43.4797C193.872 43.4124 193.998 43.3276 194.101 43.2254C194.202 43.118 194.277 43.0007 194.325 42.8734C194.378 42.7438 194.403 42.6054 194.399 42.4582C194.395 42.311 194.361 42.1651 194.296 42.0205L193.195 39.572L193.993 39.2133L195.821 43.2812L195.023 43.6399L194.64 42.7876L194.738 42.6319C194.762 42.8509 194.734 43.0716 194.654 43.2938C194.579 43.5138 194.461 43.7156 194.302 43.8991C194.14 44.0774 193.942 44.2188 193.71 44.3233ZM198.835 42.0199C198.417 42.2079 198.005 42.2873 197.601 42.2579C197.2 42.221 196.836 42.0894 196.511 41.8631C196.191 41.6344 195.94 41.3186 195.759 40.9157C195.615 40.5954 195.536 40.2803 195.521 39.9704C195.506 39.6606 195.545 39.3694 195.64 39.0971C195.738 38.8172 195.89 38.5687 196.097 38.3517C196.307 38.1271 196.561 37.9475 196.861 37.8129C197.124 37.6945 197.393 37.6358 197.666 37.637C197.938 37.633 198.196 37.6817 198.44 37.783C198.689 37.882 198.912 38.0332 199.109 38.2365C199.309 38.4324 199.47 38.6735 199.593 38.9599L199.738 39.3043L196.414 40.7982L195.95 40.243L198.763 38.9789L198.706 39.1628L198.623 38.9769C198.53 38.8134 198.405 38.6865 198.247 38.5963C198.088 38.5061 197.917 38.456 197.732 38.4458C197.547 38.4356 197.367 38.47 197.192 38.549C196.913 38.6743 196.702 38.8342 196.56 39.0286C196.415 39.2178 196.34 39.4377 196.335 39.6885C196.327 39.934 196.39 40.2066 196.525 40.5062C196.653 40.7903 196.824 41.0116 197.038 41.17C197.249 41.3232 197.489 41.4079 197.757 41.424C198.025 41.4402 198.301 41.3844 198.585 41.2567C198.787 41.1662 198.958 41.049 199.098 40.9053C199.243 40.7592 199.377 40.5531 199.5 40.2869L200.157 40.6714C200.089 40.8511 199.985 41.0281 199.846 41.2023C199.712 41.3742 199.557 41.5339 199.382 41.6812C199.208 41.8211 199.026 41.934 198.835 42.0199ZM203.978 39.6155L201.944 35.0904C201.84 34.858 201.799 34.6281 201.821 34.4009C201.843 34.1737 201.921 33.9678 202.055 33.7832C202.19 33.5987 202.376 33.453 202.613 33.3462C202.779 33.2719 202.948 33.2333 203.12 33.2302C203.293 33.2272 203.446 33.2576 203.58 33.3215L203.584 34.0555C203.489 34.0237 203.392 34.0083 203.293 34.0093C203.197 34.0028 203.113 34.0158 203.041 34.0483C202.932 34.097 202.847 34.1569 202.786 34.2279C202.728 34.2914 202.697 34.3674 202.693 34.456C202.687 34.5394 202.706 34.6301 202.75 34.7283L204.784 39.2534L204.381 39.4344C204.314 39.4646 204.247 39.4948 204.179 39.525C204.112 39.5552 204.045 39.5853 203.978 39.6155ZM201.861 36.6459L201.53 35.9098L203.948 34.8234L204.279 35.5595L201.861 36.6459ZM208.252 37.788C207.854 37.9668 207.457 38.0366 207.06 37.9974C206.667 37.9507 206.309 37.8105 205.987 37.5766C205.662 37.3376 205.408 37.014 205.224 36.606C205.041 36.1979 204.969 35.7957 205.008 35.3993C205.045 34.9978 205.178 34.637 205.406 34.3169C205.638 33.9893 205.953 33.7361 206.35 33.5574C206.743 33.381 207.136 33.3161 207.529 33.3627C207.926 33.4019 208.286 33.541 208.611 33.78C208.933 34.0139 209.186 34.3349 209.37 34.7429C209.553 35.151 209.626 35.5558 209.59 35.9574C209.55 36.3537 209.415 36.7157 209.183 37.0432C208.955 37.3633 208.644 37.6116 208.252 37.788ZM207.924 37.0597C208.167 36.9506 208.357 36.7937 208.495 36.589C208.63 36.3791 208.706 36.1465 208.722 35.8911C208.735 35.6305 208.68 35.3697 208.556 35.1086C208.441 34.8376 208.282 34.6232 208.081 34.4654C207.877 34.3023 207.653 34.2044 207.409 34.1714C207.164 34.1385 206.92 34.1766 206.678 34.2857C206.435 34.3949 206.243 34.5555 206.103 34.7677C205.965 34.9724 205.889 35.205 205.876 35.4656C205.86 35.7209 205.914 35.9792 206.038 36.2403C206.151 36.5061 206.31 36.7205 206.513 36.8835C206.715 37.0414 206.939 37.1394 207.186 37.1775C207.435 37.2081 207.681 37.1688 207.924 37.0597ZM211.116 36.4074L209.288 32.3394L210.094 31.9773L210.669 33.2558L210.452 32.9807C210.421 32.7588 210.436 32.5377 210.498 32.3172C210.566 32.0944 210.667 31.897 210.8 31.7251C210.939 31.5508 211.104 31.4208 211.296 31.3349C211.383 31.2954 211.47 31.266 211.554 31.2467C211.644 31.225 211.716 31.2141 211.772 31.2139L211.953 32.1757C211.879 32.1778 211.8 32.1884 211.716 32.2078C211.634 32.2196 211.557 32.2418 211.485 32.2743C211.345 32.3369 211.224 32.4257 211.12 32.5406C211.02 32.648 210.942 32.7728 210.888 32.915C210.837 33.0498 210.812 33.1945 210.813 33.3492C210.812 33.4987 210.845 33.6484 210.912 33.7982L211.922 36.0452L211.116 36.4074ZM216.839 33.8354L214.545 28.7292L215.343 28.3705L217.638 33.4767L216.839 33.8354ZM214.515 30.9219L214.167 30.147L216.755 28.9839L217.103 29.7588L214.515 30.9219ZM219.271 32.7427L216.694 27.0088L217.492 26.6502L218.617 29.1529L218.519 29.3086C218.49 29.1045 218.516 28.894 218.598 28.6769C218.679 28.4546 218.801 28.2505 218.966 28.0647C219.128 27.8736 219.318 27.7294 219.535 27.6319C219.845 27.4926 220.131 27.4385 220.394 27.4696C220.654 27.4956 220.891 27.6093 221.106 27.8108C221.32 28.0123 221.513 28.3016 221.682 28.6787L222.796 31.1582L221.998 31.5169L220.908 29.0916C220.804 28.8592 220.687 28.682 220.558 28.5601C220.426 28.4329 220.281 28.3648 220.121 28.3557C219.96 28.3414 219.785 28.3824 219.599 28.4786C219.444 28.5483 219.314 28.6379 219.208 28.7476C219.099 28.8522 219.016 28.9704 218.957 29.1023C218.904 29.2319 218.875 29.3689 218.872 29.5132C218.871 29.6501 218.901 29.7857 218.962 29.92L220.069 32.384L219.674 32.5616C219.607 32.5918 219.539 32.6219 219.472 32.6521C219.405 32.6823 219.338 32.7125 219.271 32.7427ZM225.773 29.9134C225.355 30.1014 224.944 30.1808 224.539 30.1514C224.138 30.1145 223.774 29.9829 223.449 29.7566C223.129 29.5279 222.878 29.2121 222.697 28.8092C222.553 28.4889 222.474 28.1738 222.459 27.8639C222.444 27.5541 222.484 27.2629 222.579 26.9906C222.676 26.7107 222.829 26.4622 223.035 26.2452C223.245 26.0206 223.499 25.841 223.799 25.7064C224.062 25.588 224.331 25.5293 224.605 25.5305C224.876 25.5265 225.134 25.5752 225.378 25.6765C225.627 25.7755 225.851 25.9267 226.048 26.13C226.247 26.3259 226.408 26.567 226.531 26.8534L226.676 27.1978L223.352 28.6917L222.889 28.1364L225.701 26.8724L225.644 27.0563L225.561 26.8704C225.469 26.7069 225.343 26.58 225.185 26.4898C225.026 26.3996 224.855 26.3495 224.67 26.3393C224.485 26.3291 224.305 26.3635 224.13 26.4425C223.851 26.5678 223.64 26.7277 223.498 26.9221C223.353 27.1113 223.278 27.3312 223.273 27.582C223.265 27.8275 223.329 28.1001 223.463 28.3997C223.591 28.6838 223.762 28.9051 223.976 29.0635C224.188 29.2167 224.427 29.3014 224.695 29.3175C224.963 29.3337 225.239 29.2779 225.524 29.1502C225.725 29.0597 225.896 28.9425 226.036 28.7988C226.182 28.6527 226.316 28.4466 226.438 28.1804L227.095 28.5649C227.027 28.7446 226.923 28.9216 226.784 29.0958C226.651 29.2677 226.496 29.4274 226.32 29.5747C226.147 29.7146 225.965 29.8275 225.773 29.9134ZM230.676 27.617L228.238 22.1931L229.075 21.817L231.513 27.2409L230.676 27.617ZM230.01 25.1408L229.648 24.335L232.445 23.0779L232.807 23.8837L230.01 25.1408ZM228.972 22.8318L228.61 22.0259L231.756 20.6121L232.118 21.418L228.972 22.8318ZM235.229 25.5709L233.4 21.503L234.199 21.1443L236.027 25.2122L235.229 25.5709ZM233.384 20.4301C233.213 20.5067 233.062 20.522 232.93 20.4759C232.797 20.4299 232.695 20.3268 232.623 20.1667C232.556 20.0169 232.548 19.8746 232.599 19.7398C232.655 19.6027 232.766 19.4971 232.931 19.4228C233.102 19.3462 233.253 19.3309 233.386 19.3769C233.518 19.4229 233.62 19.526 233.692 19.6861C233.76 19.8359 233.765 19.9794 233.709 20.1165C233.658 20.2512 233.549 20.3558 233.384 20.4301ZM237.215 24.6783L235.387 20.6104L236.185 20.2517L236.561 21.0886L236.463 21.2442C236.433 21.0402 236.46 20.8296 236.542 20.6125C236.623 20.3902 236.745 20.1862 236.91 20.0003C237.072 19.8093 237.262 19.6651 237.479 19.5676C237.789 19.4283 238.075 19.3742 238.337 19.4053C238.598 19.4312 238.835 19.545 239.05 19.7465C239.264 19.948 239.456 20.2373 239.626 20.6144L240.74 23.0939L239.942 23.4526L238.852 21.0273C238.748 20.7949 238.631 20.6177 238.502 20.4957C238.37 20.3686 238.224 20.3005 238.065 20.2914C237.904 20.2771 237.729 20.3181 237.543 20.4143C237.388 20.4839 237.258 20.5736 237.152 20.6833C237.043 20.7878 236.96 20.9061 236.901 21.038C236.848 21.1676 236.819 21.3046 236.816 21.4489C236.815 21.5858 236.845 21.7214 236.905 21.8557L238.013 24.3197L237.618 24.4973C237.551 24.5274 237.483 24.5576 237.416 24.5878C237.349 24.618 237.282 24.6482 237.215 24.6783ZM243.384 21.9988C243.048 22.1497 242.699 22.1949 242.337 22.1343C241.979 22.0713 241.646 21.9169 241.337 21.6709C241.028 21.4249 240.783 21.1005 240.601 20.6976C240.418 20.2895 240.338 19.8907 240.362 19.5013C240.388 19.1045 240.503 18.7518 240.706 18.4433C240.914 18.1325 241.196 17.897 241.553 17.7368C241.764 17.6416 241.972 17.5856 242.176 17.5686C242.379 17.5517 242.571 17.571 242.751 17.6266C242.934 17.6747 243.1 17.7526 243.247 17.86C243.4 17.9652 243.524 18.0958 243.619 18.2518L243.413 18.2699L242.939 17.2161L243.745 16.854L245.573 20.9219L244.767 21.2841L244.332 20.3155L244.494 20.1777C244.525 20.3311 244.522 20.497 244.485 20.6754C244.45 20.8463 244.38 21.0171 244.277 21.1878C244.179 21.3561 244.053 21.5119 243.9 21.6551C243.753 21.796 243.581 21.9106 243.384 21.9988ZM243.263 21.1687C243.505 21.0596 243.693 20.9038 243.826 20.7014C243.958 20.4991 244.03 20.2713 244.04 20.0183C244.053 19.7577 244 19.4932 243.879 19.2246C243.761 18.9611 243.601 18.7504 243.399 18.5926C243.203 18.4324 242.985 18.3347 242.746 18.2994C242.507 18.2642 242.266 18.3011 242.023 18.4102C241.785 18.517 241.6 18.6716 241.468 18.874C241.34 19.0741 241.269 19.3018 241.253 19.5572C241.243 19.8102 241.297 20.0685 241.415 20.3319C241.536 20.6005 241.695 20.8175 241.894 20.9829C242.095 21.1407 242.313 21.2385 242.547 21.276C242.786 21.3113 243.025 21.2755 243.263 21.1687ZM246.649 20.4385L244.821 16.3706L245.619 16.0119L245.995 16.8488L245.897 17.0044C245.867 16.8004 245.894 16.5898 245.976 16.3727C246.057 16.1504 246.179 15.9464 246.344 15.7605C246.506 15.5695 246.696 15.4252 246.913 15.3277C247.223 15.1885 247.509 15.1344 247.771 15.1655C248.032 15.1914 248.269 15.3052 248.484 15.5067C248.698 15.7082 248.89 15.9975 249.06 16.3746L250.174 18.8541L249.376 19.2128L248.286 16.7875C248.182 16.5551 248.065 16.3779 247.936 16.2559C247.804 16.1288 247.658 16.0607 247.499 16.0516C247.338 16.0373 247.163 16.0783 246.977 16.1745C246.822 16.2441 246.692 16.3338 246.586 16.4435C246.477 16.548 246.394 16.6663 246.335 16.7982C246.282 16.9278 246.253 17.0648 246.25 17.2091C246.249 17.346 246.279 17.4815 246.339 17.6159L247.447 20.0799L247.052 20.2574C246.985 20.2876 246.917 20.3178 246.85 20.348C246.783 20.3782 246.716 20.4083 246.649 20.4385ZM252.981 17.6859C252.604 17.8553 252.224 17.9144 251.841 17.8631C251.463 17.8095 251.114 17.662 250.794 17.4206C250.48 17.177 250.233 16.8563 250.054 16.4585C249.876 16.0608 249.8 15.6635 249.826 15.2666C249.858 14.8674 249.979 14.5086 250.19 14.1904C250.406 13.8697 250.703 13.6247 251.08 13.4552C251.441 13.2927 251.803 13.2202 252.165 13.2377C252.529 13.2477 252.846 13.3444 253.115 13.5279L252.917 14.2688C252.781 14.1871 252.626 14.1262 252.453 14.0861C252.28 14.046 252.108 14.03 251.938 14.0382C251.767 14.0464 251.615 14.0806 251.481 14.141C251.233 14.2524 251.039 14.4143 250.898 14.6264C250.76 14.8312 250.682 15.0649 250.664 15.3278C250.645 15.5907 250.695 15.8538 250.814 16.1173C250.932 16.3807 251.098 16.5916 251.312 16.75C251.524 16.9033 251.756 16.9978 252.008 17.0335C252.26 17.0693 252.505 17.0337 252.742 16.927C252.882 16.8643 253.006 16.7807 253.114 16.6761C253.227 16.5693 253.325 16.4415 253.407 16.2928C253.489 16.1441 253.555 15.9782 253.603 15.7952L254.288 16.1391C254.227 16.4458 254.076 16.7437 253.833 17.0328C253.596 17.3196 253.312 17.5373 252.981 17.6859ZM255.458 16.4796L253.63 12.4117L254.428 12.053L256.256 16.1209L255.458 16.4796ZM253.613 11.3387C253.443 11.4153 253.291 11.4306 253.159 11.3846C253.026 11.3386 252.924 11.2355 252.852 11.0754C252.785 10.9256 252.777 10.7833 252.828 10.6485C252.884 10.5114 252.995 10.4057 253.16 10.3314C253.331 10.2548 253.482 10.2395 253.615 10.2856C253.747 10.3316 253.849 10.4347 253.921 10.5948C253.989 10.7446 253.994 10.888 253.938 11.0251C253.887 11.1599 253.778 11.2644 253.613 11.3387ZM259.044 14.9611C258.708 15.112 258.359 15.1571 257.996 15.0965C257.639 15.0336 257.306 14.8791 256.997 14.6332C256.687 14.3872 256.442 14.0627 256.261 13.6598C256.078 13.2517 255.998 12.853 256.022 12.4636C256.048 12.0667 256.163 11.714 256.366 11.4056C256.574 11.0948 256.856 10.8593 257.212 10.6991C257.424 10.6039 257.632 10.5478 257.835 10.5309C258.039 10.514 258.231 10.5333 258.411 10.5889C258.594 10.637 258.759 10.7148 258.907 10.8223C259.06 10.9275 259.184 11.0581 259.278 11.2141L259.072 11.2322L258.599 10.1784L259.405 9.81624L261.233 13.8842L260.427 14.2463L259.992 13.2778L260.153 13.14C260.185 13.2934 260.182 13.4593 260.144 13.6377C260.109 13.8086 260.04 13.9794 259.937 14.15C259.839 14.3183 259.713 14.4741 259.56 14.6174C259.412 14.7583 259.24 14.8728 259.044 14.9611ZM258.922 14.1309C259.165 14.0218 259.353 13.8661 259.485 13.6637C259.618 13.4613 259.689 13.2336 259.7 12.9805C259.713 12.72 259.659 12.4554 259.539 12.1868C259.42 11.9234 259.26 11.7127 259.059 11.5548C258.863 11.3946 258.645 11.2969 258.406 11.2617C258.166 11.2265 257.925 11.2634 257.683 11.3725C257.445 11.4793 257.26 11.6339 257.127 11.8363C257 12.0363 256.928 12.264 256.913 12.5194C256.902 12.7725 256.956 13.0307 257.075 13.2942C257.195 13.5628 257.355 13.7798 257.554 13.9451C257.755 14.103 257.973 14.2007 258.207 14.2383C258.446 14.2735 258.685 14.2377 258.922 14.1309ZM262.324 13.3938L259.747 7.65998L260.545 7.30131L263.122 13.0351L262.324 13.3938ZM267.83 13.0613L267.798 10.7939L268.092 11.4257L264 7.75103L264.93 7.33316L267.545 9.75296C267.594 9.79301 267.661 9.85914 267.746 9.95137C267.828 10.0384 267.906 10.1278 267.978 10.2195L267.797 10.3565C267.79 10.2295 267.78 10.1036 267.767 9.97888C267.76 9.85183 267.75 9.72594 267.737 9.60121L267.479 6.18749L268.424 5.76265L268.579 10.5827L268.69 12.6748L267.83 13.0613ZM272.668 8.83799C272.25 9.02603 271.839 9.10537 271.434 9.07599C271.033 9.03913 270.669 8.90752 270.344 8.68115C270.024 8.45247 269.773 8.13667 269.592 7.73375C269.448 7.41348 269.369 7.09841 269.354 6.78853C269.339 6.47866 269.379 6.18753 269.473 5.91515C269.571 5.63528 269.723 5.38681 269.93 5.16974C270.14 4.94519 270.394 4.76559 270.694 4.63094C270.957 4.51254 271.226 4.45393 271.5 4.45509C271.771 4.45109 272.029 4.49976 272.273 4.60111C272.522 4.70013 272.746 4.8513 272.942 5.05462C273.142 5.25045 273.303 5.49158 273.426 5.77801L273.571 6.12242L270.247 7.61632L269.784 7.06104L272.596 5.79697L272.539 5.98093L272.456 5.79497C272.364 5.63147 272.238 5.50462 272.08 5.41442C271.921 5.32422 271.75 5.27404 271.565 5.26388C271.38 5.25372 271.2 5.28811 271.025 5.36704C270.746 5.4924 270.535 5.65227 270.393 5.84665C270.248 6.03585 270.173 6.25583 270.168 6.50656C270.16 6.75213 270.224 7.02471 270.358 7.32432C270.486 7.60843 270.657 7.82968 270.871 7.98808C271.082 8.14131 271.322 8.22599 271.59 8.24213C271.858 8.25827 272.134 8.2025 272.419 8.07481C272.62 7.98427 272.791 7.86712 272.931 7.72336C273.077 7.57728 273.211 7.37115 273.333 7.10498L273.99 7.48953C273.922 7.66923 273.818 7.84619 273.679 8.02042C273.545 8.19234 273.391 8.35197 273.215 8.49933C273.042 8.63921 272.859 8.75209 272.668 8.83799ZM276.837 6.96474C276.501 7.11564 276.152 7.16079 275.789 7.10019C275.432 7.03727 275.098 6.88282 274.789 6.63684C274.48 6.39086 274.235 6.06641 274.054 5.6635C273.87 5.25541 273.79 4.85667 273.814 4.46728C273.841 4.0704 273.955 3.71773 274.158 3.40924C274.366 3.09844 274.648 2.86295 275.005 2.70277C275.217 2.60758 275.424 2.55152 275.628 2.53458C275.831 2.51763 276.023 2.53696 276.203 2.59257C276.386 2.64069 276.552 2.71849 276.699 2.82598C276.852 2.93116 276.976 3.06175 277.071 3.21776L276.865 3.23587L276.391 2.18208L277.197 1.81992L279.025 5.88785L278.22 6.25L277.784 5.28145L277.946 5.14364C277.978 5.29704 277.975 5.46295 277.937 5.64136C277.902 5.81229 277.833 5.98307 277.729 6.15371C277.631 6.32202 277.506 6.4778 277.353 6.62104C277.205 6.76196 277.033 6.87653 276.837 6.96474ZM276.715 6.13462C276.958 6.02551 277.145 5.86976 277.278 5.66738C277.41 5.465 277.482 5.23728 277.492 4.98422C277.506 4.72368 277.452 4.4591 277.331 4.19049C277.213 3.92704 277.053 3.71638 276.852 3.55851C276.656 3.39832 276.438 3.3006 276.198 3.26537C275.959 3.23013 275.718 3.26707 275.475 3.37618C275.238 3.48297 275.053 3.63756 274.92 3.83995C274.793 4.04001 274.721 4.26773 274.705 4.5231C274.695 4.77616 274.749 5.03441 274.867 5.29786C274.988 5.56647 275.148 5.78345 275.346 5.94881C275.547 6.10669 275.765 6.2044 275.999 6.24196C276.239 6.27719 276.477 6.24141 276.715 6.13462ZM280.101 5.40446L278.273 1.33654L279.079 0.974379L279.653 2.25287L279.437 1.97775C279.405 1.75592 279.421 1.53476 279.483 1.31427C279.55 1.09145 279.651 0.89409 279.785 0.722178C279.924 0.547943 280.089 0.417878 280.28 0.331982C280.368 0.292516 280.454 0.26312 280.539 0.243794C280.628 0.222146 280.701 0.211207 280.757 0.210976L280.937 1.17282C280.864 1.17485 280.785 1.18553 280.7 1.20486C280.619 1.21669 280.542 1.23886 280.469 1.27137C280.33 1.33405 280.208 1.42282 280.105 1.53768C280.004 1.64505 279.927 1.76986 279.873 1.91212C279.821 2.04689 279.797 2.19161 279.798 2.34629C279.797 2.4958 279.83 2.64546 279.897 2.79526L280.907 5.0423L280.101 5.40446Z" fill="#162238"/>
</g>
<g clip-path="url(#clip2_49073_15533)">
<rect x="54.8574" y="129.555" width="660.18" height="287.354" rx="3.03391" transform="rotate(-24.2 54.8574 129.555)" fill="#FAFAFA"/>
<path d="M83.1312 146.673L82.8078 145.953L83.6208 145.588L82.0041 141.99L81.191 142.356L80.8677 141.636L83.2708 140.556L83.5942 141.276L82.7811 141.641L84.3979 145.238L85.2109 144.873L85.5343 145.593L83.1312 146.673ZM86.5167 145.151L84.8191 141.374L85.5673 141.037L85.9295 141.843L85.8316 141.991C85.8139 141.849 85.82 141.702 85.8498 141.55C85.8844 141.397 85.9423 141.249 86.0234 141.109C86.1071 140.962 86.2067 140.831 86.3221 140.716C86.4423 140.598 86.5767 140.506 86.7254 140.439C86.9413 140.342 87.1469 140.293 87.3423 140.292C87.5377 140.29 87.7206 140.338 87.8908 140.434C88.0609 140.531 88.2185 140.676 88.3635 140.87L88.2355 140.893L88.2308 140.748C88.234 140.614 88.2596 140.479 88.3077 140.342C88.3583 140.198 88.4264 140.061 88.5118 139.93C88.5972 139.8 88.6974 139.683 88.8123 139.579C88.9272 139.476 89.0494 139.395 89.1789 139.336C89.4619 139.209 89.7204 139.162 89.9544 139.195C90.1932 139.227 90.411 139.339 90.6078 139.533C90.8093 139.725 90.9888 139.996 91.1462 140.346L92.1647 142.613L91.4165 142.949L90.4173 140.726C90.3203 140.51 90.2128 140.348 90.0949 140.239C89.9796 140.124 89.8517 140.057 89.7112 140.04C89.5707 140.022 89.4141 140.052 89.2415 140.13C89.1072 140.19 88.9908 140.271 88.8925 140.373C88.7967 140.468 88.724 140.576 88.6743 140.696C88.6247 140.816 88.6006 140.943 88.6022 141.074C88.6017 141.202 88.6305 141.33 88.6887 141.459L89.7041 143.719L88.9558 144.055L87.9501 141.817C87.8618 141.621 87.7586 141.468 87.6407 141.36C87.5206 141.246 87.3892 141.179 87.2466 141.156C87.1039 141.134 86.9535 141.158 86.7952 141.229C86.6609 141.29 86.5469 141.37 86.4534 141.469C86.3576 141.564 86.2849 141.672 86.2353 141.792C86.1834 141.908 86.1583 142.032 86.1599 142.163C86.1594 142.291 86.1871 142.416 86.2432 142.541L87.265 144.815L86.5167 145.151ZM93.8323 143.766L91.4233 138.406L92.1716 138.069L92.5596 138.933L92.4154 138.92C92.3795 138.763 92.3996 138.59 92.4757 138.4C92.5497 138.205 92.6642 138.024 92.8195 137.856C92.9773 137.681 93.1594 137.548 93.3656 137.455C93.7062 137.302 94.0461 137.25 94.3854 137.299C94.7246 137.349 95.0368 137.485 95.3218 137.709C95.6068 137.932 95.8344 138.234 96.0047 138.612C96.1728 138.987 96.247 139.357 96.2272 139.723C96.21 140.083 96.1083 140.408 95.922 140.699C95.7337 140.986 95.474 141.203 95.143 141.352C94.9224 141.451 94.6895 141.504 94.4445 141.51C94.1973 141.512 93.9705 141.475 93.764 141.401C93.5576 141.327 93.4042 141.223 93.3038 141.089L93.4456 140.904L94.5806 143.43L93.8323 143.766ZM94.7135 140.723C94.9342 140.624 95.1061 140.481 95.2292 140.293C95.3523 140.105 95.4211 139.892 95.4356 139.655C95.4501 139.418 95.4023 139.177 95.2924 138.933C95.1825 138.688 95.0351 138.495 94.8503 138.353C94.6681 138.204 94.4659 138.113 94.2436 138.081C94.0214 138.048 93.7975 138.082 93.5721 138.184C93.3467 138.285 93.1724 138.43 93.0493 138.618C92.924 138.801 92.8542 139.011 92.8397 139.248C92.8252 139.485 92.8729 139.726 92.9828 139.971C93.0928 140.215 93.2412 140.411 93.4282 140.557C93.6151 140.704 93.8197 140.794 94.042 140.826C94.2642 140.859 94.4881 140.825 94.7135 140.723ZM97.6384 140.153L95.2455 134.828L95.9866 134.495L98.3794 139.82L97.6384 140.153ZM99.5161 139.309L97.8185 135.532L98.5595 135.198L100.257 138.976L99.5161 139.309ZM97.8031 134.535C97.6448 134.606 97.5042 134.621 97.3812 134.578C97.2582 134.535 97.1633 134.439 97.0965 134.291C97.034 134.152 97.0265 134.019 97.074 133.894C97.1264 133.767 97.2293 133.669 97.3828 133.6C97.541 133.529 97.6817 133.515 97.8047 133.557C97.9277 133.6 98.0226 133.696 98.0894 133.844C98.1519 133.984 98.157 134.117 98.1047 134.244C98.0571 134.369 97.9566 134.466 97.8031 134.535ZM103.155 137.76C102.767 137.934 102.385 138.008 102.009 137.981C101.637 137.947 101.299 137.824 100.997 137.614C100.7 137.402 100.467 137.109 100.299 136.734C100.165 136.437 100.092 136.144 100.078 135.857C100.064 135.569 100.101 135.299 100.189 135.046C100.279 134.786 100.421 134.555 100.613 134.354C100.807 134.145 101.044 133.978 101.322 133.853C101.567 133.743 101.816 133.689 102.07 133.69C102.322 133.686 102.561 133.731 102.788 133.826C103.02 133.917 103.227 134.058 103.41 134.247C103.595 134.429 103.745 134.652 103.859 134.918L103.994 135.238L100.907 136.625L100.477 136.11L103.088 134.936L103.035 135.107L102.958 134.934C102.872 134.782 102.756 134.665 102.609 134.581C102.462 134.497 102.302 134.45 102.131 134.441C101.959 134.432 101.792 134.463 101.629 134.537C101.37 134.653 101.174 134.802 101.042 134.982C100.908 135.158 100.838 135.362 100.833 135.595C100.826 135.823 100.885 136.076 101.01 136.354C101.129 136.618 101.287 136.824 101.486 136.971C101.683 137.113 101.905 137.192 102.154 137.206C102.403 137.221 102.66 137.17 102.923 137.051C103.11 136.967 103.269 136.858 103.399 136.725C103.534 136.589 103.659 136.398 103.773 136.151L104.383 136.508C104.319 136.675 104.223 136.839 104.094 137.001C103.97 137.16 103.826 137.308 103.663 137.445C103.502 137.575 103.333 137.68 103.155 137.76ZM107.148 135.965C106.803 136.121 106.456 136.176 106.107 136.131C105.761 136.079 105.443 135.942 105.153 135.721C104.861 135.494 104.63 135.192 104.459 134.813C104.289 134.434 104.215 134.064 104.237 133.702C104.262 133.333 104.371 133.005 104.564 132.716C104.755 132.423 105.02 132.2 105.361 132.047C105.548 131.963 105.742 131.913 105.943 131.898C106.146 131.875 106.341 131.886 106.528 131.929C106.712 131.967 106.87 132.031 107.003 132.122C107.139 132.205 107.234 132.309 107.29 132.433L107.081 132.545L105.946 130.019L106.687 129.686L109.08 135.011L108.339 135.344L107.935 134.444L108.079 134.38C108.13 134.495 108.144 134.627 108.119 134.777C108.092 134.922 108.035 135.071 107.948 135.225C107.867 135.377 107.755 135.52 107.613 135.653C107.476 135.784 107.321 135.888 107.148 135.965ZM106.961 135.28C107.187 135.178 107.36 135.031 107.481 134.839C107.602 134.646 107.666 134.43 107.673 134.19C107.684 133.943 107.632 133.693 107.517 133.439C107.403 133.184 107.251 132.981 107.062 132.83C106.876 132.672 106.67 132.574 106.446 132.536C106.222 132.499 105.997 132.531 105.771 132.632C105.546 132.733 105.373 132.88 105.252 133.073C105.131 133.266 105.065 133.486 105.055 133.732C105.047 133.972 105.101 134.219 105.215 134.473C105.329 134.727 105.48 134.934 105.666 135.092C105.855 135.243 106.062 135.338 106.286 135.375C106.511 135.413 106.736 135.381 106.961 135.28ZM113.189 133.164L111.262 128.876L109.851 129.51L109.515 128.761L113.156 127.125L113.492 127.874L112.039 128.527L113.966 132.815L113.189 133.164ZM116.923 131.572C116.612 131.712 116.287 131.754 115.951 131.698C115.619 131.64 115.309 131.496 115.022 131.268C114.735 131.039 114.508 130.738 114.339 130.364C114.169 129.985 114.095 129.615 114.117 129.253C114.142 128.885 114.248 128.557 114.436 128.271C114.63 127.982 114.892 127.763 115.223 127.615C115.419 127.526 115.612 127.474 115.801 127.458C115.99 127.443 116.168 127.461 116.336 127.512C116.505 127.557 116.659 127.629 116.796 127.729C116.938 127.827 117.053 127.948 117.141 128.093L116.95 128.11L116.51 127.131L117.258 126.795L118.956 130.572L118.208 130.909L117.804 130.009L117.954 129.881C117.983 130.024 117.98 130.178 117.945 130.343C117.913 130.502 117.848 130.661 117.752 130.819C117.661 130.975 117.545 131.12 117.403 131.253C117.265 131.384 117.106 131.49 116.923 131.572ZM116.81 130.801C117.036 130.7 117.21 130.555 117.333 130.368C117.456 130.18 117.523 129.968 117.532 129.733C117.545 129.491 117.495 129.246 117.383 128.996C117.273 128.751 117.124 128.556 116.938 128.409C116.755 128.261 116.553 128.17 116.331 128.137C116.109 128.104 115.885 128.139 115.659 128.24C115.439 128.339 115.267 128.483 115.144 128.671C115.025 128.856 114.959 129.068 114.945 129.305C114.935 129.54 114.985 129.78 115.095 130.024C115.207 130.274 115.355 130.475 115.539 130.629C115.726 130.775 115.929 130.866 116.146 130.901C116.368 130.934 116.59 130.901 116.81 130.801ZM121.246 129.629C120.93 129.772 120.619 129.845 120.316 129.849C120.012 129.853 119.728 129.784 119.463 129.644L119.772 128.986C119.992 129.089 120.202 129.141 120.405 129.143C120.61 129.137 120.82 129.086 121.036 128.989C121.122 128.95 121.197 128.905 121.261 128.853C121.327 128.795 121.376 128.732 121.41 128.665C121.448 128.596 121.468 128.526 121.471 128.456C121.472 128.381 121.456 128.307 121.424 128.235C121.368 128.11 121.277 128.03 121.151 127.994C121.088 127.982 120.995 127.981 120.873 127.99C120.752 127.992 120.601 128.008 120.419 128.038C120.108 128.091 119.844 128.112 119.625 128.101C119.407 128.089 119.224 128.048 119.076 127.976C118.963 127.917 118.866 127.842 118.785 127.752C118.702 127.657 118.631 127.544 118.573 127.415C118.502 127.256 118.471 127.097 118.48 126.938C118.491 126.771 118.536 126.613 118.612 126.463C118.692 126.306 118.801 126.165 118.941 126.039C119.085 125.911 119.25 125.804 119.438 125.72C119.615 125.641 119.801 125.586 119.995 125.556C120.194 125.525 120.388 125.521 120.578 125.545C120.768 125.569 120.941 125.621 121.098 125.701L120.883 126.359C120.751 126.309 120.615 126.275 120.475 126.258C120.337 126.233 120.204 126.226 120.076 126.238C119.949 126.249 119.84 126.275 119.748 126.316C119.648 126.361 119.561 126.412 119.488 126.467C119.415 126.523 119.358 126.583 119.318 126.648C119.283 126.71 119.263 126.776 119.26 126.846C119.257 126.917 119.272 126.988 119.305 127.06C119.337 127.12 119.379 127.174 119.429 127.221C119.481 127.26 119.54 127.289 119.605 127.306C119.675 127.32 119.773 127.325 119.898 127.321C120.022 127.317 120.175 127.297 120.355 127.262C120.623 127.217 120.851 127.198 121.039 127.206C121.23 127.207 121.392 127.235 121.526 127.29C121.663 127.338 121.778 127.413 121.87 127.516C121.962 127.618 122.042 127.744 122.109 127.893C122.206 128.109 122.231 128.331 122.184 128.56C122.139 128.781 122.035 128.987 121.872 129.175C121.709 129.364 121.5 129.515 121.246 129.629ZM123.508 127.108L123.11 126.319L124.11 123.715L125.11 123.266L123.508 127.108ZM123.362 128.592L120.969 123.268L121.71 122.935L124.103 128.259L123.362 128.592ZM125.909 127.448L123.737 126.426L124.046 125.708L126.858 127.021L125.909 127.448ZM130.28 125.059L128.444 120.972L128.801 121.054L128.044 122.026L127.531 121.443L128.553 120.119L128.927 119.951L131.065 124.707L130.28 125.059ZM129.64 125.771L129.304 125.022L131.707 123.942L132.043 124.691L129.64 125.771Z" fill="#6E7C87"/>
<rect x="85.7695" y="152.966" width="632.692" height="23.4825" rx="2.03272" transform="rotate(-24.2 85.7695 152.966)" fill="white"/>
<rect x="85.7695" y="152.966" width="632.692" height="23.4825" rx="2.03272" transform="rotate(-24.2 85.7695 152.966)" stroke="#E5E9EB" stroke-width="0.788818"/>
<path d="M100.901 161.779L98.4636 156.355L100.509 155.436C100.881 155.269 101.25 155.184 101.615 155.181C101.983 155.171 102.335 155.236 102.671 155.377C103.008 155.518 103.312 155.725 103.585 156C103.857 156.275 104.083 156.611 104.262 157.009C104.441 157.407 104.543 157.802 104.57 158.193C104.595 158.579 104.548 158.945 104.43 159.29C104.315 159.627 104.132 159.933 103.883 160.206C103.631 160.475 103.319 160.693 102.947 160.86L100.901 161.779ZM101.29 161.027L101.171 160.95L102.643 160.288C102.928 160.161 103.166 159.994 103.36 159.789C103.556 159.577 103.698 159.339 103.785 159.077C103.874 158.807 103.908 158.522 103.885 158.222C103.867 157.919 103.786 157.608 103.642 157.288C103.498 156.967 103.319 156.7 103.105 156.486C102.896 156.27 102.661 156.108 102.402 156.001C102.141 155.889 101.869 155.837 101.587 155.845C101.303 155.849 101.019 155.915 100.735 156.042L99.2397 156.714L99.2909 156.58L101.29 161.027ZM108.205 158.59C107.802 158.771 107.404 158.844 107.01 158.81C106.621 158.774 106.268 158.638 105.951 158.401C105.633 158.165 105.383 157.843 105.2 157.435C105.058 157.12 104.98 156.814 104.964 156.517C104.946 156.214 104.982 155.928 105.072 155.658C105.167 155.386 105.315 155.142 105.516 154.927C105.715 154.707 105.96 154.532 106.249 154.402C106.523 154.279 106.793 154.217 107.059 154.215C107.33 154.211 107.586 154.261 107.825 154.365C108.067 154.461 108.282 154.609 108.472 154.81C108.661 155.01 108.815 155.255 108.932 155.544L109.046 155.818L105.675 157.333L105.371 156.883L108.385 155.529L108.305 155.723L108.221 155.537C108.127 155.356 107.993 155.202 107.818 155.076C107.641 154.944 107.438 154.865 107.208 154.837C106.984 154.808 106.748 154.849 106.5 154.96C106.21 155.09 105.987 155.262 105.828 155.476C105.667 155.685 105.581 155.929 105.57 156.207C105.558 156.485 105.628 156.792 105.779 157.128C105.923 157.448 106.11 157.7 106.341 157.881C106.569 158.058 106.826 158.16 107.112 158.187C107.402 158.212 107.71 158.151 108.036 158.005C108.227 157.919 108.401 157.803 108.559 157.658C108.72 157.504 108.872 157.281 109.013 156.988L109.503 157.271C109.438 157.443 109.343 157.613 109.22 157.78C109.094 157.942 108.946 158.096 108.775 158.241C108.602 158.38 108.412 158.497 108.205 158.59ZM111.88 156.845L108.358 153.566L109.001 153.277L111.836 155.98L111.719 156.135L111.674 152.076L112.294 151.797L112.299 156.657L111.88 156.845ZM116.459 154.88C116.056 155.061 115.658 155.135 115.263 155.101C114.875 155.065 114.522 154.928 114.204 154.692C113.887 154.456 113.637 154.134 113.453 153.726C113.312 153.411 113.233 153.105 113.218 152.807C113.2 152.505 113.236 152.219 113.325 151.949C113.42 151.676 113.568 151.433 113.77 151.218C113.969 150.998 114.213 150.823 114.503 150.693C114.776 150.57 115.046 150.508 115.313 150.506C115.584 150.502 115.839 150.552 116.078 150.655C116.32 150.752 116.536 150.9 116.725 151.1C116.915 151.301 117.068 151.546 117.185 151.834L117.3 152.109L113.929 153.624L113.624 153.174L116.639 151.819L116.558 152.014L116.475 151.828C116.381 151.646 116.246 151.493 116.072 151.366C115.895 151.235 115.691 151.155 115.462 151.128C115.237 151.099 115.001 151.14 114.753 151.251C114.464 151.381 114.24 151.553 114.082 151.767C113.921 151.976 113.835 152.219 113.823 152.498C113.812 152.776 113.882 153.083 114.033 153.419C114.177 153.739 114.364 153.99 114.595 154.172C114.823 154.349 115.08 154.451 115.365 154.478C115.656 154.502 115.964 154.442 116.289 154.295C116.48 154.209 116.655 154.094 116.813 153.948C116.974 153.795 117.125 153.572 117.267 153.279L117.757 153.561C117.691 153.734 117.597 153.903 117.473 154.071C117.348 154.233 117.199 154.386 117.028 154.531C116.855 154.671 116.666 154.787 116.459 154.88ZM118.97 153.659L116.393 147.925L116.974 147.664L119.551 153.398L118.97 153.659ZM122.405 152.208C122.002 152.389 121.602 152.46 121.206 152.421C120.815 152.38 120.457 152.239 120.132 152C119.812 151.759 119.561 151.434 119.378 151.026C119.196 150.623 119.123 150.225 119.157 149.831C119.196 149.434 119.33 149.076 119.559 148.756C119.793 148.434 120.111 148.182 120.514 148.001C120.912 147.822 121.306 147.753 121.697 147.795C122.094 147.834 122.45 147.972 122.768 148.208C123.09 148.442 123.342 148.76 123.523 149.163C123.706 149.571 123.78 149.976 123.743 150.377C123.711 150.777 123.578 151.137 123.344 151.46C123.116 151.78 122.803 152.029 122.405 152.208ZM122.158 151.658C122.442 151.53 122.665 151.349 122.826 151.115C122.986 150.876 123.075 150.612 123.095 150.324C123.112 150.031 123.053 149.734 122.919 149.435C122.784 149.135 122.602 148.897 122.374 148.72C122.146 148.543 121.891 148.44 121.611 148.411C121.329 148.377 121.045 148.423 120.761 148.551C120.477 148.679 120.252 148.861 120.085 149.097C119.921 149.326 119.827 149.588 119.805 149.884C119.785 150.172 119.844 150.462 119.982 150.754C120.111 151.056 120.292 151.298 120.522 151.48C120.756 151.655 121.015 151.762 121.3 151.801C121.588 151.833 121.873 151.786 122.158 151.658ZM126.014 152.542L123.43 146.793L124.011 146.531L124.469 147.509L124.368 147.573C124.326 147.356 124.346 147.132 124.429 146.902C124.51 146.667 124.639 146.451 124.817 146.253C124.995 146.055 125.208 145.9 125.456 145.789C125.818 145.626 126.181 145.572 126.547 145.625C126.917 145.676 127.259 145.82 127.571 146.059C127.883 146.297 128.131 146.62 128.314 147.029C128.495 147.431 128.574 147.828 128.55 148.217C128.526 148.606 128.412 148.959 128.206 149.275C127.998 149.586 127.713 149.822 127.352 149.985C127.098 150.099 126.835 150.155 126.561 150.154C126.288 150.153 126.034 150.105 125.799 150.012C125.562 149.914 125.374 149.778 125.234 149.605L125.374 149.542L126.603 152.277L126.014 152.542ZM127.008 149.469C127.282 149.346 127.494 149.17 127.646 148.94C127.797 148.711 127.883 148.452 127.902 148.164C127.922 147.875 127.865 147.584 127.733 147.29C127.598 146.99 127.417 146.752 127.188 146.575C126.96 146.398 126.709 146.291 126.437 146.251C126.165 146.212 125.892 146.254 125.618 146.377C125.345 146.5 125.129 146.678 124.973 146.91C124.819 147.134 124.732 147.39 124.713 147.678C124.693 147.966 124.751 148.26 124.886 148.56C125.02 148.86 125.202 149.098 125.43 149.274C125.659 149.451 125.909 149.559 126.181 149.598C126.459 149.635 126.734 149.592 127.008 149.469ZM132.395 147.625L129.957 142.202L132.103 141.237C132.387 141.109 132.674 141.064 132.964 141.101C133.254 141.139 133.522 141.251 133.768 141.439C134.011 141.621 134.202 141.865 134.339 142.17C134.483 142.49 134.544 142.807 134.524 143.12C134.501 143.428 134.409 143.709 134.249 143.961C134.087 144.207 133.864 144.395 133.58 144.522L132.038 145.215L132.999 147.354L132.395 147.625ZM131.773 144.626L133.346 143.919C133.506 143.847 133.627 143.737 133.71 143.588C133.795 143.432 133.84 143.257 133.845 143.062C133.849 142.862 133.803 142.656 133.707 142.444C133.622 142.253 133.506 142.1 133.361 141.985C133.214 141.865 133.056 141.79 132.888 141.76C132.722 141.723 132.559 141.74 132.399 141.812L130.826 142.519L131.773 144.626ZM136.943 145.581L135.126 141.536L135.707 141.275L136.206 142.345L136.078 142.226C136.054 142.02 136.069 141.811 136.123 141.6C136.183 141.387 136.279 141.195 136.413 141.023C136.547 140.851 136.72 140.718 136.932 140.622C137.019 140.583 137.106 140.554 137.19 140.534C137.272 140.51 137.344 140.496 137.405 140.494L137.534 141.218C137.453 141.217 137.374 141.228 137.297 141.25C137.223 141.264 137.155 141.286 137.093 141.313C136.918 141.392 136.774 141.494 136.662 141.619C136.551 141.744 136.471 141.885 136.424 142.043C136.375 142.195 136.357 142.355 136.37 142.523C136.384 142.691 136.427 142.858 136.502 143.023L137.532 145.316L136.943 145.581ZM141.446 143.651C141.043 143.832 140.643 143.903 140.247 143.864C139.856 143.822 139.498 143.682 139.173 143.443C138.854 143.201 138.602 142.877 138.419 142.469C138.238 142.066 138.164 141.667 138.198 141.273C138.237 140.877 138.371 140.519 138.6 140.199C138.834 139.876 139.152 139.624 139.555 139.443C139.953 139.265 140.347 139.196 140.738 139.237C141.135 139.277 141.492 139.414 141.809 139.65C142.131 139.884 142.383 140.203 142.564 140.606C142.748 141.014 142.821 141.419 142.784 141.82C142.752 142.219 142.619 142.58 142.386 142.902C142.157 143.223 141.844 143.472 141.446 143.651ZM141.199 143.101C141.483 142.973 141.706 142.792 141.868 142.558C142.027 142.319 142.116 142.055 142.136 141.767C142.153 141.473 142.094 141.177 141.96 140.877C141.825 140.578 141.644 140.339 141.415 140.163C141.187 139.986 140.932 139.883 140.652 139.854C140.37 139.819 140.086 139.866 139.802 139.993C139.518 140.121 139.293 140.303 139.126 140.54C138.962 140.769 138.868 141.031 138.846 141.327C138.827 141.615 138.886 141.905 139.023 142.197C139.153 142.499 139.333 142.741 139.563 142.923C139.797 143.097 140.056 143.204 140.341 143.244C140.629 143.276 140.915 143.228 141.199 143.101ZM145.967 141.619C145.6 141.784 145.229 141.842 144.853 141.794C144.482 141.743 144.141 141.598 143.829 141.36C143.52 141.114 143.275 140.789 143.093 140.386C142.91 139.978 142.833 139.578 142.862 139.187C142.888 138.79 143.005 138.436 143.214 138.125C143.422 137.814 143.706 137.578 144.068 137.415C144.269 137.325 144.477 137.269 144.691 137.247C144.91 137.223 145.12 137.234 145.321 137.281C145.519 137.322 145.7 137.393 145.863 137.493C146.024 137.589 146.15 137.709 146.24 137.855L146.034 137.873L144.812 135.153L145.393 134.892L147.97 140.626L147.396 140.883L146.928 139.883L147.051 139.763C147.095 139.917 147.1 140.085 147.064 140.269C147.032 140.445 146.967 140.62 146.871 140.793C146.775 140.967 146.649 141.126 146.49 141.272C146.337 141.415 146.163 141.531 145.967 141.619ZM145.812 141.046C146.08 140.925 146.29 140.75 146.442 140.521C146.593 140.291 146.675 140.031 146.687 139.74C146.704 139.447 146.644 139.148 146.507 138.843C146.37 138.538 146.187 138.297 145.959 138.121C145.733 137.936 145.484 137.825 145.212 137.786C144.938 137.741 144.666 137.78 144.398 137.9C144.119 138.026 143.905 138.206 143.756 138.44C143.609 138.667 143.528 138.928 143.51 139.221C143.496 139.507 143.557 139.802 143.694 140.107C143.829 140.407 144.009 140.649 144.235 140.833C144.46 141.017 144.71 141.131 144.985 141.176C145.257 141.215 145.533 141.172 145.812 141.046ZM150.652 139.513C150.342 139.653 150.051 139.709 149.778 139.683C149.508 139.649 149.262 139.536 149.039 139.344C148.822 139.15 148.632 138.872 148.469 138.511L147.358 136.039L147.947 135.774L149.006 138.13C149.129 138.403 149.268 138.617 149.424 138.771C149.583 138.917 149.758 139.002 149.95 139.028C150.147 139.051 150.356 139.013 150.578 138.913C150.749 138.837 150.893 138.737 151.012 138.616C151.129 138.489 151.219 138.349 151.281 138.197C151.343 138.045 151.373 137.885 151.373 137.718C151.372 137.551 151.337 137.389 151.267 137.235L150.163 134.778L150.744 134.517L152.562 138.562L151.989 138.819L151.583 137.978L151.655 137.889C151.674 138.098 151.645 138.31 151.568 138.524C151.488 138.734 151.367 138.928 151.205 139.106C151.048 139.283 150.864 139.418 150.652 139.513ZM155.394 137.382C155.012 137.554 154.631 137.617 154.25 137.571C153.867 137.519 153.516 137.375 153.199 137.139C152.885 136.896 152.637 136.572 152.456 136.169C152.275 135.766 152.199 135.369 152.228 134.977C152.259 134.578 152.384 134.221 152.603 133.905C152.821 133.59 153.124 133.345 153.511 133.171C153.857 133.016 154.204 132.944 154.551 132.956C154.895 132.962 155.207 133.049 155.487 133.215L155.334 133.786C155.178 133.701 155.008 133.641 154.824 133.606C154.646 133.568 154.465 133.559 154.282 133.579C154.101 133.592 153.933 133.633 153.778 133.703C153.505 133.826 153.291 134.006 153.136 134.243C152.98 134.475 152.889 134.736 152.864 135.027C152.845 135.315 152.902 135.609 153.037 135.908C153.172 136.208 153.354 136.449 153.585 136.631C153.819 136.805 154.074 136.911 154.352 136.947C154.629 136.984 154.902 136.942 155.17 136.821C155.325 136.752 155.467 136.66 155.596 136.546C155.723 136.427 155.832 136.291 155.925 136.138C156.017 135.984 156.089 135.812 156.14 135.622L156.669 135.887C156.598 136.199 156.446 136.49 156.215 136.762C155.983 137.034 155.71 137.24 155.394 137.382ZM158.253 136.004L155.958 130.898L156.539 130.637L158.834 135.743L158.253 136.004ZM155.771 132.929L155.521 132.371L158.039 131.239L158.29 131.797L155.771 132.929Z" fill="#162238"/>
<g clip-path="url(#clip3_49073_15533)">
<path d="M109.137 199.883C108.864 200.006 108.593 200.084 108.326 200.118C108.063 200.149 107.804 200.136 107.547 200.078C107.293 200.014 107.044 199.907 106.798 199.758L107.055 198.907C107.441 199.137 107.771 199.269 108.045 199.301C108.319 199.334 108.605 199.283 108.903 199.149C109.085 199.067 109.237 198.964 109.36 198.84C109.483 198.716 109.565 198.584 109.606 198.444C109.647 198.305 109.639 198.17 109.58 198.041C109.542 197.954 109.491 197.879 109.427 197.815C109.364 197.751 109.287 197.702 109.197 197.668C109.111 197.632 109.009 197.609 108.889 197.599C108.774 197.587 108.646 197.59 108.504 197.608C108.36 197.621 108.2 197.649 108.024 197.694C107.741 197.757 107.484 197.789 107.253 197.789C107.023 197.789 106.814 197.753 106.626 197.682C106.438 197.611 106.276 197.507 106.141 197.372C106.003 197.233 105.888 197.059 105.795 196.853C105.705 196.652 105.664 196.445 105.672 196.234C105.686 196.02 105.741 195.816 105.839 195.623C105.939 195.422 106.079 195.241 106.26 195.079C106.439 194.912 106.651 194.774 106.895 194.664C107.154 194.547 107.407 194.474 107.653 194.444C107.899 194.414 108.136 194.429 108.364 194.488C108.59 194.542 108.802 194.64 108.998 194.782L108.694 195.568C108.527 195.453 108.36 195.369 108.192 195.317C108.023 195.261 107.854 195.239 107.687 195.251C107.517 195.258 107.35 195.298 107.187 195.371C107 195.455 106.85 195.557 106.737 195.678C106.624 195.798 106.55 195.929 106.516 196.071C106.484 196.206 106.5 196.343 106.562 196.482C106.608 196.583 106.669 196.668 106.746 196.737C106.821 196.801 106.912 196.85 107.019 196.883C107.129 196.908 107.262 196.917 107.42 196.91C107.576 196.897 107.756 196.868 107.961 196.823C108.25 196.762 108.519 196.73 108.766 196.729C109.011 196.722 109.233 196.747 109.43 196.802C109.628 196.857 109.796 196.943 109.935 197.06C110.079 197.174 110.189 197.317 110.267 197.49C110.411 197.811 110.462 198.123 110.419 198.425C110.376 198.727 110.247 199.004 110.032 199.256C109.814 199.504 109.516 199.713 109.137 199.883ZM113.613 197.872C113.224 198.046 112.842 198.12 112.467 198.093C112.094 198.058 111.756 197.936 111.454 197.726C111.157 197.514 110.924 197.22 110.756 196.846C110.623 196.549 110.549 196.256 110.535 195.968C110.521 195.681 110.558 195.41 110.646 195.157C110.737 194.898 110.878 194.667 111.07 194.465C111.264 194.257 111.501 194.09 111.779 193.965C112.024 193.855 112.273 193.801 112.527 193.802C112.779 193.798 113.019 193.843 113.245 193.937C113.477 194.029 113.684 194.17 113.867 194.358C114.053 194.54 114.202 194.764 114.316 195.03L114.451 195.35L111.364 196.737L110.934 196.222L113.546 195.048L113.493 195.219L113.415 195.046C113.329 194.894 113.213 194.776 113.066 194.693C112.919 194.609 112.759 194.562 112.588 194.553C112.417 194.543 112.249 194.575 112.086 194.649C111.827 194.765 111.632 194.913 111.499 195.094C111.365 195.27 111.295 195.474 111.29 195.707C111.283 195.935 111.342 196.188 111.467 196.466C111.586 196.73 111.745 196.935 111.943 197.082C112.14 197.225 112.363 197.303 112.611 197.318C112.86 197.333 113.117 197.281 113.381 197.163C113.568 197.079 113.726 196.97 113.857 196.837C113.992 196.701 114.116 196.509 114.23 196.262L114.84 196.619C114.777 196.786 114.68 196.951 114.551 197.112C114.427 197.272 114.283 197.42 114.12 197.557C113.959 197.687 113.79 197.792 113.613 197.872ZM116.012 196.707L113.619 191.383L114.36 191.05L116.753 196.374L116.012 196.707ZM119.492 195.229C119.103 195.404 118.721 195.478 118.346 195.45C117.973 195.416 117.636 195.294 117.334 195.084C117.036 194.871 116.804 194.578 116.636 194.204C116.502 193.907 116.428 193.614 116.414 193.326C116.4 193.038 116.437 192.768 116.525 192.515C116.616 192.255 116.757 192.025 116.949 191.823C117.144 191.615 117.38 191.448 117.658 191.323C117.903 191.213 118.152 191.158 118.407 191.159C118.659 191.156 118.898 191.201 119.125 191.295C119.356 191.387 119.564 191.527 119.746 191.716C119.932 191.898 120.082 192.122 120.195 192.388L120.33 192.708L117.244 194.095L116.813 193.579L119.425 192.405L119.372 192.576L119.294 192.404C119.209 192.252 119.092 192.134 118.945 192.05C118.798 191.966 118.639 191.92 118.467 191.91C118.296 191.901 118.129 191.933 117.966 192.006C117.707 192.123 117.511 192.271 117.379 192.452C117.244 192.627 117.175 192.832 117.17 193.064C117.163 193.292 117.222 193.546 117.347 193.824C117.465 194.088 117.624 194.293 117.823 194.44C118.019 194.582 118.242 194.661 118.491 194.676C118.74 194.691 118.996 194.639 119.26 194.521C119.447 194.437 119.606 194.328 119.736 194.194C119.871 194.059 119.995 193.867 120.109 193.62L120.719 193.977C120.656 194.144 120.56 194.308 120.431 194.47C120.306 194.63 120.163 194.778 119.999 194.915C119.838 195.045 119.669 195.149 119.492 195.229ZM123.513 193.422C123.163 193.579 122.81 193.634 122.454 193.586C122.103 193.537 121.78 193.4 121.483 193.176C121.191 192.949 120.962 192.652 120.796 192.282C120.63 191.913 120.559 191.544 120.584 191.175C120.613 190.805 120.726 190.472 120.922 190.176C121.122 189.878 121.398 189.651 121.748 189.493C122.084 189.343 122.42 189.275 122.755 189.291C123.094 189.301 123.388 189.391 123.638 189.561L123.454 190.249C123.328 190.173 123.184 190.117 123.023 190.079C122.862 190.042 122.703 190.027 122.545 190.035C122.387 190.042 122.245 190.074 122.121 190.13C121.89 190.234 121.71 190.384 121.579 190.581C121.452 190.771 121.379 190.988 121.362 191.232C121.345 191.476 121.391 191.721 121.501 191.965C121.611 192.21 121.765 192.406 121.964 192.553C122.161 192.695 122.376 192.783 122.61 192.816C122.844 192.849 123.071 192.816 123.292 192.717C123.421 192.659 123.536 192.581 123.637 192.484C123.742 192.385 123.833 192.266 123.909 192.128C123.986 191.99 124.046 191.836 124.091 191.666L124.727 191.986C124.671 192.27 124.53 192.547 124.305 192.816C124.084 193.082 123.82 193.284 123.513 193.422ZM126.159 192.147L124.028 187.405L124.769 187.072L126.9 191.814L126.159 192.147ZM124 189.441L123.677 188.722L126.08 187.642L126.403 188.361L124 189.441ZM130.584 190.158L128.321 185.121L130.465 184.158C130.753 184.028 131.049 183.982 131.353 184.018C131.66 184.047 131.941 184.152 132.195 184.332C132.446 184.507 132.64 184.745 132.776 185.048C132.899 185.321 132.941 185.607 132.903 185.907C132.865 186.207 132.758 186.483 132.583 186.734C132.405 186.981 132.17 187.17 131.878 187.302L130.511 187.916L131.361 189.809L130.584 190.158ZM133.577 188.813L131.275 187.115L131.993 186.576L134.523 188.396L133.577 188.813ZM130.174 187.168L131.613 186.521C131.753 186.459 131.862 186.369 131.942 186.252C132.02 186.131 132.064 185.996 132.072 185.848C132.078 185.695 132.048 185.545 131.981 185.396C131.906 185.228 131.799 185.1 131.662 185.012C131.527 184.917 131.371 184.866 131.195 184.859C131.023 184.849 130.849 184.884 130.672 184.964L129.434 185.52L130.174 187.168ZM137.018 187.353C136.63 187.527 136.248 187.601 135.872 187.574C135.5 187.539 135.162 187.417 134.86 187.207C134.563 186.995 134.33 186.701 134.162 186.327C134.028 186.03 133.955 185.737 133.941 185.449C133.927 185.162 133.964 184.891 134.052 184.638C134.142 184.379 134.284 184.148 134.476 183.946C134.67 183.738 134.907 183.571 135.185 183.446C135.43 183.336 135.679 183.282 135.933 183.283C136.185 183.279 136.424 183.324 136.651 183.418C136.883 183.51 137.09 183.651 137.273 183.839C137.458 184.021 137.608 184.245 137.722 184.511L137.857 184.831L134.77 186.218L134.34 185.703L136.951 184.529L136.898 184.7L136.821 184.527C136.735 184.375 136.619 184.257 136.472 184.174C136.325 184.09 136.165 184.043 135.994 184.034C135.822 184.024 135.655 184.056 135.492 184.13C135.233 184.246 135.037 184.394 134.905 184.575C134.771 184.751 134.701 184.955 134.696 185.188C134.689 185.416 134.748 185.669 134.873 185.947C134.992 186.211 135.15 186.416 135.349 186.563C135.546 186.706 135.768 186.784 136.017 186.799C136.266 186.814 136.523 186.762 136.786 186.644C136.973 186.56 137.132 186.451 137.262 186.318C137.397 186.182 137.522 185.99 137.636 185.743L138.246 186.1C138.182 186.267 138.086 186.432 137.957 186.593C137.833 186.753 137.689 186.901 137.526 187.038C137.365 187.168 137.196 187.273 137.018 187.353ZM140.695 185.7C140.378 185.843 140.068 185.916 139.764 185.92C139.46 185.924 139.176 185.855 138.911 185.715L139.221 185.057C139.44 185.16 139.651 185.212 139.853 185.214C140.058 185.208 140.269 185.157 140.484 185.06C140.571 185.021 140.646 184.976 140.709 184.924C140.775 184.866 140.825 184.803 140.858 184.736C140.896 184.667 140.917 184.597 140.92 184.527C140.92 184.452 140.905 184.378 140.872 184.306C140.816 184.181 140.725 184.101 140.6 184.065C140.537 184.053 140.444 184.052 140.321 184.061C140.201 184.063 140.049 184.079 139.867 184.109C139.556 184.162 139.292 184.183 139.074 184.172C138.855 184.16 138.672 184.119 138.524 184.047C138.411 183.988 138.315 183.913 138.234 183.823C138.15 183.728 138.08 183.615 138.021 183.486C137.95 183.327 137.919 183.168 137.928 183.009C137.94 182.842 137.984 182.684 138.061 182.534C138.14 182.377 138.25 182.236 138.389 182.11C138.533 181.982 138.699 181.875 138.886 181.791C139.063 181.712 139.249 181.657 139.443 181.627C139.642 181.595 139.837 181.592 140.026 181.616C140.216 181.64 140.389 181.692 140.546 181.772L140.332 182.43C140.2 182.38 140.063 182.346 139.923 182.328C139.785 182.304 139.652 182.297 139.525 182.309C139.397 182.32 139.288 182.346 139.197 182.387C139.096 182.432 139.009 182.483 138.936 182.538C138.863 182.594 138.807 182.654 138.766 182.719C138.731 182.781 138.712 182.847 138.709 182.917C138.706 182.988 138.721 183.059 138.753 183.131C138.786 183.191 138.827 183.245 138.877 183.292C138.929 183.331 138.988 183.36 139.053 183.377C139.123 183.391 139.221 183.396 139.346 183.392C139.471 183.388 139.623 183.368 139.804 183.333C140.072 183.288 140.3 183.269 140.487 183.277C140.678 183.278 140.841 183.306 140.975 183.361C141.112 183.409 141.226 183.484 141.319 183.587C141.411 183.689 141.49 183.815 141.557 183.964C141.654 184.179 141.679 184.402 141.632 184.63C141.588 184.852 141.484 185.057 141.321 185.246C141.157 185.435 140.949 185.586 140.695 185.7ZM144.54 183.972C144.171 184.138 143.802 184.203 143.434 184.166C143.069 184.123 142.737 183.993 142.437 183.776C142.136 183.554 141.9 183.253 141.729 182.874C141.559 182.495 141.492 182.122 141.529 181.754C141.563 181.381 141.686 181.046 141.898 180.749C142.113 180.445 142.406 180.21 142.775 180.044C143.139 179.88 143.504 179.819 143.87 179.863C144.238 179.899 144.573 180.028 144.874 180.25C145.174 180.467 145.408 180.766 145.579 181.144C145.749 181.523 145.817 181.899 145.783 182.272C145.746 182.64 145.621 182.976 145.406 183.28C145.193 183.578 144.905 183.808 144.54 183.972ZM144.236 183.296C144.462 183.194 144.639 183.049 144.766 182.859C144.892 182.664 144.962 182.448 144.977 182.211C144.989 181.969 144.938 181.726 144.823 181.484C144.716 181.232 144.569 181.033 144.382 180.887C144.193 180.735 143.985 180.644 143.758 180.614C143.531 180.583 143.304 180.619 143.079 180.72C142.853 180.821 142.675 180.97 142.545 181.167C142.417 181.358 142.347 181.574 142.334 181.815C142.32 182.053 142.37 182.292 142.485 182.535C142.59 182.782 142.737 182.981 142.926 183.132C143.113 183.279 143.321 183.37 143.55 183.405C143.782 183.433 144.011 183.397 144.236 183.296ZM148.557 182.167C148.288 182.288 148.025 182.331 147.768 182.297C147.515 182.26 147.283 182.154 147.071 181.978C146.864 181.8 146.691 181.556 146.551 181.244L145.503 178.913L146.244 178.58L147.201 180.709C147.3 180.93 147.42 181.107 147.561 181.24C147.704 181.366 147.859 181.443 148.028 181.471C148.201 181.497 148.381 181.468 148.568 181.384C148.707 181.321 148.825 181.242 148.92 181.147C149.014 181.048 149.083 180.939 149.128 180.821C149.178 180.7 149.201 180.572 149.197 180.435C149.193 180.298 149.161 180.163 149.101 180.029L148.079 177.755L148.82 177.422L150.518 181.199L149.776 181.532L149.421 180.741L149.511 180.596C149.534 180.8 149.508 181.005 149.433 181.211C149.363 181.415 149.255 181.603 149.106 181.773C148.956 181.939 148.773 182.07 148.557 182.167ZM151.521 180.748L149.823 176.971L150.572 176.635L151.105 177.822L150.904 177.566C150.875 177.36 150.889 177.155 150.947 176.95C151.01 176.743 151.103 176.56 151.227 176.4C151.357 176.239 151.51 176.118 151.687 176.038C151.769 176.002 151.849 175.974 151.927 175.956C152.01 175.936 152.078 175.926 152.13 175.926L152.298 176.819C152.229 176.821 152.156 176.831 152.078 176.849C152.002 176.86 151.93 176.88 151.863 176.91C151.734 176.969 151.621 177.051 151.525 177.158C151.431 177.257 151.359 177.373 151.309 177.505C151.261 177.631 151.238 177.765 151.239 177.909C151.238 178.047 151.269 178.186 151.332 178.325L152.269 180.412L151.521 180.748ZM155.862 178.884C155.512 179.041 155.159 179.096 154.803 179.048C154.452 178.999 154.128 178.862 153.832 178.638C153.54 178.411 153.311 178.114 153.145 177.744C152.979 177.375 152.908 177.006 152.933 176.637C152.962 176.267 153.075 175.934 153.27 175.638C153.471 175.34 153.746 175.113 154.097 174.955C154.432 174.804 154.768 174.737 155.104 174.753C155.443 174.763 155.737 174.852 155.986 175.023L155.803 175.711C155.676 175.635 155.533 175.578 155.372 175.541C155.211 175.504 155.051 175.489 154.893 175.497C154.735 175.504 154.594 175.536 154.469 175.592C154.239 175.696 154.059 175.846 153.928 176.043C153.8 176.233 153.728 176.45 153.711 176.694C153.693 176.938 153.74 177.183 153.85 177.427C153.96 177.672 154.114 177.868 154.313 178.015C154.509 178.157 154.725 178.245 154.959 178.278C155.193 178.311 155.42 178.278 155.641 178.179C155.77 178.121 155.885 178.043 155.986 177.946C156.091 177.847 156.182 177.728 156.258 177.59C156.334 177.452 156.395 177.298 156.44 177.128L157.076 177.448C157.019 177.732 156.879 178.009 156.653 178.277C156.433 178.544 156.169 178.746 155.862 178.884ZM159.835 177.098C159.446 177.273 159.064 177.347 158.689 177.319C158.316 177.285 157.979 177.163 157.677 176.953C157.379 176.74 157.147 176.447 156.978 176.073C156.845 175.776 156.771 175.483 156.757 175.195C156.743 174.908 156.78 174.637 156.868 174.384C156.959 174.124 157.1 173.894 157.292 173.692C157.487 173.484 157.723 173.317 158.001 173.192C158.246 173.082 158.495 173.028 158.75 173.029C159.002 173.025 159.241 173.07 159.468 173.164C159.699 173.256 159.907 173.396 160.089 173.585C160.275 173.767 160.425 173.991 160.538 174.257L160.673 174.577L157.587 175.964L157.156 175.448L159.768 174.275L159.715 174.445L159.637 174.273C159.552 174.121 159.435 174.003 159.288 173.919C159.141 173.836 158.982 173.789 158.81 173.78C158.639 173.77 158.472 173.802 158.309 173.875C158.05 173.992 157.854 174.14 157.722 174.321C157.587 174.496 157.518 174.701 157.513 174.934C157.506 175.162 157.565 175.415 157.69 175.693C157.808 175.957 157.967 176.162 158.166 176.309C158.362 176.451 158.585 176.53 158.834 176.545C159.083 176.56 159.339 176.508 159.603 176.39C159.79 176.306 159.949 176.197 160.079 176.063C160.214 175.928 160.338 175.736 160.452 175.489L161.062 175.846C160.999 176.013 160.903 176.177 160.774 176.339C160.649 176.499 160.505 176.647 160.342 176.784C160.181 176.914 160.012 177.019 159.835 177.098Z" fill="#6E7C87"/>
</g>
</g>
</g>
<path d="M28.1834 60.4465L324.622 -72.7785C338.727 -79.1176 355.301 -72.822 361.64 -58.717L469.859 182.083L147.881 326.786C133.776 333.125 117.203 326.829 110.864 312.724L14.1219 97.4637L13.8337 96.8009C7.9812 82.8434 14.2988 66.6865 28.1834 60.4465Z" stroke="#EDEDED" stroke-width="4"/>
<defs>
<clipPath id="clip0_49073_15533">
<path d="M12.2977 98.2835C5.50587 83.171 12.2511 65.4141 27.3636 58.6222L323.803 -74.6028C338.915 -81.3946 356.672 -74.6493 363.464 -59.5368L472.503 183.087L148.701 328.61C133.588 335.402 115.831 328.656 109.04 313.544L12.2977 98.2835Z" fill="white"/>
</clipPath>
<clipPath id="clip1_49073_15533">
<rect width="660.18" height="38.8341" fill="white" transform="translate(33.9629 83.0645) rotate(-24.2)"/>
</clipPath>
<clipPath id="clip2_49073_15533">
<rect x="54.8574" y="129.555" width="660.18" height="287.354" rx="3.03391" transform="rotate(-24.2 54.8574 129.555)" fill="white"/>
</clipPath>
<clipPath id="clip3_49073_15533">
<rect width="623.773" height="38.8341" fill="white" transform="translate(103.156 192.617) rotate(-24.2)"/>
</clipPath>
</defs>
</svg>
