<svg width="50" height="50" viewBox="0 0 50 50" fill="none" xmlns="http://www.w3.org/2000/svg">
<path d="M45.4516 4.54849C45.5725 4.6694 45.6685 4.81296 45.7339 4.97095C45.7994 5.12895 45.8331 5.2983 45.8331 5.46932C45.8331 5.64034 45.7994 5.80968 45.7339 5.96768C45.6685 6.12568 45.5725 6.26924 45.4516 6.39015L40.3339 11.5079C41.7844 13.3617 42.5063 15.6823 42.3635 18.0318C42.2208 20.3814 41.2232 22.5974 39.5589 24.262L36.0766 27.7443C35.9557 27.8653 35.8121 27.9612 35.6541 28.0267C35.4961 28.0921 35.3268 28.1258 35.1558 28.1258C34.9847 28.1258 34.8154 28.0921 34.6574 28.0267C34.4994 27.9612 34.3559 27.8653 34.2349 27.7443L22.2558 15.7652C22.1348 15.6442 22.0389 15.5007 21.9734 15.3427C21.908 15.1847 21.8743 15.0153 21.8743 14.8443C21.8743 14.6733 21.908 14.504 21.9734 14.346C22.0389 14.188 22.1348 14.0444 22.2558 13.9235L25.7381 10.4412C27.4024 8.77646 29.6187 7.77862 31.9684 7.63603C34.3181 7.49345 36.6388 8.21598 38.4922 9.66723L43.6099 4.54849C43.7309 4.42754 43.8744 4.3316 44.0324 4.26614C44.1904 4.20068 44.3597 4.16699 44.5308 4.16699C44.7018 4.16699 44.8711 4.20068 45.0291 4.26614C45.1871 4.3316 45.3307 4.42754 45.4516 4.54849ZM37.5235 12.2829C36.8706 11.6299 36.0954 11.112 35.2424 10.7587C34.3893 10.4053 33.475 10.2234 32.5516 10.2234C31.6282 10.2234 30.7139 10.4053 29.8608 10.7587C29.0078 11.112 28.2326 11.6299 27.5797 12.2829L25.0172 14.8443L35.1558 24.9818L37.7183 22.4204C38.3712 21.7674 38.8891 20.9923 39.2425 20.1392C39.5958 19.2862 39.7777 18.3718 39.7777 17.4485C39.7777 16.5251 39.5958 15.6108 39.2425 14.7577C38.8891 13.9046 38.3712 13.1295 37.7183 12.4766L37.5235 12.2829ZM9.66619 38.4933L4.54744 43.611C4.30322 43.8552 4.16602 44.1864 4.16602 44.5318C4.16602 44.8772 4.30322 45.2084 4.54744 45.4526C4.79166 45.6969 5.12289 45.8341 5.46827 45.8341C5.81365 45.8341 6.14488 45.6969 6.3891 45.4526L11.5068 40.3349C13.3607 41.7854 15.6812 42.5074 18.0308 42.3646C20.3803 42.2218 22.5964 41.2242 24.261 39.5599L27.7433 36.0776C27.8642 35.9567 27.9602 35.8132 28.0256 35.6552C28.0911 35.4972 28.1248 35.3278 28.1248 35.1568C28.1248 34.9858 28.0911 34.8164 28.0256 34.6585C27.9602 34.5005 27.8642 34.3569 27.7433 34.236L26.3204 32.8131L29.8266 29.3068C30.0708 29.0626 30.208 28.7314 30.208 28.386C30.208 28.0406 30.0708 27.7094 29.8266 27.4651C29.5824 27.2209 29.2511 27.0837 28.9058 27.0837C28.5604 27.0837 28.2292 27.2209 27.9849 27.4651L24.4787 30.9714L19.0287 25.5214L22.5349 22.0152C22.7792 21.7709 22.9164 21.4397 22.9164 21.0943C22.9164 20.7489 22.7792 20.4177 22.5349 20.1735C22.2907 19.9293 21.9595 19.7921 21.6141 19.7921C21.2687 19.7921 20.9375 19.9293 20.6933 20.1735L17.187 23.6797L15.7641 22.2568C15.6432 22.1359 15.4996 22.0399 15.3416 21.9745C15.1836 21.909 15.0143 21.8753 14.8433 21.8753C14.6722 21.8753 14.5029 21.909 14.3449 21.9745C14.1869 22.0399 14.0434 22.1359 13.9224 22.2568L10.4401 25.7391C8.77541 27.4035 7.77757 29.6197 7.63499 31.9694C7.4924 34.3192 8.21493 36.6398 9.66619 38.4933ZM12.2808 27.5808L14.8433 25.0183L24.9808 35.1568L22.4193 37.7193C21.7664 38.3722 20.9913 38.8902 20.1382 39.2435C19.2851 39.5969 18.3708 39.7788 17.4474 39.7788C16.5241 39.7788 15.6098 39.5969 14.7567 39.2435C13.9036 38.8902 13.1285 38.3722 12.4756 37.7193L12.2818 37.5245C11.6289 36.8716 11.111 36.0965 10.7576 35.2434C10.4042 34.3903 10.2224 33.476 10.2224 32.5527C10.2224 31.6293 10.4042 30.715 10.7576 29.8619C11.111 29.0088 11.6289 28.2337 12.2818 27.5808" fill="#FF6B6B"/>
</svg>
