<svg width="50" height="50" viewBox="0 0 50 50" fill="none" xmlns="http://www.w3.org/2000/svg">
<path d="M43.75 29.575C43.7644 29.8513 43.7206 30.1275 43.6214 30.3858C43.5222 30.644 43.3698 30.8786 43.1742 31.0742C42.9786 31.2698 42.744 31.4222 42.4858 31.5214C42.2275 31.6206 41.9513 31.6644 41.675 31.65H33.325C32.7635 31.7187 32.1938 31.6587 31.659 31.4744C31.1242 31.2902 30.6384 30.9865 30.2384 30.5866C29.8385 30.1866 29.5348 29.7008 29.3506 29.166C29.1663 28.6312 29.1063 28.0615 29.175 27.5V23.325C29.1606 23.0487 29.2044 22.7725 29.3036 22.5142C29.4028 22.256 29.5552 22.0214 29.7508 21.8258C29.9464 21.6302 30.181 21.4778 30.4392 21.3786C30.6975 21.2794 30.9737 21.2356 31.25 21.25H41.675C41.9513 21.2356 42.2275 21.2794 42.4858 21.3786C42.744 21.4778 42.9786 21.6302 43.1742 21.8258C43.3698 22.0214 43.5222 22.256 43.6214 22.5142C43.7206 22.7725 43.7644 23.0487 43.75 23.325V29.575ZM20.825 27.5C20.8987 28.0657 20.8415 28.6408 20.6577 29.181C20.474 29.7211 20.1686 30.2118 19.7652 30.6152C19.3618 31.0186 18.8711 31.324 18.331 31.5077C17.7908 31.6915 17.2157 31.7487 16.65 31.675H8.325C8.04872 31.6894 7.77249 31.6456 7.51423 31.5464C7.25596 31.4472 7.02142 31.2948 6.82579 31.0992C6.63017 30.9036 6.47782 30.669 6.37863 30.4108C6.27944 30.1525 6.23562 29.8763 6.25 29.6V23.325C6.23562 23.0487 6.27944 22.7725 6.37863 22.5142C6.47782 22.256 6.63017 22.0214 6.82579 21.8258C7.02142 21.6302 7.25596 21.4778 7.51423 21.3786C7.77249 21.2794 8.04872 21.2356 8.325 21.25H18.75C19.0263 21.2356 19.3025 21.2794 19.5608 21.3786C19.819 21.4778 20.0536 21.6302 20.2492 21.8258C20.4448 22.0214 20.5972 22.256 20.6964 22.5142C20.7956 22.7725 20.8394 23.0487 20.825 23.325V27.5ZM0 15.5V31.2C0 31.3326 0.0526784 31.4598 0.146447 31.5536C0.240215 31.6473 0.367392 31.7 0.5 31.7H4.8C5.15056 32.333 5.6653 32.8599 6.29003 33.225C6.91477 33.5902 7.62639 33.7802 8.35 33.775H16.675C17.9671 33.874 19.2574 33.5622 20.3619 32.8843C21.4663 32.2064 22.3283 31.1969 22.825 30C22.8565 29.9055 22.9168 29.8232 22.9976 29.7649C23.0783 29.7066 23.1754 29.6751 23.275 29.675H26.75C26.8496 29.6751 26.9467 29.7066 27.0274 29.7649C27.1082 29.8232 27.1685 29.9055 27.2 30C27.6885 31.2063 28.5471 32.2265 29.6522 32.9138C30.7574 33.6011 32.0521 33.9202 33.35 33.825H41.675C43.05 33.825 44.425 33.825 45.1 32.075C45.1345 31.9824 45.1957 31.9022 45.2758 31.8443C45.3559 31.7865 45.4513 31.7537 45.55 31.75H49.5C49.6326 31.75 49.7598 31.6973 49.8536 31.6036C49.9473 31.5098 50 31.3826 50 31.25V15.5C50 15.3674 49.9473 15.2402 49.8536 15.1464C49.7598 15.0527 49.6326 15 49.5 15H0.5C0.367392 15 0.240215 15.0527 0.146447 15.1464C0.0526784 15.2402 0 15.3674 0 15.5Z" fill="#1E90FF"/>
</svg>
