<svg width="50" height="50" viewBox="0 0 50 50" fill="none" xmlns="http://www.w3.org/2000/svg">
<path d="M15.625 20.3125H34.375V23.4375H15.625V20.3125ZM15.625 31.25H28.125V28.125H15.625V31.25ZM15.625 39.0625H23.4375V35.9375H15.625V39.0625ZM10.9375 10.9375H15.625V15.625H34.375V10.9375H39.0625V20.3125H42.1875V10.9375C42.1875 10.1087 41.8583 9.31384 41.2722 8.72779C40.6862 8.14174 39.8913 7.8125 39.0625 7.8125H34.375V6.25C34.375 5.4212 34.0458 4.62634 33.4597 4.04029C32.8737 3.45424 32.0788 3.125 31.25 3.125H18.75C17.9212 3.125 17.1263 3.45424 16.5403 4.04029C15.9542 4.62634 15.625 5.4212 15.625 6.25V7.8125H10.9375C10.1087 7.8125 9.31384 8.14174 8.72779 8.72779C8.14174 9.31384 7.8125 10.1087 7.8125 10.9375V43.75C7.8125 44.5788 8.14174 45.3737 8.72779 45.9597C9.31384 46.5458 10.1087 46.875 10.9375 46.875H18.75V43.75H10.9375V10.9375ZM18.75 6.25H31.25V12.5H18.75V6.25ZM46.7344 45.2125L36.9203 27.1406C36.8234 26.9651 36.6811 26.8187 36.5084 26.7168C36.3357 26.6149 36.1388 26.5612 35.9383 26.5612C35.7377 26.5612 35.5409 26.6149 35.3682 26.7168C35.1954 26.8187 35.0532 26.9651 34.9563 27.1406L25.1391 45.2109C25.0457 45.382 24.9983 45.5745 25.0017 45.7694C25.005 45.9643 25.059 46.155 25.1582 46.3228C25.2575 46.4906 25.3986 46.6297 25.5678 46.7265C25.737 46.8233 25.9285 46.8745 26.1234 46.875H45.7484C45.9434 46.8749 46.135 46.8241 46.3045 46.7275C46.4739 46.631 46.6153 46.4922 46.7149 46.3245C46.8145 46.1569 46.8688 45.9662 46.8724 45.7713C46.8761 45.5763 46.8275 45.3838 46.7344 45.2125ZM34.7656 32.8125H37.1094V39.0625H34.7656V32.8125ZM35.9375 43.75C35.7283 43.7566 35.5198 43.7211 35.3246 43.6456C35.1293 43.5701 34.9512 43.4561 34.8008 43.3105C34.6505 43.1648 34.5309 42.9904 34.4493 42.7976C34.3677 42.6048 34.3256 42.3976 34.3256 42.1883C34.3256 41.9789 34.3677 41.7717 34.4493 41.5789C34.5309 41.3862 34.6505 41.2118 34.8008 41.0661C34.9512 40.9204 35.1293 40.8064 35.3246 40.7309C35.5198 40.6554 35.7283 40.6199 35.9375 40.6266C36.3431 40.6394 36.7279 40.8096 37.0103 41.101C37.2927 41.3925 37.4506 41.7824 37.4506 42.1883C37.4506 42.5941 37.2927 42.9841 37.0103 43.2755C36.7279 43.567 36.3431 43.7372 35.9375 43.75Z" fill="white"/>
</svg>
