<svg width="50" height="50" viewBox="0 0 50 50" fill="none" xmlns="http://www.w3.org/2000/svg">
<path d="M13.5305 29.4772C13.862 29.4772 14.1799 29.6089 14.4144 29.8433C14.6488 30.0777 14.7805 30.3956 14.7805 30.7272V45.3147C14.7805 45.6462 14.6488 45.9641 14.4144 46.1985C14.1799 46.433 13.862 46.5647 13.5305 46.5647H4.78359C4.61892 46.5655 4.4557 46.5338 4.30332 46.4713C4.15094 46.4089 4.0124 46.3169 3.89567 46.2008C3.77893 46.0846 3.6863 45.9465 3.62309 45.7945C3.55988 45.6424 3.52734 45.4793 3.52734 45.3147V30.7272C3.52734 30.0397 4.08984 29.4772 4.78359 29.4772H13.5305ZM6.04297 44.0615H12.2742V31.974H6.04297V44.0615ZM29.4648 3.43653C29.6293 3.43612 29.7921 3.46815 29.9442 3.53078C30.0962 3.59341 30.2343 3.68542 30.3507 3.80154C30.4672 3.91765 30.5595 4.05559 30.6225 4.20745C30.6855 4.35931 30.718 4.52211 30.718 4.68653V45.3115C30.718 45.999 30.1555 46.5615 29.468 46.5615H20.7211C20.5564 46.5624 20.3932 46.5306 20.2408 46.4682C20.0884 46.4057 19.9499 46.3138 19.8332 46.1976C19.7164 46.0815 19.6238 45.9434 19.5606 45.7913C19.4974 45.6393 19.4648 45.4762 19.4648 45.3115V4.68653C19.4648 3.99903 20.0273 3.43653 20.7211 3.43653H29.4648ZM21.9805 44.0615H28.2086V5.93653H21.9805V44.0615ZM45.4023 14.5709C45.7339 14.5709 46.0518 14.7026 46.2862 14.937C46.5206 15.1714 46.6523 15.4894 46.6523 15.8209V45.3115C46.6523 45.643 46.5206 45.961 46.2862 46.1954C46.0518 46.4298 45.7339 46.5615 45.4023 46.5615H36.6586C36.4939 46.5624 36.3307 46.5306 36.1783 46.4682C36.0259 46.4057 35.8874 46.3138 35.7707 46.1976C35.6539 46.0815 35.5613 45.9434 35.4981 45.7913C35.4349 45.6393 35.4023 45.4762 35.4023 45.3115V15.8209C35.4023 15.1334 35.9648 14.5709 36.6586 14.5709H45.4023ZM37.9148 44.0647H44.1461V17.074H37.9148V44.0647Z" fill="#FFD700"/>
</svg>
