<svg width="50" height="50" viewBox="0 0 50 50" fill="none" xmlns="http://www.w3.org/2000/svg">
<path d="M9.375 37.5C9.99307 37.5 10.5973 37.6833 11.1112 38.0267C11.6251 38.37 12.0256 38.8581 12.2621 39.4291C12.4987 40.0001 12.5605 40.6285 12.44 41.2347C12.3194 41.8408 12.0218 42.3977 11.5847 42.8347C11.1477 43.2717 10.5909 43.5694 9.98466 43.69C9.37847 43.8105 8.75014 43.7486 8.17912 43.5121C7.6081 43.2756 7.12004 42.8751 6.77666 42.3612C6.43328 41.8473 6.25 41.2431 6.25 40.625C6.25 39.7962 6.57924 39.0013 7.16529 38.4153C7.75135 37.8292 8.5462 37.5 9.375 37.5ZM9.375 34.375C8.13887 34.375 6.9305 34.7416 5.90269 35.4283C4.87488 36.1151 4.0738 37.0912 3.60076 38.2332C3.12771 39.3753 3.00394 40.6319 3.24509 41.8443C3.48625 43.0567 4.08151 44.1703 4.95559 45.0444C5.82966 45.9185 6.94331 46.5138 8.15569 46.7549C9.36807 46.9961 10.6247 46.8723 11.7668 46.3992C12.9088 45.9262 13.8849 45.1251 14.5717 44.0973C15.2584 43.0695 15.625 41.8611 15.625 40.625C15.625 38.9674 14.9665 37.3777 13.7944 36.2056C12.6223 35.0335 11.0326 34.375 9.375 34.375ZM25 6.25C25.6181 6.25 26.2223 6.43328 26.7362 6.77666C27.2501 7.12004 27.6506 7.60809 27.8871 8.17911C28.1237 8.75013 28.1855 9.37847 28.065 9.98466C27.9444 10.5908 27.6467 11.1477 27.2097 11.5847C26.7727 12.0217 26.2159 12.3194 25.6097 12.44C25.0035 12.5605 24.3751 12.4986 23.8041 12.2621C23.2331 12.0256 22.745 11.6251 22.4017 11.1112C22.0583 10.5973 21.875 9.99307 21.875 9.375C21.875 8.5462 22.2042 7.75134 22.7903 7.16529C23.3763 6.57924 24.1712 6.25 25 6.25ZM25 3.125C23.7639 3.125 22.5555 3.49156 21.5277 4.17832C20.4999 4.86507 19.6988 5.84119 19.2258 6.98323C18.7527 8.12527 18.6289 9.38193 18.8701 10.5943C19.1113 11.8067 19.7065 12.9203 20.5806 13.7944C21.4547 14.6685 22.5683 15.2638 23.7807 15.5049C24.9931 15.7461 26.2497 15.6223 27.3918 15.1492C28.5338 14.6762 29.5099 13.8751 30.1967 12.8473C30.8834 11.8195 31.25 10.6111 31.25 9.375C31.25 7.7174 30.5915 6.12769 29.4194 4.95558C28.2473 3.78348 26.6576 3.125 25 3.125ZM40.625 6.25C41.2431 6.25 41.8473 6.43328 42.3612 6.77666C42.8751 7.12004 43.2756 7.60809 43.5121 8.17911C43.7486 8.75013 43.8105 9.37847 43.69 9.98466C43.5694 10.5908 43.2718 11.1477 42.8347 11.5847C42.3977 12.0217 41.8409 12.3194 41.2347 12.44C40.6285 12.5605 40.0001 12.4986 39.4291 12.2621C38.8581 12.0256 38.37 11.6251 38.0267 11.1112C37.6833 10.5973 37.5 9.99307 37.5 9.375C37.5 8.5462 37.8292 7.75134 38.4153 7.16529C39.0013 6.57924 39.7962 6.25 40.625 6.25ZM40.625 3.125C39.3889 3.125 38.1805 3.49156 37.1527 4.17832C36.1249 4.86507 35.3238 5.84119 34.8508 6.98323C34.3777 8.12527 34.2539 9.38193 34.4951 10.5943C34.7363 11.8067 35.3315 12.9203 36.2056 13.7944C37.0797 14.6685 38.1933 15.2638 39.4057 15.5049C40.6181 15.7461 41.8747 15.6223 43.0168 15.1492C44.1588 14.6762 45.1349 13.8751 45.8217 12.8473C46.5084 11.8195 46.875 10.6111 46.875 9.375C46.875 7.7174 46.2165 6.12769 45.0444 4.95558C43.8723 3.78348 42.2826 3.125 40.625 3.125ZM28.125 37.5V43.75H21.875V37.5H28.125ZM31.25 34.375H18.75V46.875H31.25V34.375Z" fill="#FFA500"/>
<path d="M42.1875 34.5938V26.5625C42.1875 25.7337 41.8583 24.9388 41.2722 24.3528C40.6862 23.7667 39.8913 23.4375 39.0625 23.4375H10.9375V15.625H15.625V3.125H3.125V15.625H7.8125V23.4375C7.8125 24.2663 8.14174 25.0612 8.72779 25.6472C9.31384 26.2333 10.1087 26.5625 10.9375 26.5625H39.0625V34.5938C37.5896 34.9741 36.306 35.8785 35.4522 37.1375C34.5984 38.3965 34.2331 39.9237 34.4248 41.4328C34.6165 42.9419 35.352 44.3293 36.4934 45.3349C37.6348 46.3405 39.1038 46.8953 40.625 46.8953C42.1462 46.8953 43.6152 46.3405 44.7566 45.3349C45.898 44.3293 46.6335 42.9419 46.8252 41.4328C47.0169 39.9237 46.6516 38.3965 45.7978 37.1375C44.944 35.8785 43.6604 34.9741 42.1875 34.5938ZM6.25 6.25H12.5V12.5H6.25V6.25ZM40.625 43.75C40.0069 43.75 39.4027 43.5667 38.8888 43.2233C38.3749 42.88 37.9744 42.3919 37.7379 41.8209C37.5014 41.2499 37.4395 40.6215 37.56 40.0153C37.6806 39.4092 37.9783 38.8523 38.4153 38.4153C38.8523 37.9783 39.4092 37.6806 40.0153 37.56C40.6215 37.4395 41.2499 37.5014 41.8209 37.7379C42.3919 37.9744 42.88 38.3749 43.2233 38.8888C43.5667 39.4027 43.75 40.0069 43.75 40.625C43.75 41.4538 43.4208 42.2487 42.8347 42.8347C42.2487 43.4208 41.4538 43.75 40.625 43.75Z" fill="#FFA500"/>
</svg>
