<svg width="74" height="63" viewBox="0 0 74 63" fill="none" xmlns="http://www.w3.org/2000/svg">
<path d="M14.9297 36.4964V18.1013C14.9293 17.4972 15.048 16.8989 15.2791 16.3408C15.5102 15.7826 15.8491 15.2755 16.2764 14.8485C16.7037 14.4215 17.211 14.0829 17.7693 13.8522C18.3276 13.6215 18.9259 13.5032 19.53 13.504H24.1273M14.9297 27.2988H21.8271M31.4779 36.4964V18.1013C31.462 17.4873 31.5692 16.8764 31.7932 16.3046C32.0172 15.7327 32.3534 15.2115 32.782 14.7716C33.2106 14.3318 33.7229 13.9822 34.2888 13.7435C34.8547 13.5048 35.4626 13.3818 36.0767 13.3818C36.6909 13.3818 37.2988 13.5048 37.8647 13.7435C38.4305 13.9822 38.9429 14.3318 39.3715 14.7716C39.8001 15.2115 40.1363 15.7327 40.3603 16.3046C40.5842 16.8764 40.6914 17.4873 40.6755 18.1013V36.4964M31.4779 27.2988H40.6755M54.4704 36.4964L59.0707 41.0937M59.0707 31.8961C59.0866 32.51 58.9794 33.1209 58.7554 33.6928C58.5315 34.2647 58.1953 34.7859 57.7667 35.2257C57.338 35.6656 56.8257 36.0152 56.2598 36.2538C55.694 36.4925 55.086 36.6155 54.4719 36.6155C53.8578 36.6155 53.2498 36.4925 52.684 36.2538C52.1181 36.0152 51.6057 35.6656 51.1771 35.2257C50.7485 34.7859 50.4123 34.2647 50.1884 33.6928C49.9644 33.1209 49.8572 32.51 49.8731 31.8961V18.1013C49.8572 17.4873 49.9644 16.8764 50.1884 16.3046C50.4123 15.7327 50.7485 15.2115 51.1771 14.7716C51.6057 14.3318 52.1181 13.9822 52.684 13.7435C53.2498 13.5048 53.8578 13.3818 54.4719 13.3818C55.086 13.3818 55.694 13.5048 56.2598 13.7435C56.8257 13.9822 57.338 14.3318 57.7667 14.7716C58.1953 15.2115 58.5315 15.7327 58.7554 16.3046C58.9794 16.8764 59.0866 17.4873 59.0707 18.1013V31.8961Z" stroke="#008080" stroke-width="4.625" stroke-linecap="round" stroke-linejoin="round"/>
<path d="M68.45 2.3125H5.55C4.69023 2.31576 3.86679 2.65959 3.25999 3.2687C2.65319 3.87781 2.31249 4.70256 2.3125 5.56233V47.4587C2.31249 48.3184 2.65319 49.1432 3.25999 49.7523C3.86679 50.3614 4.69023 50.7052 5.55 50.7085H13.0826C12.4033 54.2346 10.9431 57.5638 8.80908 60.4518C18.2132 60.5875 24.1641 56.9492 27.7346 50.7085H68.45C69.3119 50.7085 70.1385 50.3661 70.748 49.7566C71.3574 49.1472 71.6998 48.3206 71.6998 47.4587V5.56233C71.6998 4.70042 71.3574 3.87382 70.748 3.26435C70.1385 2.65489 69.3119 2.3125 68.45 2.3125Z" stroke="#008080" stroke-width="4.625" stroke-linecap="round" stroke-linejoin="round"/>
</svg>
