<svg width="50" height="45" viewBox="0 0 50 45" fill="none" xmlns="http://www.w3.org/2000/svg">
<path d="M1.5625 42.9375H48.4375M8.70833 13.75L42.1875 -1.45833M42.1875 -1.45833L39.7083 5.1875M42.1875 -1.45833L35.5625 -3.9375M12.5 28.3542H6.25C5.83728 28.3596 5.44298 28.5259 5.15111 28.8178C4.85925 29.1096 4.6929 29.5039 4.6875 29.9167V42.9375H14.0625V29.9167C14.0571 29.5039 13.8908 29.1096 13.5989 28.8178C13.307 28.5259 12.9127 28.3596 12.5 28.3542ZM28.125 20.0208H21.875C21.4623 20.0262 21.068 20.1926 20.7761 20.4844C20.4842 20.7763 20.3179 21.1706 20.3125 21.5833V42.9375H29.6875V21.5833C29.6821 21.1706 29.5158 20.7763 29.2239 20.4844C28.932 20.1926 28.5377 20.0262 28.125 20.0208ZM43.75 11.6875H37.5C37.0873 11.6929 36.693 11.8592 36.4011 12.1511C36.1092 12.443 35.9429 12.8373 35.9375 13.25V42.9375H45.3125V13.25C45.3071 12.8373 45.1407 12.443 44.8489 12.1511C44.557 11.8592 44.1627 11.6929 43.75 11.6875Z" stroke="#FFA500" stroke-width="3.125" stroke-linecap="round" stroke-linejoin="round"/>
</svg>
