<svg width="40" height="40" viewBox="0 0 40 40" fill="none" xmlns="http://www.w3.org/2000/svg">
<g clip-path="url(#clip0_44012_39251)">
<path d="M3.85358e-06 16.2485C-0.0025276 12.5713 1.24221 9.00195 3.53081 6.12373C5.81941 3.24551 9.01655 1.22861 12.5998 0.402599C16.183 -0.423408 19.9405 -0.0096741 23.2581 1.57619C26.5758 3.16206 29.2575 5.82628 30.865 9.13351C33.1919 10.2679 35.2141 11.9417 36.7632 14.0156C38.3124 16.0896 39.3437 18.5036 39.7712 21.0567C40.1986 23.6098 40.01 26.2281 39.2209 28.6936C38.4319 31.159 37.0652 33.4003 35.2348 35.2308C33.4043 37.0612 31.163 38.4279 28.6976 39.2169C26.2321 40.006 23.6138 40.1947 21.0607 39.7672C18.5076 39.3397 16.0936 38.3084 14.0196 36.7593C11.9457 35.2101 10.2718 33.1879 9.1375 30.861C6.39748 29.5272 4.08775 27.4497 2.47202 24.8659C0.856288 22.282 -0.000319008 19.2959 3.85358e-06 16.2485ZM12.86 32.1435C14.0535 33.6913 15.5632 34.9669 17.2886 35.8852C19.0139 36.8035 20.9153 37.3434 22.8657 37.469C24.8162 37.5945 26.771 37.3028 28.5999 36.6132C30.4287 35.9237 32.0895 34.8521 33.4716 33.4701C34.8536 32.088 35.9252 30.4272 36.6147 28.5984C37.3043 26.7696 37.596 24.8147 37.4705 22.8642C37.3449 20.9138 36.805 19.0124 35.8867 17.2871C34.9684 15.5617 33.6928 14.052 32.145 12.8585C32.7111 15.5096 32.6049 18.2602 31.8362 20.8598C31.0674 23.4594 29.6606 25.8253 27.7437 27.7422C25.8268 29.6591 23.4609 31.0659 20.8613 31.8347C18.2617 32.6034 15.5111 32.7096 12.86 32.1435ZM11.0275 28.971C11.9375 29.3477 12.8908 29.6227 13.8875 29.796L10.2025 26.111C10.3758 27.106 10.6508 28.0593 11.0275 28.971ZM17.5625 29.936C18.5591 29.8417 19.5424 29.6388 20.495 29.331L10.935 19.7735C10.5989 20.6792 10.3511 21.6152 10.195 22.5685L17.5625 29.936ZM22.955 28.256C23.6983 27.8393 24.3967 27.3593 25.05 26.816L13.545 15.3135C12.9985 15.9592 12.5076 16.65 12.0775 17.3785L22.955 28.256ZM26.8175 25.046C27.3592 24.396 27.8392 23.6985 28.2575 22.9535L17.3825 12.0735C16.6532 12.5034 15.9615 12.9944 15.315 13.541L26.815 25.046H26.8175ZM29.3325 20.491C29.6375 19.5543 29.8392 18.5777 29.9375 17.561L22.57 10.1935C21.6033 10.3535 20.6717 10.6002 19.775 10.9335L29.3325 20.4935V20.491ZM29.7975 13.886C29.6268 12.9056 29.3502 11.9467 28.9725 11.026C28.0518 10.6483 27.0929 10.3717 26.1125 10.201L29.7975 13.886Z" fill="#FF6B6B"/>
</g>
<defs>
<clipPath id="clip0_44012_39251">
<rect width="40" height="40" fill="white"/>
</clipPath>
</defs>
</svg>
