<svg width="150" height="155" viewBox="0 0 150 155" fill="none" xmlns="http://www.w3.org/2000/svg">
<path d="M133.043 76.6103C130.812 63.5481 124.757 51.4411 115.645 41.82C106.533 32.199 94.7719 25.4961 81.8502 22.559C68.9284 19.6219 55.4259 20.5826 43.0501 25.3194C30.6743 30.0563 19.981 38.3566 12.3226 49.1708L36.7165 66.4462C40.9582 60.4567 46.8807 55.8595 53.7352 53.236C60.5896 50.6124 68.0681 50.0804 75.2249 51.7071C82.3817 53.3338 88.8954 57.0463 93.9423 62.375C98.9892 67.7036 102.343 74.4092 103.579 81.6438L133.043 76.6103Z" fill="#10B981"/>
<path d="M45.5362 151.361C56.3232 155.009 67.8621 155.848 79.0632 153.798C90.2644 151.747 100.758 146.876 109.554 139.644C118.349 132.411 125.156 123.057 129.332 112.463C133.508 101.869 134.915 90.3854 133.42 79.0967L103.79 83.0206C104.618 89.2733 103.839 95.634 101.526 101.502C99.2128 107.37 95.4423 112.552 90.5705 116.558C85.6986 120.564 79.8861 123.262 73.6818 124.397C67.4775 125.533 61.0861 125.069 55.1112 123.048L45.5362 151.361Z" fill="#F59E0B"/>
<path d="M7.98727 119.618C15.5675 133.718 27.9459 144.638 42.8812 150.401L53.6406 122.516C45.3679 119.324 38.5116 113.275 34.3128 105.465L7.98727 119.618Z" fill="#6B7280"/>
<path d="M10.5703 51.7721C4.42875 61.3668 0.83506 72.3691 0.128859 83.7392C-0.577341 95.1093 1.62727 106.472 6.53437 116.753L33.5081 103.878C30.79 98.1836 29.5689 91.8899 29.9601 85.592C30.3512 79.2941 32.3418 73.2 35.7436 67.8854L10.5703 51.7721Z" fill="#EF4444"/>
<path d="M54.2865 90.5693V85.5263H55.0645V90.5693H54.2865ZM54.6323 88.4225V87.6732H57.233V88.4225H54.6323ZM54.6323 86.2756V85.5263H57.5572V86.2756H54.6323ZM59.8306 90.5693V88.055L59.8811 88.408L57.8422 85.5263H58.7788L60.3349 87.7597L60.1548 87.738L61.5597 85.5263H62.453L60.5006 88.4873L60.6087 87.9974V90.5693H59.8306ZM64.9272 90.5693L64.6894 89.9786L66.2311 88.2423C66.3128 88.1559 66.3968 88.0574 66.4833 87.947C66.5745 87.8317 66.661 87.714 66.7426 87.594C66.8243 87.4739 66.8891 87.3562 66.9372 87.2409C66.99 87.1209 67.0164 87.008 67.0164 86.9023C67.0164 86.7487 66.9852 86.619 66.9228 86.5133C66.8651 86.4028 66.7787 86.3188 66.6634 86.2612C66.5529 86.2035 66.4185 86.1747 66.26 86.1747C66.1207 86.1747 65.9838 86.2155 65.8493 86.2972C65.7148 86.3788 65.5924 86.4941 65.4819 86.643C65.3714 86.7919 65.285 86.9648 65.2225 87.1617L64.6246 86.7871C64.7062 86.5085 64.8287 86.2708 64.992 86.0739C65.1601 85.8721 65.3594 85.7184 65.59 85.6128C65.8253 85.5071 66.0799 85.4543 66.3536 85.4543C66.637 85.4543 66.8891 85.5143 67.1101 85.6344C67.331 85.7497 67.5039 85.913 67.6288 86.1243C67.7537 86.3308 67.8161 86.5709 67.8161 86.8447C67.8161 86.9552 67.8041 87.068 67.7801 87.1833C67.7561 87.2986 67.7176 87.4187 67.6648 87.5435C67.612 87.6636 67.5447 87.7909 67.4631 87.9254C67.3814 88.055 67.283 88.1919 67.1677 88.336C67.0572 88.4801 66.93 88.6314 66.7859 88.7899L65.6404 90.0362L65.4963 89.8201H67.9746V90.5693H64.9272ZM70.2429 90.6414C69.8586 90.6414 69.5272 90.5357 69.2487 90.3244C68.9749 90.1131 68.7636 89.8153 68.6147 89.4311C68.4658 89.042 68.3914 88.5809 68.3914 88.0478C68.3914 87.5147 68.4658 87.056 68.6147 86.6718C68.7636 86.2828 68.9749 85.9826 69.2487 85.7713C69.5272 85.5599 69.8586 85.4543 70.2429 85.4543C70.6271 85.4543 70.9585 85.5599 71.2371 85.7713C71.5156 85.9826 71.7294 86.2828 71.8782 86.6718C72.0271 87.056 72.1016 87.5147 72.1016 88.0478C72.1016 88.5809 72.0271 89.042 71.8782 89.4311C71.7294 89.8153 71.5156 90.1131 71.2371 90.3244C70.9585 90.5357 70.6271 90.6414 70.2429 90.6414ZM70.2429 89.9354C70.5935 89.9354 70.8648 89.7721 71.057 89.4455C71.2491 89.1141 71.3451 88.6482 71.3451 88.0478C71.3451 87.4475 71.2491 86.984 71.057 86.6574C70.8648 86.326 70.5935 86.1603 70.2429 86.1603C69.8923 86.1603 69.6209 86.326 69.4288 86.6574C69.2367 86.984 69.1406 87.4475 69.1406 88.0478C69.1406 88.6482 69.2367 89.1141 69.4288 89.4455C69.6209 89.7721 69.8923 89.9354 70.2429 89.9354ZM72.9619 90.5693L72.7242 89.9786L74.2659 88.2423C74.3476 88.1559 74.4316 88.0574 74.5181 87.947C74.6093 87.8317 74.6958 87.714 74.7774 87.594C74.8591 87.4739 74.9239 87.3562 74.9719 87.2409C75.0248 87.1209 75.0512 87.008 75.0512 86.9023C75.0512 86.7487 75.02 86.619 74.9575 86.5133C74.8999 86.4028 74.8134 86.3188 74.6982 86.2612C74.5877 86.2035 74.4532 86.1747 74.2947 86.1747C74.1554 86.1747 74.0186 86.2155 73.8841 86.2972C73.7496 86.3788 73.6271 86.4941 73.5167 86.643C73.4062 86.7919 73.3197 86.9648 73.2573 87.1617L72.6593 86.7871C72.741 86.5085 72.8635 86.2708 73.0268 86.0739C73.1949 85.8721 73.3942 85.7184 73.6247 85.6128C73.8601 85.5071 74.1146 85.4543 74.3884 85.4543C74.6718 85.4543 74.9239 85.5143 75.1448 85.6344C75.3658 85.7497 75.5387 85.913 75.6635 86.1243C75.7884 86.3308 75.8509 86.5709 75.8509 86.8447C75.8509 86.9552 75.8388 87.068 75.8148 87.1833C75.7908 87.2986 75.7524 87.4187 75.6996 87.5435C75.6467 87.6636 75.5795 87.7909 75.4978 87.9254C75.4162 88.055 75.3177 88.1919 75.2025 88.336C75.092 88.4801 74.9647 88.6314 74.8206 88.7899L73.6752 90.0362L73.5311 89.8201H76.0093V90.5693H72.9619ZM78.4899 90.5693V86.5061L78.67 86.5493L77.0131 88.5737L76.9842 88.4873H80.1181V89.2005H76.5015L76.1702 88.5521L78.6412 85.5263H79.2392V90.5693H78.4899Z" fill="#6E7C87"/>
<g filter="url(#filter0_d_44044_40864)">
<path d="M131.117 10.0859C132.709 10.0859 133.999 11.3763 133.999 12.9678V32.4199C133.999 34.0112 132.709 35.3008 131.117 35.3008H45.9221C44.613 35.3008 43.3744 35.8941 42.5539 36.9142L38.2285 42.292C37.7626 42.871 36.8637 42.8156 36.4727 42.1836L33.4821 37.3493C32.6943 36.0758 31.3035 35.3008 29.806 35.3008H22.333C20.7416 35.3008 19.4514 34.0112 19.4512 32.4199V12.9678C19.4512 11.3763 20.7415 10.0859 22.333 10.0859H131.117Z" fill="white"/>
</g>
<circle cx="32.4186" cy="23.5094" r="3.60215" fill="#10B981"/>
<circle cx="32.4186" cy="23.5094" r="4.32258" stroke="#10B981" stroke-opacity="0.1" stroke-width="1.44086"/>
<path d="M44.4447 27.0962C44.0067 27.0962 43.6061 27.0213 43.243 26.8714C42.8799 26.7216 42.5658 26.5083 42.3007 26.2317C42.0356 25.9493 41.8281 25.6179 41.6783 25.2375C41.5342 24.8514 41.4621 24.4306 41.4621 23.9753C41.4621 23.5373 41.5399 23.131 41.6956 22.7563C41.8512 22.3817 42.0673 22.0532 42.3439 21.7708C42.6206 21.4884 42.9433 21.2694 43.3122 21.1138C43.6811 20.9582 44.0816 20.8803 44.5139 20.8803C44.8078 20.8803 45.0931 20.9236 45.3697 21.01C45.6464 21.0965 45.9 21.2175 46.1305 21.3731C46.3611 21.523 46.5541 21.6988 46.7097 21.9005L45.9922 22.6872C45.8423 22.5316 45.6867 22.4019 45.5254 22.2982C45.3697 22.1886 45.2055 22.108 45.0326 22.0561C44.8654 21.9985 44.6925 21.9696 44.5139 21.9696C44.2488 21.9696 43.998 22.0186 43.7617 22.1166C43.5312 22.2146 43.3295 22.3529 43.1566 22.5316C42.9894 22.7102 42.8569 22.9235 42.7589 23.1713C42.6609 23.4134 42.6119 23.6843 42.6119 23.984C42.6119 24.2894 42.658 24.5661 42.7503 24.8139C42.8482 25.0617 42.9837 25.275 43.1566 25.4536C43.3352 25.6323 43.5456 25.7706 43.7877 25.8686C44.0355 25.9608 44.3064 26.0069 44.6003 26.0069C44.7905 26.0069 44.9749 25.981 45.1536 25.9291C45.3323 25.8772 45.4965 25.8052 45.6464 25.713C45.802 25.615 45.9432 25.5026 46.07 25.3758L46.6233 26.2663C46.485 26.4219 46.3005 26.5631 46.07 26.6899C45.8395 26.8167 45.5801 26.9176 45.2919 26.9925C45.0095 27.0616 44.7271 27.0962 44.4447 27.0962ZM49.5073 27.0962C49.052 27.0962 48.6456 26.9954 48.2883 26.7936C47.931 26.5862 47.6486 26.3037 47.4411 25.9464C47.2336 25.5891 47.1298 25.1828 47.1298 24.7274C47.1298 24.2721 47.2336 23.8658 47.4411 23.5085C47.6486 23.1511 47.931 22.8716 48.2883 22.6699C48.6456 22.4624 49.052 22.3587 49.5073 22.3587C49.9568 22.3587 50.3603 22.4624 50.7176 22.6699C51.0749 22.8716 51.3544 23.1511 51.5562 23.5085C51.7637 23.8658 51.8674 24.2721 51.8674 24.7274C51.8674 25.1828 51.7637 25.5891 51.5562 25.9464C51.3544 26.3037 51.0749 26.5862 50.7176 26.7936C50.3603 26.9954 49.9568 27.0962 49.5073 27.0962ZM49.5073 26.1539C49.7551 26.1539 49.9741 26.0905 50.1643 25.9637C50.3603 25.8369 50.513 25.6669 50.6225 25.4536C50.7378 25.2404 50.7925 24.9983 50.7867 24.7274C50.7925 24.4508 50.7378 24.2059 50.6225 23.9926C50.513 23.7794 50.3603 23.6122 50.1643 23.4912C49.9741 23.3644 49.7551 23.301 49.5073 23.301C49.2594 23.301 49.0347 23.3644 48.8329 23.4912C48.637 23.6122 48.4843 23.7822 48.3747 24.0012C48.2652 24.2145 48.2105 24.4566 48.2105 24.7274C48.2105 24.9983 48.2652 25.2404 48.3747 25.4536C48.4843 25.6669 48.637 25.8369 48.8329 25.9637C49.0347 26.0905 49.2594 26.1539 49.5073 26.1539ZM52.6284 27.0098V22.4538H53.6744L53.6917 23.3702L53.5188 23.4393C53.5707 23.2895 53.6485 23.1511 53.7522 23.0243C53.856 22.8918 53.9799 22.7794 54.124 22.6872C54.2681 22.5892 54.4208 22.5143 54.5822 22.4624C54.7436 22.4048 54.9078 22.376 55.075 22.376C55.3228 22.376 55.5418 22.4163 55.732 22.497C55.9279 22.5719 56.0893 22.6929 56.2161 22.8601C56.3487 23.0272 56.4467 23.2405 56.51 23.4998L56.3458 23.4652L56.415 23.3269C56.4784 23.1886 56.5677 23.0647 56.683 22.9552C56.7982 22.8399 56.9279 22.7391 57.072 22.6526C57.2161 22.5604 57.3659 22.4912 57.5215 22.4451C57.6829 22.399 57.8414 22.376 57.997 22.376C58.3428 22.376 58.631 22.4451 58.8615 22.5834C59.0921 22.7218 59.265 22.9321 59.3802 23.2145C59.4955 23.4969 59.5531 23.8456 59.5531 24.2606V27.0098H58.4811V24.3298C58.4811 24.0992 58.4494 23.909 58.386 23.7592C58.3284 23.6093 58.2362 23.4998 58.1094 23.4307C57.9884 23.3557 57.8356 23.3183 57.6512 23.3183C57.5071 23.3183 57.3688 23.3442 57.2362 23.3961C57.1094 23.4422 56.9999 23.5114 56.9077 23.6036C56.8155 23.69 56.7435 23.7909 56.6916 23.9062C56.6397 24.0214 56.6138 24.1482 56.6138 24.2865V27.0098H55.5418V24.3211C55.5418 24.1021 55.5101 23.9206 55.4467 23.7765C55.3833 23.6266 55.2911 23.5142 55.17 23.4393C55.049 23.3586 54.902 23.3183 54.7291 23.3183C54.5851 23.3183 54.4496 23.3442 54.3228 23.3961C54.196 23.4422 54.0865 23.5085 53.9943 23.5949C53.9021 23.6814 53.83 23.7822 53.7782 23.8975C53.7263 24.0128 53.7004 24.1396 53.7004 24.2779V27.0098H52.6284ZM60.5607 28.9117V22.4538H61.6068L61.6241 23.4912L61.4425 23.4134C61.4771 23.2347 61.5751 23.0676 61.7365 22.912C61.8978 22.7506 62.0938 22.6209 62.3243 22.5229C62.5606 22.4249 62.8056 22.376 63.0592 22.376C63.4626 22.376 63.8199 22.4768 64.1312 22.6785C64.4482 22.8803 64.696 23.1569 64.8746 23.5085C65.0591 23.86 65.1513 24.2664 65.1513 24.7274C65.1513 25.1828 65.0591 25.5891 64.8746 25.9464C64.696 26.298 64.4482 26.5775 64.1312 26.785C63.8199 26.9867 63.4684 27.0876 63.0765 27.0876C62.8113 27.0876 62.5549 27.0357 62.307 26.932C62.065 26.8282 61.8575 26.6928 61.6846 26.5256C61.5174 26.3585 61.4137 26.1827 61.3734 25.9983L61.6327 25.8772V28.9117H60.5607ZM62.8603 26.1452C63.1024 26.1452 63.3185 26.0847 63.5087 25.9637C63.6989 25.8427 63.8459 25.6755 63.9496 25.4623C64.0591 25.249 64.1139 25.0041 64.1139 24.7274C64.1139 24.4508 64.062 24.2087 63.9583 24.0012C63.8545 23.788 63.7076 23.6209 63.5174 23.4998C63.3272 23.3788 63.1082 23.3183 62.8603 23.3183C62.6067 23.3183 62.3848 23.3788 62.1946 23.4998C62.0102 23.6151 61.8633 23.7794 61.7537 23.9926C61.6442 24.2059 61.5895 24.4508 61.5895 24.7274C61.5895 25.0041 61.6442 25.249 61.7537 25.4623C61.8633 25.6755 62.0102 25.8427 62.1946 25.9637C62.3848 26.0847 62.6067 26.1452 62.8603 26.1452ZM65.9348 27.0098V20.6123H67.0068V27.0098H65.9348ZM70.1343 27.0962C69.6559 27.0962 69.2323 26.9954 68.8634 26.7936C68.5003 26.5919 68.2151 26.3182 68.0076 25.9723C67.8059 25.6208 67.705 25.2202 67.705 24.7707C67.705 24.4133 67.7626 24.0877 67.8779 23.7938C67.9932 23.4998 68.1517 23.2462 68.3534 23.033C68.5609 22.814 68.8058 22.6468 69.0882 22.5316C69.3764 22.4105 69.6905 22.35 70.0305 22.35C70.3302 22.35 70.6098 22.4077 70.8691 22.5229C71.1285 22.6382 71.3533 22.7967 71.5434 22.9984C71.7336 23.1944 71.8777 23.4307 71.9757 23.7073C72.0794 23.9782 72.1284 24.275 72.1227 24.5978L72.114 24.9695H68.4225L68.2237 24.2433H71.2236L71.0853 24.3903V24.2001C71.068 24.0214 71.0103 23.8658 70.9123 23.7332C70.8144 23.5949 70.6876 23.4883 70.532 23.4134C70.3821 23.3327 70.215 23.2923 70.0305 23.2923C69.7481 23.2923 69.509 23.3471 69.313 23.4566C69.1228 23.5661 68.9787 23.7246 68.8807 23.9321C68.7828 24.1338 68.7338 24.3874 68.7338 24.6929C68.7338 24.9868 68.7943 25.2433 68.9153 25.4623C69.0421 25.6813 69.2179 25.8513 69.4427 25.9723C69.6732 26.0876 69.9412 26.1452 70.2467 26.1452C70.4599 26.1452 70.6559 26.1107 70.8345 26.0415C71.0132 25.9723 71.2063 25.8484 71.4138 25.6698L71.9411 26.4046C71.7855 26.5487 71.6068 26.6726 71.4051 26.7763C71.2092 26.8743 71.0017 26.9521 70.7827 27.0098C70.5637 27.0674 70.3475 27.0962 70.1343 27.0962ZM73.3843 27.0098V21.2953H74.4477V27.0098H73.3843ZM72.4852 23.4393V22.4538H75.4419V23.4393H72.4852ZM78.1719 27.0962C77.6936 27.0962 77.2699 26.9954 76.9011 26.7936C76.538 26.5919 76.2527 26.3182 76.0452 25.9723C75.8435 25.6208 75.7426 25.2202 75.7426 24.7707C75.7426 24.4133 75.8003 24.0877 75.9155 23.7938C76.0308 23.4998 76.1893 23.2462 76.391 23.033C76.5985 22.814 76.8434 22.6468 77.1259 22.5316C77.414 22.4105 77.7281 22.35 78.0682 22.35C78.3679 22.35 78.6474 22.4077 78.9068 22.5229C79.1661 22.6382 79.3909 22.7967 79.5811 22.9984C79.7713 23.1944 79.9154 23.4307 80.0133 23.7073C80.1171 23.9782 80.1661 24.275 80.1603 24.5978L80.1517 24.9695H76.4602L76.2613 24.2433H79.2612L79.1229 24.3903V24.2001C79.1056 24.0214 79.048 23.8658 78.95 23.7332C78.852 23.5949 78.7252 23.4883 78.5696 23.4134C78.4198 23.3327 78.2526 23.2923 78.0682 23.2923C77.7858 23.2923 77.5466 23.3471 77.3506 23.4566C77.1604 23.5661 77.0164 23.7246 76.9184 23.9321C76.8204 24.1338 76.7714 24.3874 76.7714 24.6929C76.7714 24.9868 76.8319 25.2433 76.953 25.4623C77.0798 25.6813 77.2555 25.8513 77.4803 25.9723C77.7108 26.0876 77.9788 26.1452 78.2843 26.1452C78.4976 26.1452 78.6935 26.1107 78.8722 26.0415C79.0508 25.9723 79.2439 25.8484 79.4514 25.6698L79.9788 26.4046C79.8231 26.5487 79.6445 26.6726 79.4428 26.7763C79.2468 26.8743 79.0393 26.9521 78.8203 27.0098C78.6013 27.0674 78.3852 27.0962 78.1719 27.0962ZM82.762 27.0962C82.3585 27.0962 81.9954 26.9954 81.6727 26.7936C81.3557 26.5862 81.1021 26.3066 80.9119 25.9551C80.7275 25.5977 80.6353 25.1885 80.6353 24.7274C80.6353 24.2721 80.7275 23.8658 80.9119 23.5085C81.0963 23.1511 81.347 22.8716 81.664 22.6699C81.9868 22.4624 82.3499 22.3587 82.7533 22.3587C82.9723 22.3587 83.1827 22.3932 83.3844 22.4624C83.5919 22.5316 83.7763 22.6267 83.9377 22.7477C84.0991 22.863 84.2259 22.9926 84.3181 23.1367C84.4161 23.2808 84.4708 23.4307 84.4823 23.5863L84.1971 23.6209V20.6123H85.2604V27.0098H84.2316L84.2057 25.9378L84.4132 25.9551C84.4074 26.0991 84.3556 26.2375 84.2576 26.37C84.1654 26.5026 84.0443 26.6236 83.8945 26.7331C83.7446 26.8426 83.5688 26.932 83.3671 27.0011C83.1712 27.0645 82.9694 27.0962 82.762 27.0962ZM82.9694 26.1971C83.2173 26.1971 83.4363 26.1337 83.6265 26.0069C83.8167 25.8801 83.9636 25.7072 84.0674 25.4882C84.1769 25.2692 84.2316 25.0156 84.2316 24.7274C84.2316 24.445 84.1769 24.1943 84.0674 23.9753C83.9636 23.7505 83.8167 23.5776 83.6265 23.4566C83.4363 23.3298 83.2173 23.2664 82.9694 23.2664C82.7216 23.2664 82.5026 23.3298 82.3124 23.4566C82.1222 23.5776 81.9724 23.7505 81.8629 23.9753C81.7591 24.1943 81.7073 24.445 81.7073 24.7274C81.7073 25.0156 81.7591 25.2692 81.8629 25.4882C81.9724 25.7072 82.1222 25.8801 82.3124 26.0069C82.5026 26.1337 82.7216 26.1971 82.9694 26.1971Z" fill="#5A5B5F"/>
<path d="M114.357 26.5862V21.6757L114.677 22.2549L113.415 22.8687L113.164 21.7189L114.85 20.8717H115.637V26.5862H114.357ZM113.294 27.0098V25.8427H116.726V27.0098H113.294ZM119.847 27.0962C119.328 27.0962 118.884 26.9723 118.515 26.7245C118.152 26.4766 117.873 26.1222 117.677 25.6611C117.487 25.1943 117.391 24.6352 117.391 23.984C117.391 23.3327 117.487 22.7765 117.677 22.3154C117.873 21.8486 118.152 21.4913 118.515 21.2434C118.884 20.9956 119.328 20.8717 119.847 20.8717C120.365 20.8717 120.809 20.9956 121.178 21.2434C121.547 21.4913 121.826 21.8486 122.017 22.3154C122.213 22.7765 122.311 23.3327 122.311 23.984C122.311 24.6352 122.213 25.1943 122.017 25.6611C121.826 26.1222 121.547 26.4766 121.178 26.7245C120.809 26.9723 120.365 27.0962 119.847 27.0962ZM119.847 25.981C120.233 25.981 120.533 25.8081 120.746 25.4623C120.959 25.1165 121.066 24.6237 121.066 23.984C121.066 23.3327 120.959 22.8313 120.746 22.4797C120.533 22.1281 120.233 21.9523 119.847 21.9523C119.455 21.9523 119.152 22.1281 118.939 22.4797C118.731 22.8313 118.628 23.3327 118.628 23.984C118.628 24.6237 118.731 25.1165 118.939 25.4623C119.152 25.8081 119.455 25.981 119.847 25.981ZM124.345 26.5862V21.6757L124.665 22.2549L123.403 22.8687L123.152 21.7189L124.838 20.8717H125.624V26.5862H124.345ZM123.282 27.0098V25.8427H126.714V27.0098H123.282Z" fill="black"/>
<defs>
<filter id="filter0_d_44044_40864" x="-0.000443935" y="-8.53539e-05" width="149.129" height="67.189" filterUnits="userSpaceOnUse" color-interpolation-filters="sRGB">
<feFlood flood-opacity="0" result="BackgroundImageFix"/>
<feColorMatrix in="SourceAlpha" type="matrix" values="0 0 0 0 0 0 0 0 0 0 0 0 0 0 0 0 0 0 127 0" result="hardAlpha"/>
<feOffset dx="-2.16129" dy="7.2043"/>
<feGaussianBlur stdDeviation="8.64516"/>
<feColorMatrix type="matrix" values="0 0 0 0 0.00916669 0 0 0 0 0.0670245 0 0 0 0 0.275 0 0 0 0.12 0"/>
<feBlend mode="normal" in2="BackgroundImageFix" result="effect1_dropShadow_44044_40864"/>
<feBlend mode="normal" in="SourceGraphic" in2="effect1_dropShadow_44044_40864" result="shape"/>
</filter>
</defs>
</svg>
