<svg width="66" height="66" viewBox="0 0 66 66" fill="none" xmlns="http://www.w3.org/2000/svg">
<rect width="66" height="66" rx="33" fill="#1E90FF" fill-opacity="0.05"/>
<path fill-rule="evenodd" clip-rule="evenodd" d="M19.0625 21.25C19.0625 21.0014 19.1613 20.7629 19.3371 20.5871C19.5129 20.4113 19.7514 20.3125 20 20.3125H45C45.2486 20.3125 45.4871 20.4113 45.6629 20.5871C45.8387 20.7629 45.9375 21.0014 45.9375 21.25C45.9375 21.4986 45.8387 21.7371 45.6629 21.9129C45.4871 22.0887 45.2486 22.1875 45 22.1875H20C19.7514 22.1875 19.5129 22.0887 19.3371 21.9129C19.1613 21.7371 19.0625 21.4986 19.0625 21.25ZM26.835 25.3125H26.915C27.465 25.3125 27.94 25.3125 28.3275 25.3475C28.74 25.385 29.1475 25.4675 29.5312 25.6888C29.9587 25.9363 30.3138 26.2913 30.5613 26.7188C30.7825 27.1025 30.865 27.51 30.9025 27.9212C30.9375 28.3112 30.9375 28.785 30.9375 29.3337V40.665C30.9375 41.215 30.9375 41.69 30.9025 42.0775C30.865 42.49 30.7825 42.8975 30.5613 43.2812C30.3143 43.7091 29.9591 44.0643 29.5312 44.3112C29.1475 44.5325 28.74 44.615 28.3288 44.6525C27.9388 44.6875 27.465 44.6875 26.9163 44.6875H26.835C26.285 44.6875 25.81 44.6875 25.4225 44.6525C25.01 44.615 24.6025 44.5325 24.2188 44.3112C23.7909 44.0643 23.4357 43.7091 23.1888 43.2812C22.9675 42.8975 22.885 42.49 22.8475 42.0788C22.8168 41.6086 22.8051 41.1374 22.8125 40.6663V29.3337C22.8125 28.7837 22.8125 28.3087 22.8475 27.9212C22.885 27.5087 22.9675 27.1013 23.1888 26.7175C23.4357 26.2897 23.7909 25.9344 24.2188 25.6875C24.6025 25.4663 25.01 25.3837 25.4212 25.3463C25.8112 25.3112 26.285 25.3113 26.8337 25.3113M25.59 27.2137C25.3088 27.2387 25.2063 27.2825 25.155 27.3112C25.0122 27.3936 24.8936 27.5122 24.8112 27.655C24.7825 27.705 24.7387 27.8088 24.7137 28.09C24.6875 28.3837 24.6863 28.7725 24.6863 29.3737V40.6238C24.6863 41.225 24.6862 41.6137 24.7137 41.9075C24.7387 42.1887 24.7825 42.2913 24.8112 42.3425C24.8938 42.4849 25.0123 42.603 25.155 42.685C25.205 42.715 25.3088 42.7575 25.59 42.7837C25.8837 42.81 26.2725 42.8113 26.8738 42.8113C27.475 42.8113 27.8638 42.8112 28.1575 42.7837C28.4388 42.7587 28.5412 42.715 28.5925 42.685C28.7352 42.603 28.8537 42.4849 28.9363 42.3425C28.965 42.2925 29.0087 42.1887 29.0338 41.9075C29.06 41.6137 29.0612 41.225 29.0612 40.6238V29.3737C29.0612 28.7725 29.0613 28.3837 29.0338 28.09C29.0087 27.8088 28.965 27.7062 28.9363 27.655C28.8539 27.5122 28.7353 27.3936 28.5925 27.3112C28.5425 27.2825 28.4388 27.2387 28.1575 27.2137C27.7305 27.1881 27.3027 27.1794 26.875 27.1875C26.2737 27.1875 25.885 27.1875 25.5912 27.215M38.085 25.3125H38.165C38.715 25.3125 39.19 25.3125 39.5775 25.3475C39.99 25.385 40.3975 25.4675 40.7812 25.6888C41.2087 25.9363 41.5637 26.2913 41.8112 26.7188C42.0325 27.1025 42.115 27.51 42.1525 27.9212C42.1875 28.3112 42.1875 28.785 42.1875 29.3337V36.915C42.1875 37.465 42.1875 37.94 42.1525 38.3275C42.115 38.74 42.0325 39.1475 41.8112 39.5312C41.5643 39.9591 41.2091 40.3143 40.7812 40.5612C40.3975 40.7825 39.99 40.865 39.5788 40.9025C39.1887 40.9375 38.715 40.9375 38.1663 40.9375H38.085C37.535 40.9375 37.06 40.9375 36.6725 40.9025C36.26 40.865 35.8525 40.7825 35.4688 40.5612C35.0409 40.3143 34.6857 39.9591 34.4387 39.5312C34.2175 39.1475 34.135 38.74 34.0975 38.3288C34.0625 37.9387 34.0625 37.465 34.0625 36.9163V29.3337C34.0625 28.7837 34.0625 28.3087 34.0975 27.9212C34.135 27.5087 34.2175 27.1013 34.4387 26.7175C34.6857 26.2897 35.0409 25.9344 35.4688 25.6875C35.8525 25.4663 36.26 25.3837 36.6712 25.3463C37.0613 25.3112 37.535 25.3113 38.0837 25.3113M36.84 27.2137C36.5588 27.2387 36.4562 27.2825 36.405 27.3112C36.2626 27.3938 36.1445 27.5123 36.0625 27.655C36.0325 27.705 35.9888 27.8088 35.9637 28.09C35.9375 28.3837 35.9362 28.7725 35.9362 29.3737V36.8737C35.9362 37.475 35.9363 37.8637 35.9637 38.1575C35.9888 38.4387 36.0325 38.5413 36.0625 38.5925C36.1447 38.7347 36.2628 38.8528 36.405 38.935C36.455 38.965 36.5588 39.0075 36.84 39.0337C37.1338 39.06 37.5225 39.0613 38.1238 39.0613C38.725 39.0613 39.1137 39.0612 39.4075 39.0337C39.6887 39.0087 39.7913 38.965 39.8425 38.935C39.9847 38.8528 40.1028 38.7347 40.185 38.5925C40.215 38.5425 40.2575 38.4387 40.2837 38.1575C40.31 37.8637 40.3113 37.475 40.3113 36.8737V29.3737C40.3113 28.7725 40.3112 28.3837 40.2837 28.09C40.2587 27.8088 40.215 27.7062 40.185 27.655C40.103 27.5123 39.9849 27.3938 39.8425 27.3112C39.7925 27.2825 39.6887 27.2387 39.4075 27.2137C38.9805 27.1881 38.5527 27.1794 38.125 27.1875C37.5238 27.1875 37.135 27.1875 36.8412 27.215" fill="#1E90FF"/>
</svg>
