<svg width="66" height="66" viewBox="0 0 66 66" fill="none" xmlns="http://www.w3.org/2000/svg">
<rect width="66" height="66" rx="33" fill="#FF6B6B" fill-opacity="0.05"/>
<g clip-path="url(#clip0_44044_40676)">
<path d="M18.1523 40.4687C18.1523 41.455 18.5441 42.4009 19.2415 43.0983C19.9389 43.7957 20.8848 44.1875 21.8711 44.1875C22.8574 44.1875 23.8032 43.7957 24.5006 43.0983C25.198 42.4009 25.5898 41.455 25.5898 40.4687C25.5898 39.4825 25.198 38.5366 24.5006 37.8392C23.8032 37.1418 22.8574 36.75 21.8711 36.75C20.8848 36.75 19.9389 37.1418 19.2415 37.8392C18.5441 38.5366 18.1523 39.4825 18.1523 40.4687Z" stroke="#FF6B6B" stroke-width="2.125" stroke-linecap="round" stroke-linejoin="round"/>
<path d="M27.1836 48.4375C26.6701 47.4746 25.9045 46.6695 24.9688 46.108C24.0331 45.5466 22.9623 45.25 21.8711 45.25C20.7799 45.25 19.7091 45.5466 18.7734 46.108C17.8377 46.6695 17.0721 47.4746 16.5586 48.4375M39.4023 40.4687C39.4023 40.9571 39.4985 41.4407 39.6854 41.8919C39.8723 42.343 40.1462 42.753 40.4915 43.0983C40.8369 43.4436 41.2468 43.7175 41.698 43.9044C42.1492 44.0913 42.6327 44.1875 43.1211 44.1875C43.6094 44.1875 44.093 44.0913 44.5442 43.9044C44.9954 43.7175 45.4053 43.4436 45.7506 43.0983C46.096 42.753 46.3699 42.343 46.5568 41.8919C46.7437 41.4407 46.8398 40.9571 46.8398 40.4687C46.8398 39.4825 46.448 38.5366 45.7506 37.8392C45.0532 37.1418 44.1074 36.75 43.1211 36.75C42.1348 36.75 41.1889 37.1418 40.4915 37.8392C39.7941 38.5366 39.4023 39.4825 39.4023 40.4687Z" stroke="#FF6B6B" stroke-width="2.125" stroke-linecap="round" stroke-linejoin="round"/>
<path d="M48.4331 48.4375C47.9195 47.4746 47.154 46.6694 46.2183 46.108C45.2825 45.5466 44.2118 45.25 43.1206 45.25C42.0293 45.25 40.9586 45.5466 40.0229 46.108C39.0871 46.6694 38.3216 47.4746 37.8081 48.4375M37.0983 27.1875C36.5304 26.5211 35.8246 25.9859 35.0297 25.6189C34.2348 25.2519 33.3697 25.0619 32.4941 25.0619C31.6186 25.0619 30.7535 25.2519 29.9586 25.6189C29.1636 25.9859 28.4579 26.5211 27.89 27.1875M28.3178 43.4183C31.0311 44.4523 34.0315 44.4432 36.7385 43.3927M24.49 24C23.3271 25.0894 22.4003 26.4059 21.7667 27.868C21.1331 29.33 20.8064 30.9066 20.8066 32.5C20.8066 32.8584 20.8279 33.2083 20.8605 33.5625M44.1292 33.5625C44.1604 33.2112 44.1831 32.8542 44.1831 32.5C44.1833 30.9066 43.8566 29.33 43.223 27.868C42.5894 26.4059 41.6626 25.0894 40.4997 24M28.7768 20.2812C28.7768 20.7696 28.873 21.2532 29.0599 21.7044C29.2468 22.1555 29.5207 22.5655 29.866 22.9108C30.2113 23.2561 30.6213 23.53 31.0725 23.7169C31.5236 23.9038 32.0072 24 32.4956 24C32.9839 24 33.4675 23.9038 33.9187 23.7169C34.3698 23.53 34.7798 23.2561 35.1251 22.9108C35.4704 22.5655 35.7444 22.1555 35.9312 21.7044C36.1181 21.2532 36.2143 20.7696 36.2143 20.2812C36.2143 19.295 35.8225 18.3491 35.1251 17.6517C34.4277 16.9543 33.4818 16.5625 32.4956 16.5625C31.5093 16.5625 30.5634 16.9543 29.866 17.6517C29.1686 18.3491 28.7768 19.295 28.7768 20.2812Z" stroke="#FF6B6B" stroke-width="2.125" stroke-linecap="round" stroke-linejoin="round"/>
</g>
<defs>
<clipPath id="clip0_44044_40676">
<rect width="34" height="34" fill="white" transform="translate(15.5 15.5)"/>
</clipPath>
</defs>
</svg>
