<svg width="66" height="66" viewBox="0 0 66 66" fill="none" xmlns="http://www.w3.org/2000/svg">
<rect width="66" height="66" rx="33" fill="#8A2BE2" fill-opacity="0.05"/>
<path d="M32.5 21.25V42.8125M32.5 42.8125C30.66 42.8125 28.8975 43.1437 27.2688 43.75M32.5 42.8125C34.34 42.8125 36.1025 43.1437 37.7312 43.75M40.9375 23.7125C38.1423 23.3184 35.3228 23.1221 32.5 23.125C29.6363 23.125 26.8187 23.325 24.0625 23.7125M40.9375 23.7125C42.2 23.8917 43.45 24.1083 44.6875 24.3625M40.9375 23.7125L44.2125 37.12C44.365 37.7438 44.08 38.405 43.4763 38.6225C42.6617 38.9145 41.8028 39.0634 40.9375 39.0625C40.0722 39.0634 39.2133 38.9145 38.3987 38.6225C37.795 38.405 37.51 37.7438 37.6612 37.12L40.9375 23.7125ZM24.0625 23.7125C22.8 23.8917 21.55 24.1083 20.3125 24.3625M24.0625 23.7125L27.3375 37.12C27.49 37.7438 27.205 38.405 26.6013 38.6225C25.7867 38.9145 24.9278 39.0634 24.0625 39.0625C23.1972 39.0634 22.3383 38.9145 21.5238 38.6225C20.92 38.405 20.635 37.7438 20.7862 37.12L24.0625 23.7125Z" stroke="#8A2BE2" stroke-width="1.875" stroke-linecap="round" stroke-linejoin="round"/>
</svg>
