<svg width="66" height="66" viewBox="0 0 66 66" fill="none" xmlns="http://www.w3.org/2000/svg">
<rect width="66" height="66" rx="33" fill="#FFA500" fill-opacity="0.05"/>
<path d="M25.8339 45.9597H39.1678C41.7671 45.9597 43.0603 44.6413 43.0603 42.0297V30.6291C43.0603 29.0091 42.8846 28.3063 41.8802 27.2766L34.9491 20.2331C33.9955 19.2533 33.2166 19.04 31.798 19.04H25.8339C23.2475 19.04 21.9414 20.3708 21.9414 22.9829V42.0297C21.9414 44.6536 23.2475 45.9597 25.8339 45.9597ZM25.9341 43.9384C24.6409 43.9384 23.9627 43.2474 23.9627 41.9922V23.0204C23.9627 21.7775 24.6409 21.0613 25.9469 21.0613H31.5216V28.3566C31.5216 29.9386 32.3252 30.717 33.8819 30.717H41.0391V41.9922C41.0391 43.2474 40.3732 43.9384 39.0677 43.9384H25.9341ZM34.108 28.8206C33.6184 28.8206 33.4169 28.6202 33.4169 28.1177V21.4508L40.6491 28.8211L34.108 28.8206ZM37.1214 34.1697H27.591C27.1394 34.1697 26.8132 34.5088 26.8132 34.9358C26.8132 35.375 27.14 35.7141 27.5916 35.7141H37.1214C37.2241 35.7158 37.3261 35.6968 37.4212 35.6583C37.5164 35.6198 37.6029 35.5625 37.6755 35.4899C37.7481 35.4173 37.8054 35.3308 37.8439 35.2356C37.8825 35.1404 37.9015 35.0384 37.8998 34.9358C37.8998 34.5088 37.5607 34.1697 37.1214 34.1697ZM37.1214 38.5518H27.591C27.1394 38.5518 26.8132 38.9033 26.8132 39.3425C26.8132 39.7695 27.14 40.0963 27.5916 40.0963H37.1214C37.5607 40.0963 37.8998 39.7695 37.8998 39.3425C37.8998 38.9033 37.5607 38.5518 37.1214 38.5518Z" fill="#FFA500"/>
</svg>
