<svg width="24" height="24" viewBox="0 0 24 24" fill="none" xmlns="http://www.w3.org/2000/svg">
<g clip-path="url(#clip0_48736_17506)">
<path d="M18.0147 0H5.51471C2.46902 0 0 2.46902 0 5.51471V18.0147C0 21.0604 2.46902 23.5294 5.51471 23.5294H18.0147C21.0604 23.5294 23.5294 21.0604 23.5294 18.0147V5.51471C23.5294 2.46902 21.0604 0 18.0147 0Z" fill="url(#paint0_radial_48736_17506)"/>
<path d="M18.0147 0H5.51471C2.46902 0 0 2.46902 0 5.51471V18.0147C0 21.0604 2.46902 23.5294 5.51471 23.5294H18.0147C21.0604 23.5294 23.5294 21.0604 23.5294 18.0147V5.51471C23.5294 2.46902 21.0604 0 18.0147 0Z" fill="url(#paint1_radial_48736_17506)"/>
<path d="M11.7662 2.57324C9.27008 2.57324 8.95676 2.58418 7.97642 2.62876C6.99793 2.67361 6.33001 2.82848 5.74563 3.05578C5.14104 3.29052 4.62826 3.60458 4.11742 4.11561C3.60611 4.62655 3.29205 5.13933 3.05657 5.74365C2.82863 6.32821 2.67358 6.9964 2.62955 7.97444C2.58571 8.95486 2.57422 9.26828 2.57422 11.7645C2.57422 14.2607 2.58525 14.5731 2.62973 15.5534C2.67477 16.5319 2.82964 17.1998 3.05676 17.7842C3.29168 18.3888 3.60574 18.9016 4.11677 19.4124C4.62753 19.9237 5.1403 20.2385 5.74444 20.4732C6.32927 20.7005 6.99729 20.8554 7.9756 20.9003C8.95602 20.9448 9.26907 20.9558 11.7651 20.9558C14.2615 20.9558 14.5739 20.9448 15.5542 20.9003C16.5327 20.8554 17.2013 20.7005 17.7862 20.4732C18.3905 20.2385 18.9025 19.9237 19.4132 19.4124C19.9245 18.9016 20.2385 18.3888 20.474 17.7845C20.7 17.1998 20.8551 16.5317 20.9011 15.5536C20.9451 14.5732 20.9566 14.2607 20.9566 11.7645C20.9566 9.26828 20.9451 8.95504 20.9011 7.97462C20.8551 6.99613 20.7 6.3283 20.474 5.74392C20.2385 5.13933 19.9245 4.62655 19.4132 4.11561C18.902 3.6044 18.3907 3.29034 17.7856 3.05587C17.1997 2.82848 16.5314 2.67352 15.5529 2.62876C14.5725 2.58418 14.2603 2.57324 11.7634 2.57324H11.7662ZM10.9417 4.22958C11.1864 4.22922 11.4595 4.22958 11.7662 4.22958C14.2204 4.22958 14.5112 4.23841 15.4803 4.28243C16.3764 4.32343 16.8628 4.47315 17.1868 4.59898C17.6158 4.76552 17.9216 4.96469 18.2431 5.28648C18.5648 5.60817 18.7638 5.91451 18.9308 6.34346C19.0567 6.66699 19.2066 7.15339 19.2474 8.04953C19.2914 9.01846 19.301 9.30945 19.301 11.7624C19.301 14.2153 19.2914 14.5064 19.2474 15.4753C19.2064 16.3714 19.0567 16.8578 18.9308 17.1814C18.7643 17.6104 18.5648 17.9158 18.2431 18.2373C17.9214 18.559 17.6159 18.7581 17.1868 18.9247C16.8632 19.0511 16.3764 19.2004 15.4803 19.2414C14.5114 19.2855 14.2204 19.295 11.7662 19.295C9.31199 19.295 9.02109 19.2855 8.05225 19.2414C7.15611 19.2001 6.66971 19.0504 6.34545 18.9245C5.91659 18.7579 5.61016 18.5588 5.28846 18.2371C4.96677 17.9154 4.76769 17.6098 4.60069 17.1807C4.47486 16.8571 4.32495 16.3707 4.28415 15.4745C4.24012 14.5056 4.2313 14.2146 4.2313 11.7601C4.2313 9.3056 4.24012 9.01616 4.28415 8.04723C4.32514 7.15109 4.47486 6.66469 4.60069 6.34071C4.76733 5.91175 4.96677 5.60541 5.28856 5.28372C5.61034 4.96203 5.91659 4.76286 6.34554 4.59594C6.66953 4.46957 7.15611 4.32021 8.05225 4.27903C8.90014 4.24071 9.22872 4.22922 10.9417 4.22729V4.22958ZM16.6725 5.75569C16.0636 5.75569 15.5695 6.24925 15.5695 6.85826C15.5695 7.46718 16.0636 7.9612 16.6725 7.9612C17.2814 7.9612 17.7754 7.46718 17.7754 6.85826C17.7754 6.24935 17.2814 5.75532 16.6725 5.75532V5.75569ZM11.7662 7.04438C9.15961 7.04438 7.04619 9.1578 7.04619 11.7645C7.04619 14.3712 9.15961 16.4836 11.7662 16.4836C14.3729 16.4836 16.4856 14.3712 16.4856 11.7645C16.4856 9.15789 14.3727 7.04438 11.766 7.04438H11.7662ZM11.7662 8.70072C13.4582 8.70072 14.83 10.0723 14.83 11.7645C14.83 13.4565 13.4582 14.8283 11.7662 14.8283C10.0742 14.8283 8.70253 13.4565 8.70253 11.7645C8.70253 10.0723 10.0741 8.70072 11.7662 8.70072Z" fill="white"/>
</g>
<defs>
<radialGradient id="paint0_radial_48736_17506" cx="0" cy="0" r="1" gradientUnits="userSpaceOnUse" gradientTransform="translate(6.25 25.3416) rotate(-90) scale(23.3194 21.6889)">
<stop stop-color="#FFDD55"/>
<stop offset="0.1" stop-color="#FFDD55"/>
<stop offset="0.5" stop-color="#FF543E"/>
<stop offset="1" stop-color="#C837AB"/>
</radialGradient>
<radialGradient id="paint1_radial_48736_17506" cx="0" cy="0" r="1" gradientUnits="userSpaceOnUse" gradientTransform="translate(-3.94127 1.69494) rotate(78.681) scale(10.4239 42.9676)">
<stop stop-color="#3771C8"/>
<stop offset="0.128" stop-color="#3771C8"/>
<stop offset="1" stop-color="#6600FF" stop-opacity="0"/>
</radialGradient>
<clipPath id="clip0_48736_17506">
<rect width="23.5294" height="23.5294" fill="white"/>
</clipPath>
</defs>
</svg>
