<svg width="24" height="24" viewBox="0 0 24 24" fill="none" xmlns="http://www.w3.org/2000/svg">
<path d="M21.3248 0.551354H2.20715C1.77338 0.54694 1.35558 0.714782 1.04542 1.01805C0.735254 1.32132 0.558067 1.73525 0.552734 2.169V21.3639C0.559032 21.797 0.736643 22.21 1.0467 22.5124C1.35676 22.8149 1.77401 22.9822 2.20715 22.9778H21.3248C21.7586 22.9813 22.1761 22.8129 22.4861 22.5094C22.7961 22.2059 22.9734 21.7921 22.9792 21.3583V2.16349C22.9715 1.731 22.7933 1.31905 22.4836 1.01717C22.1738 0.715297 21.7573 0.547895 21.3248 0.551354Z" fill="#0076B2"/>
<path d="M3.87018 8.95686H7.19922V19.6683H3.87018V8.95686ZM5.53562 3.62598C5.91744 3.62598 6.29069 3.73922 6.60814 3.95139C6.92559 4.16356 7.17298 4.46512 7.31902 4.81791C7.46505 5.17071 7.50316 5.55889 7.42854 5.93335C7.35392 6.30781 7.1699 6.65173 6.89978 6.92159C6.62966 7.19146 6.28557 7.37514 5.91104 7.44941C5.53651 7.52367 5.14836 7.48519 4.79571 7.33882C4.44305 7.19245 4.14173 6.94477 3.92986 6.62712C3.718 6.30947 3.60511 5.93611 3.60547 5.55429C3.60596 5.0427 3.80953 4.55223 4.17145 4.19065C4.53337 3.82908 5.02403 3.62598 5.53562 3.62598ZM9.28745 8.95686H12.4786V10.4274H12.5227C12.9676 9.58554 14.0522 8.69767 15.6716 8.69767C19.043 8.69031 19.668 10.9091 19.668 13.7859V19.6683H16.3389V14.4569C16.3389 13.2161 16.3169 11.6186 14.6091 11.6186C12.9014 11.6186 12.611 12.9716 12.611 14.376V19.6683H9.28745V8.95686Z" fill="white"/>
</svg>
