<svg width="100" height="21" viewBox="0 0 100 21" fill="none" xmlns="http://www.w3.org/2000/svg">
<path fill-rule="evenodd" clip-rule="evenodd" d="M16.164 16.8255L15.5342 16.4628L13.0462 15.0396L9.55046 13.0432L6.05865 15.0396L4.98394 15.6557L3.56674 16.4628L2.93688 16.8255V7.13962L9.55046 3.3573L16.164 7.13962V16.8255ZM19.1008 18.5022V6.85107C19.1078 6.42781 18.9987 6.01061 18.7852 5.64392C18.5716 5.27723 18.2617 4.9748 17.8883 4.76884L9.55046 0L1.21656 4.76884C0.843859 4.9759 0.534269 5.27848 0.320247 5.64483C0.106225 6.01118 -0.00434499 6.42782 0.000130675 6.85107V20.2764H2.77941L4.37376 19.3639L5.46815 18.74L8.10177 17.2349L9.55046 16.4043L9.84965 16.5759L13.6367 18.74L14.7272 19.3639L16.3215 20.2764H19.1008V18.5022Z" fill="url(#paint0_linear_48150_15336)"/>
<path fill-rule="evenodd" clip-rule="evenodd" d="M9.84758 11.0621L12.371 12.5087L14.4456 11.3233L15.3077 10.8281L13.0441 9.53354L9.54839 7.5332L6.05658 9.53354L4.98187 10.1457L3.78906 10.8281L4.65119 11.3233L6.72581 12.5087L8.0997 11.721L9.54839 10.8905L9.84758 11.0621Z" fill="#008080"/>
<path fill-rule="evenodd" clip-rule="evenodd" d="M9.93742 9.53276L12.4648 10.9755L14.5354 9.79012L15.4015 9.29491L13.134 8.00034L9.63823 6L6.14642 8.00034L5.07171 8.61643L3.87891 9.29491L4.74497 9.79012L6.81565 10.9755L8.18954 10.1917L9.63823 9.3612L9.93742 9.53276Z" fill="#008080"/>
<path d="M25.8906 16.1261V4.16309H29.04L29.1069 6.44808L28.6266 6.53777C28.792 6.15334 29.015 5.79579 29.288 5.47716C29.5615 5.16309 29.8829 4.89337 30.2406 4.6778C30.61 4.45215 31.0069 4.27395 31.4216 4.1475C31.8197 4.01986 32.2354 3.95409 32.6538 3.95253C33.2307 3.94382 33.8039 4.04441 34.3426 4.24888C34.8416 4.44023 35.2822 4.75584 35.622 5.16521C36.0073 5.64914 36.2874 6.2067 36.4448 6.80292L35.9409 6.76003L36.1023 6.39739C36.3016 6.03308 36.5551 5.70052 36.8542 5.41087C37.1624 5.10936 37.5076 4.84736 37.8817 4.63101C38.2537 4.41641 38.6502 4.24626 39.0627 4.1241C39.4544 4.00512 39.8615 3.94338 40.2712 3.94083C41.0947 3.9094 41.9113 4.10082 42.6332 4.49453C43.2739 4.88124 43.7679 5.46648 44.0386 6.15953C44.3756 7.0297 44.5348 7.95747 44.5071 8.88904V16.1261H41.2554V9.1074C41.2716 8.65086 41.1939 8.19582 41.0271 7.76994C40.8954 7.44725 40.6639 7.17422 40.3657 6.99008C40.0236 6.80532 39.6371 6.71635 39.2477 6.73273C38.9172 6.72856 38.5888 6.78542 38.2793 6.9004C37.9881 7.00665 37.7206 7.16825 37.492 7.37612C37.2836 7.57544 37.1176 7.81409 37.0038 8.07799C36.8747 8.35713 36.8063 8.66002 36.803 8.96703V16.1261H33.5632V9.07231C33.5749 8.63526 33.4931 8.2007 33.323 7.79724C33.1836 7.46955 32.9494 7.19006 32.6499 6.99398C32.3244 6.80578 31.9518 6.71252 31.5752 6.72493C31.2446 6.72076 30.9162 6.77762 30.6067 6.8926C30.3144 6.99658 30.0465 7.15844 29.8194 7.36832C29.6061 7.57306 29.4326 7.81495 29.3076 8.08189C29.1821 8.35997 29.1215 8.66254 29.1305 8.96703V16.1261H25.8906Z" fill="#162238"/>
<path d="M52.1013 16.3541C51.1333 16.3658 50.1851 16.0827 49.385 15.543C48.5628 14.9804 47.9022 14.2159 47.4678 13.3243C46.9804 12.3246 46.7376 11.2252 46.7592 10.1152C46.7366 9.00633 46.9837 7.90832 47.4796 6.9139C47.9296 6.02353 48.6085 5.26634 49.448 4.7186C50.2846 4.18824 51.2618 3.91674 52.2548 3.93874C52.8101 3.93259 53.3625 4.01961 53.8885 4.19609C54.3595 4.35884 54.7988 4.60017 55.1876 4.90966C55.5569 5.20545 55.877 5.55676 56.1364 5.95078C56.3921 6.33027 56.5787 6.75128 56.6875 7.19465L56.0025 7.08157V4.1649H59.2227V16.1279H55.9395V13.2581L56.6678 13.1879C56.5422 13.6189 56.3424 14.0252 56.0773 14.3889C55.7936 14.7758 55.4494 15.1154 55.0577 15.3949C54.6427 15.6943 54.1849 15.9309 53.6996 16.0968C53.1851 16.2705 52.6448 16.3575 52.1013 16.3541ZM52.9949 13.5739C53.5581 13.5853 54.1128 13.4364 54.5932 13.145C55.0549 12.8498 55.4222 12.4306 55.6521 11.9362C55.9202 11.3663 56.0548 10.7438 56.0458 10.1152C56.0541 9.4967 55.9195 8.88449 55.6521 8.32545C55.4178 7.83395 55.0514 7.41577 54.5932 7.11667C54.1154 6.81799 53.5597 6.66478 52.9949 6.67605C52.4374 6.6638 51.8889 6.81727 51.4202 7.11667C50.9649 7.41902 50.5993 7.83632 50.3613 8.32545C50.0904 8.88329 49.9556 9.49634 49.9676 10.1152C49.9549 10.7442 50.0896 11.3675 50.3613 11.9362C50.595 12.4281 50.9615 12.8465 51.4202 13.145C51.8916 13.4372 52.439 13.5864 52.9949 13.5739Z" fill="#162238"/>
<path d="M62.4492 16.1255V4.16249H65.5552L65.6458 6.60735L65.0041 6.8764C65.1818 6.31869 65.4908 5.81081 65.9056 5.39467C66.3559 4.9402 66.8906 4.5761 67.4803 4.32236C68.0835 4.05726 68.7375 3.92425 69.3974 3.93243C70.1978 3.90441 70.9909 4.09171 71.6925 4.47443C72.3245 4.85564 72.8138 5.43061 73.0861 6.11214C73.4196 6.97363 73.5775 7.89206 73.5506 8.81435V16.1255H70.3107V9.04831C70.3257 8.5855 70.2481 8.12432 70.0824 7.69135C69.949 7.35296 69.7033 7.06966 69.3856 6.8881C69.0305 6.70664 68.6295 6.63208 68.2322 6.67364C67.8864 6.67151 67.5429 6.72823 67.2165 6.8413C66.9236 6.94954 66.6558 7.11533 66.4292 7.32872C66.2101 7.53562 66.0324 7.7817 65.9056 8.05399C65.7739 8.32931 65.7066 8.63055 65.7088 8.93523V16.1255H62.4689H62.4492Z" fill="#162238"/>
<path d="M81.8837 16.3521C80.8103 16.3734 79.7517 16.102 78.8235 15.5677C77.8952 15.0334 77.1331 14.2567 76.6204 13.3224C76.0847 12.3442 75.8134 11.2454 75.833 10.1328C75.8167 9.02542 76.0878 7.93249 76.6204 6.95874C77.1298 6.02085 77.8909 5.24055 78.8196 4.70387C79.7483 4.16719 80.8087 3.89499 81.8837 3.91728C82.9034 3.90492 83.9145 4.10416 84.8519 4.50218C85.6883 4.84755 86.4147 5.41078 86.9541 6.13208L85.1708 8.2572C84.9495 7.95944 84.6841 7.69652 84.3834 7.47734C84.0664 7.24535 83.7178 7.05894 83.3481 6.92364C82.9788 6.78876 82.5882 6.7201 82.1947 6.72088C81.6111 6.70832 81.0361 6.8612 80.5373 7.1615C80.0582 7.45688 79.668 7.87436 79.4075 8.37028C79.1313 8.91653 78.996 9.52207 79.0138 10.1328C79.0016 10.7361 79.1467 11.3324 79.4351 11.8641C79.7075 12.3621 80.1047 12.7824 80.5885 13.0845C81.0778 13.3955 81.6488 13.5569 82.2301 13.5485C82.6107 13.5518 82.9894 13.4952 83.352 13.3809C83.7042 13.2618 84.0351 13.0881 84.3323 12.8662C84.6526 12.6337 84.9399 12.3596 85.1865 12.0512L86.9462 14.1802C86.3704 14.8659 85.6338 15.4015 84.8007 15.74C83.8828 16.1453 82.8887 16.3539 81.8837 16.3521Z" fill="#162238"/>
<path d="M94.7587 16.3532C93.5687 16.3863 92.3898 16.1179 91.3338 15.5734C90.3852 15.0734 89.5949 14.323 89.0505 13.4054C88.4899 12.444 88.2054 11.3491 88.2278 10.2391C88.2165 9.37324 88.3714 8.51312 88.6844 7.70458C88.9719 6.95991 89.4069 6.27977 89.9639 5.70424C90.5198 5.13444 91.1904 4.68674 91.9322 4.39017C92.711 4.07778 93.5445 3.9214 94.3847 3.93005C95.1682 3.92124 95.9452 4.07119 96.668 4.37068C97.3548 4.65382 97.9732 5.07773 98.4828 5.61455C99.0011 6.15813 99.4029 6.80015 99.6638 7.50181C99.928 8.2607 100.04 9.06333 99.9945 9.86479V10.8591H90.2827L89.7591 8.88996H97.3175L96.9514 9.29939V8.80028C96.9272 8.40198 96.7908 8.01836 96.5578 7.69288C96.3298 7.36057 96.0194 7.09199 95.6563 6.91302C95.2724 6.7288 94.8506 6.63537 94.4241 6.64007C93.8327 6.62201 93.2467 6.75637 92.7235 7.03C92.2571 7.28585 91.8849 7.68183 91.6606 8.16079C91.4014 8.72852 91.2762 9.34726 91.2944 9.97007C91.278 10.6255 91.4399 11.2733 91.7629 11.8456C92.0736 12.3749 92.5332 12.8031 93.0856 13.0778C93.7138 13.3859 94.4084 13.5371 95.1091 13.5184C95.6069 13.5243 96.1016 13.4411 96.5696 13.2728C97.0843 13.0625 97.5615 12.7715 97.9828 12.411L99.5378 14.5595C99.0978 14.9517 98.6065 15.2835 98.0773 15.5461C97.5524 15.8038 97.0006 16.0038 96.4318 16.1427C95.8847 16.2795 95.3229 16.3502 94.7587 16.3532Z" fill="#162238"/>
<defs>
<linearGradient id="paint0_linear_48150_15336" x1="9.55046" y1="-2.88938" x2="9.55046" y2="13.0549" gradientUnits="userSpaceOnUse">
<stop stop-color="#162238"/>
<stop offset="1" stop-color="#008080"/>
</linearGradient>
</defs>
</svg>
