<svg width="77" height="60" viewBox="0 0 77 60" fill="none" xmlns="http://www.w3.org/2000/svg">
<rect width="77" height="60" rx="10" fill="white" fill-opacity="0.1"/>
<path d="M43.084 28.896C45.784 29.436 47.98 31.2 47.98 34.872C47.98 39.228 44.236 42.216 38.296 42.216C32.356 42.216 28.576 39.192 28.576 33.792H33.724C33.796 36.636 35.812 38.148 38.548 38.148C40.888 38.148 42.724 36.816 42.724 34.548C42.724 32.568 41.248 31.308 38.332 31.308H35.848V27.168H38.044C40.816 27.168 42.22 25.764 42.22 23.784C42.22 21.732 40.492 20.652 38.332 20.652C35.884 20.652 34.156 22.164 34.084 24.504H29.008C29.08 19.788 32.896 16.584 38.404 16.584C44.092 16.584 47.476 19.248 47.476 23.388C47.476 26.448 45.568 28.248 43.084 28.896Z" fill="white"/>
</svg>
