<svg width="245" height="63" viewBox="0 0 245 63" fill="none" xmlns="http://www.w3.org/2000/svg">
<g clip-path="url(#clip0_47137_23272)">
<rect width="245" height="63" rx="5" fill="url(#paint0_linear_47137_23272)"/>
<path d="M14.896 36.5V26.7H16.982L20.118 34.414L23.198 26.7H25.242V36.5H23.688V29.29L20.748 36.5H19.39L16.45 29.29V36.5H14.896ZM28.2406 28.072C28.0633 28.24 27.844 28.324 27.5826 28.324C27.3213 28.324 27.102 28.24 26.9246 28.072C26.7473 27.8947 26.6586 27.6753 26.6586 27.414C26.6586 27.1527 26.7473 26.938 26.9246 26.77C27.102 26.5927 27.3213 26.504 27.5826 26.504C27.844 26.504 28.0633 26.5927 28.2406 26.77C28.418 26.938 28.5066 27.1527 28.5066 27.414C28.5066 27.6753 28.418 27.8947 28.2406 28.072ZM26.8126 36.5V29.332H28.3246V36.5H26.8126ZM29.4288 34.134H30.9128C30.9408 34.5167 31.1134 34.8247 31.4308 35.058C31.7481 35.2913 32.1728 35.408 32.7048 35.408C33.1714 35.408 33.5448 35.324 33.8248 35.156C34.1141 34.988 34.2588 34.7593 34.2588 34.47C34.2588 34.2927 34.2261 34.148 34.1608 34.036C34.0954 33.9147 33.9741 33.8213 33.7968 33.756C33.6288 33.6907 33.4701 33.644 33.3208 33.616C33.1714 33.588 32.9334 33.5553 32.6068 33.518C32.5601 33.5087 32.5228 33.504 32.4948 33.504C32.0281 33.448 31.6408 33.3827 31.3328 33.308C31.0248 33.2333 30.7261 33.126 30.4368 32.986C30.1474 32.8367 29.9281 32.636 29.7788 32.384C29.6388 32.132 29.5688 31.8287 29.5688 31.474C29.5688 30.802 29.8394 30.2607 30.3808 29.85C30.9314 29.4393 31.6408 29.2387 32.5088 29.248C33.4048 29.248 34.1328 29.4487 34.6928 29.85C35.2621 30.2513 35.5701 30.8113 35.6168 31.53H34.1328C34.0861 31.194 33.9181 30.9233 33.6288 30.718C33.3394 30.5127 32.9754 30.41 32.5368 30.41C32.0888 30.41 31.7294 30.494 31.4588 30.662C31.1881 30.83 31.0528 31.0587 31.0528 31.348C31.0528 31.46 31.0668 31.558 31.0948 31.642C31.1321 31.7167 31.1928 31.7867 31.2768 31.852C31.3608 31.908 31.4401 31.9547 31.5148 31.992C31.5988 32.0293 31.7201 32.062 31.8788 32.09C32.0374 32.118 32.1728 32.1413 32.2848 32.16C32.3968 32.1693 32.5601 32.188 32.7748 32.216C33.1481 32.2627 33.4608 32.314 33.7128 32.37C33.9741 32.4167 34.2401 32.4913 34.5108 32.594C34.7908 32.6967 35.0101 32.8227 35.1688 32.972C35.3368 33.112 35.4721 33.2987 35.5748 33.532C35.6868 33.7653 35.7428 34.036 35.7428 34.344C35.7428 35.016 35.4581 35.5573 34.8888 35.968C34.3194 36.3787 33.5914 36.584 32.7048 36.584C31.7341 36.584 30.9501 36.3693 30.3528 35.94C29.7554 35.5013 29.4474 34.8993 29.4288 34.134ZM36.3998 34.134H37.8838C37.9118 34.5167 38.0844 34.8247 38.4018 35.058C38.7191 35.2913 39.1438 35.408 39.6758 35.408C40.1424 35.408 40.5158 35.324 40.7958 35.156C41.0851 34.988 41.2298 34.7593 41.2298 34.47C41.2298 34.2927 41.1971 34.148 41.1318 34.036C41.0664 33.9147 40.9451 33.8213 40.7678 33.756C40.5998 33.6907 40.4411 33.644 40.2918 33.616C40.1424 33.588 39.9044 33.5553 39.5778 33.518C39.5311 33.5087 39.4938 33.504 39.4658 33.504C38.9991 33.448 38.6118 33.3827 38.3038 33.308C37.9958 33.2333 37.6971 33.126 37.4078 32.986C37.1184 32.8367 36.8991 32.636 36.7498 32.384C36.6098 32.132 36.5398 31.8287 36.5398 31.474C36.5398 30.802 36.8104 30.2607 37.3518 29.85C37.9024 29.4393 38.6118 29.2387 39.4798 29.248C40.3758 29.248 41.1038 29.4487 41.6638 29.85C42.2331 30.2513 42.5411 30.8113 42.5878 31.53H41.1038C41.0571 31.194 40.8891 30.9233 40.5998 30.718C40.3104 30.5127 39.9464 30.41 39.5078 30.41C39.0598 30.41 38.7004 30.494 38.4298 30.662C38.1591 30.83 38.0238 31.0587 38.0238 31.348C38.0238 31.46 38.0378 31.558 38.0658 31.642C38.1031 31.7167 38.1638 31.7867 38.2478 31.852C38.3318 31.908 38.4111 31.9547 38.4858 31.992C38.5698 32.0293 38.6911 32.062 38.8498 32.09C39.0084 32.118 39.1438 32.1413 39.2558 32.16C39.3678 32.1693 39.5311 32.188 39.7458 32.216C40.1191 32.2627 40.4318 32.314 40.6838 32.37C40.9451 32.4167 41.2111 32.4913 41.4818 32.594C41.7618 32.6967 41.9811 32.8227 42.1398 32.972C42.3078 33.112 42.4431 33.2987 42.5458 33.532C42.6578 33.7653 42.7138 34.036 42.7138 34.344C42.7138 35.016 42.4291 35.5573 41.8598 35.968C41.2904 36.3787 40.5624 36.584 39.6758 36.584C38.7051 36.584 37.9211 36.3693 37.3238 35.94C36.7264 35.5013 36.4184 34.8993 36.3998 34.134ZM45.2435 28.072C45.0662 28.24 44.8468 28.324 44.5855 28.324C44.3242 28.324 44.1048 28.24 43.9275 28.072C43.7502 27.8947 43.6615 27.6753 43.6615 27.414C43.6615 27.1527 43.7502 26.938 43.9275 26.77C44.1048 26.5927 44.3242 26.504 44.5855 26.504C44.8468 26.504 45.0662 26.5927 45.2435 26.77C45.4208 26.938 45.5095 27.1527 45.5095 27.414C45.5095 27.6753 45.4208 27.8947 45.2435 28.072ZM43.8155 36.5V29.332H45.3275V36.5H43.8155ZM52.7737 35.576C52.1017 36.248 51.2197 36.584 50.1277 36.584C49.0357 36.584 48.1537 36.248 47.4817 35.576C46.8097 34.904 46.4737 34.0173 46.4737 32.916C46.4737 31.824 46.8097 30.942 47.4817 30.27C48.1537 29.5887 49.0357 29.248 50.1277 29.248C51.2197 29.248 52.1017 29.5887 52.7737 30.27C53.4457 30.942 53.7817 31.824 53.7817 32.916C53.7817 34.0173 53.4457 34.904 52.7737 35.576ZM48.6017 34.638C48.9843 35.0767 49.493 35.296 50.1277 35.296C50.7623 35.296 51.271 35.0767 51.6537 34.638C52.0457 34.19 52.2417 33.616 52.2417 32.916C52.2417 32.216 52.0457 31.6467 51.6537 31.208C51.271 30.76 50.7623 30.536 50.1277 30.536C49.493 30.536 48.9843 30.76 48.6017 31.208C48.219 31.6467 48.0277 32.216 48.0277 32.916C48.0277 33.616 48.219 34.19 48.6017 34.638ZM58.7075 29.248C59.5661 29.248 60.2615 29.5093 60.7935 30.032C61.3255 30.5547 61.5915 31.3807 61.5915 32.51V36.5H60.0655V32.636C60.0655 31.2453 59.4961 30.55 58.3575 30.55C57.7601 30.55 57.2888 30.76 56.9435 31.18C56.6075 31.5907 56.4395 32.16 56.4395 32.888V36.5H54.9275V29.332H56.2435L56.4115 30.27C56.9528 29.5887 57.7181 29.248 58.7075 29.248ZM66.5626 36.5V26.7H70.4266C71.4532 26.7 72.2746 26.9847 72.8906 27.554C73.5066 28.114 73.8146 28.87 73.8146 29.822C73.8146 30.7647 73.5066 31.5207 72.8906 32.09C72.2746 32.6593 71.4532 32.944 70.4266 32.944H68.1726V36.5H66.5626ZM70.3006 28.1H68.1726V31.544H70.2866C70.8652 31.544 71.3226 31.39 71.6586 31.082C72.0039 30.7647 72.1766 30.3447 72.1766 29.822C72.1766 29.29 72.0086 28.87 71.6726 28.562C71.3366 28.254 70.8792 28.1 70.3006 28.1ZM74.8288 36.5V26.7H76.3408V36.5H74.8288ZM84.3049 35.184H84.6129V36.5H83.8149C82.9376 36.5 82.4989 36.1173 82.4989 35.352C81.9576 36.1733 81.1689 36.584 80.1329 36.584C79.3303 36.584 78.6863 36.3973 78.2009 36.024C77.7156 35.6507 77.4729 35.1373 77.4729 34.484C77.4729 33.7467 77.7343 33.182 78.2569 32.79C78.7796 32.3887 79.5403 32.188 80.5389 32.188H82.3449V31.754C82.3449 31.3527 82.2049 31.04 81.9249 30.816C81.6543 30.5827 81.2716 30.466 80.7769 30.466C80.3383 30.466 79.9743 30.564 79.6849 30.76C79.3956 30.9467 79.2229 31.1987 79.1669 31.516H77.6829C77.7576 30.816 78.0749 30.2653 78.6349 29.864C79.2043 29.4533 79.9416 29.248 80.8469 29.248C81.8083 29.248 82.5456 29.472 83.0589 29.92C83.5816 30.368 83.8429 31.012 83.8429 31.852V34.722C83.8429 34.8993 83.8803 35.0207 83.9549 35.086C84.0296 35.1513 84.1463 35.184 84.3049 35.184ZM82.3449 33.56V33.308H80.4689C79.4983 33.308 79.0129 33.6673 79.0129 34.386C79.0129 34.694 79.1296 34.9413 79.3629 35.128C79.6056 35.3147 79.9323 35.408 80.3429 35.408C80.9683 35.408 81.4536 35.24 81.7989 34.904C82.1536 34.568 82.3356 34.12 82.3449 33.56ZM89.1465 29.248C90.0052 29.248 90.7005 29.5093 91.2325 30.032C91.7645 30.5547 92.0305 31.3807 92.0305 32.51V36.5H90.5045V32.636C90.5045 31.2453 89.9352 30.55 88.7965 30.55C88.1992 30.55 87.7279 30.76 87.3825 31.18C87.0465 31.5907 86.8785 32.16 86.8785 32.888V36.5H85.3665V29.332H86.6825L86.8505 30.27C87.3919 29.5887 88.1572 29.248 89.1465 29.248ZM97.0016 36.5V26.7H99.0876L102.224 34.414L105.304 26.7H107.348V36.5H105.794V29.29L102.854 36.5H101.496L98.5556 29.29V36.5H97.0016ZM114.952 35.576C114.28 36.248 113.398 36.584 112.306 36.584C111.214 36.584 110.332 36.248 109.66 35.576C108.988 34.904 108.652 34.0173 108.652 32.916C108.652 31.824 108.988 30.942 109.66 30.27C110.332 29.5887 111.214 29.248 112.306 29.248C113.398 29.248 114.28 29.5887 114.952 30.27C115.624 30.942 115.96 31.824 115.96 32.916C115.96 34.0173 115.624 34.904 114.952 35.576ZM110.78 34.638C111.163 35.0767 111.672 35.296 112.306 35.296C112.941 35.296 113.45 35.0767 113.832 34.638C114.224 34.19 114.42 33.616 114.42 32.916C114.42 32.216 114.224 31.6467 113.832 31.208C113.45 30.76 112.941 30.536 112.306 30.536C111.672 30.536 111.163 30.76 110.78 31.208C110.398 31.6467 110.206 32.216 110.206 32.916C110.206 33.616 110.398 34.19 110.78 34.638ZM122.552 30.326V26.7H124.064V36.5H122.748L122.566 35.422C121.997 36.1967 121.217 36.584 120.228 36.584C119.229 36.584 118.413 36.2573 117.778 35.604C117.153 34.9413 116.84 34.0453 116.84 32.916C116.84 31.824 117.157 30.942 117.792 30.27C118.436 29.5887 119.248 29.248 120.228 29.248C121.255 29.248 122.029 29.6073 122.552 30.326ZM118.968 34.652C119.351 35.0907 119.855 35.31 120.48 35.31C121.105 35.31 121.609 35.0907 121.992 34.652C122.375 34.2133 122.566 33.644 122.566 32.944C122.566 32.2253 122.375 31.6467 121.992 31.208C121.609 30.76 121.105 30.536 120.48 30.536C119.855 30.536 119.351 30.76 118.968 31.208C118.585 31.6467 118.394 32.216 118.394 32.916C118.394 33.6253 118.585 34.204 118.968 34.652ZM130.386 32.916V29.332H131.898V36.5H130.568L130.4 35.59C129.858 36.2527 129.121 36.584 128.188 36.584C127.348 36.584 126.666 36.3273 126.144 35.814C125.621 35.3007 125.36 34.47 125.36 33.322V29.332H126.872V33.154C126.872 34.5633 127.427 35.268 128.538 35.268C129.116 35.268 129.569 35.0627 129.896 34.652C130.222 34.232 130.386 33.6533 130.386 32.916ZM133.318 36.5V26.7H134.83V36.5H133.318ZM139.644 36.584C138.524 36.584 137.632 36.2527 136.97 35.59C136.307 34.918 135.976 34.0313 135.976 32.93C135.976 31.8287 136.298 30.942 136.942 30.27C137.595 29.5887 138.449 29.248 139.504 29.248C140.54 29.248 141.375 29.556 142.01 30.172C142.654 30.788 142.985 31.6187 143.004 32.664C143.004 32.8507 142.99 33.042 142.962 33.238H137.558V33.336C137.576 33.952 137.768 34.442 138.132 34.806C138.496 35.17 138.972 35.352 139.56 35.352C140.026 35.352 140.418 35.2447 140.736 35.03C141.053 34.806 141.263 34.4933 141.366 34.092H142.878C142.747 34.82 142.392 35.4173 141.814 35.884C141.235 36.3507 140.512 36.584 139.644 36.584ZM137.614 32.132H141.436C141.37 31.6093 141.165 31.2033 140.82 30.914C140.484 30.6153 140.05 30.466 139.518 30.466C139.023 30.466 138.594 30.62 138.23 30.928C137.875 31.2267 137.67 31.628 137.614 32.132Z" fill="#F4F4F4"/>
<path d="M217.398 4.87926L169.769 20.0072C168.24 20.4929 167.391 22.1177 167.873 23.6361L186.212 81.3732C186.694 82.8917 188.325 83.7288 189.854 83.2431L237.483 68.1151C239.012 67.6294 239.861 66.0047 239.379 64.4862L221.041 6.74912C220.558 5.23068 218.928 4.39351 217.398 4.87926Z" fill="white" fill-opacity="0.05"/>
<path d="M219.398 -0.120735L171.769 15.0072C170.24 15.4929 169.391 17.1177 169.873 18.6361L188.212 76.3732C188.694 77.8917 190.325 78.7288 191.854 78.2431L239.483 63.1151C241.012 62.6294 241.861 61.0047 241.379 59.4862L223.041 1.74912C222.558 0.230677 220.928 -0.606486 219.398 -0.120735Z" fill="#1A4B4B"/>
<path d="M192.346 14.5248L177.947 19.0983C177.029 19.3897 176.52 20.3645 176.809 21.2756C177.098 22.1867 178.077 22.6889 178.995 22.3975L193.394 17.8241C194.312 17.5326 194.821 16.5578 194.532 15.6468C194.242 14.7357 193.264 14.2334 192.346 14.5248Z" fill="#E5E9EB" fill-opacity="0.1"/>
<path d="M199.682 37.6196L185.283 42.193C184.365 42.4844 183.856 43.4593 184.145 44.3703C184.434 45.2814 185.413 45.7837 186.33 45.4922L200.73 40.9188C201.648 40.6274 202.157 39.6525 201.868 38.7415C201.578 37.8304 200.6 37.3281 199.682 37.6196Z" fill="#E5E9EB" fill-opacity="0.1"/>
<path d="M218.227 15.3851L181.674 26.9946C180.451 27.3832 179.772 28.683 180.158 29.8977L181.904 35.3964C182.29 36.6112 183.595 37.2809 184.818 36.8923L221.371 25.2828C222.595 24.8942 223.274 23.5944 222.888 22.3797L221.141 16.881C220.755 15.6662 219.451 14.9965 218.227 15.3851Z" stroke="#E5E9EB" stroke-opacity="0.1" stroke-width="1.1539"/>
<path d="M225.387 37.9304L188.834 49.5399C187.304 50.0257 186.455 51.6504 186.938 53.1688L188.335 57.5678C188.817 59.0862 190.448 59.9234 191.977 59.4376L228.53 47.8281C230.06 47.3424 230.909 45.7177 230.426 44.1992L229.029 39.8003C228.547 38.2818 226.916 37.4447 225.387 37.9304Z" fill="#E5E9EB" fill-opacity="0.05"/>
</g>
<defs>
<linearGradient id="paint0_linear_47137_23272" x1="0" y1="31.5" x2="245" y2="31.5" gradientUnits="userSpaceOnUse">
<stop stop-color="#008080"/>
<stop offset="1" stop-color="#001A1A"/>
</linearGradient>
<clipPath id="clip0_47137_23272">
<rect width="245" height="63" rx="5" fill="white"/>
</clipPath>
</defs>
</svg>
