<svg width="245" height="63" viewBox="0 0 245 63" fill="none" xmlns="http://www.w3.org/2000/svg">
<g clip-path="url(#clip0_47137_23310)">
<rect width="245" height="63" rx="5" fill="url(#paint0_linear_47137_23310)"/>
<path d="M14.896 36.5V26.7H16.506V31.754L21 26.7H22.96L19.362 30.816L23.226 36.5H21.28L18.2 32.006L16.506 33.91V36.5H14.896ZM24.0408 36.5V26.7H27.9048C28.9315 26.7 29.7528 26.9847 30.3688 27.554C30.9848 28.114 31.2928 28.87 31.2928 29.822C31.2928 30.7647 30.9848 31.5207 30.3688 32.09C29.7528 32.6593 28.9315 32.944 27.9048 32.944H25.6508V36.5H24.0408ZM27.7788 28.1H25.6508V31.544H27.7648C28.3435 31.544 28.8008 31.39 29.1368 31.082C29.4822 30.7647 29.6548 30.3447 29.6548 29.822C29.6548 29.29 29.4868 28.87 29.1508 28.562C28.8148 28.254 28.3575 28.1 27.7788 28.1ZM32.4611 36.5V26.7H34.0711V36.5H32.4611ZM39.3074 36.5V26.7H41.3934L44.5294 34.414L47.6094 26.7H49.6534V36.5H48.0994V29.29L45.1594 36.5H43.8014L40.8614 29.29V36.5H39.3074ZM57.258 35.576C56.586 36.248 55.704 36.584 54.612 36.584C53.52 36.584 52.638 36.248 51.966 35.576C51.294 34.904 50.958 34.0173 50.958 32.916C50.958 31.824 51.294 30.942 51.966 30.27C52.638 29.5887 53.52 29.248 54.612 29.248C55.704 29.248 56.586 29.5887 57.258 30.27C57.93 30.942 58.266 31.824 58.266 32.916C58.266 34.0173 57.93 34.904 57.258 35.576ZM53.086 34.638C53.4687 35.0767 53.9774 35.296 54.612 35.296C55.2467 35.296 55.7554 35.0767 56.138 34.638C56.53 34.19 56.726 33.616 56.726 32.916C56.726 32.216 56.53 31.6467 56.138 31.208C55.7554 30.76 55.2467 30.536 54.612 30.536C53.9774 30.536 53.4687 30.76 53.086 31.208C52.7034 31.6467 52.512 32.216 52.512 32.916C52.512 33.616 52.7034 34.19 53.086 34.638ZM64.8578 30.326V26.7H66.3698V36.5H65.0538L64.8718 35.422C64.3025 36.1967 63.5232 36.584 62.5338 36.584C61.5352 36.584 60.7185 36.2573 60.0838 35.604C59.4585 34.9413 59.1458 34.0453 59.1458 32.916C59.1458 31.824 59.4632 30.942 60.0978 30.27C60.7418 29.5887 61.5538 29.248 62.5338 29.248C63.5605 29.248 64.3352 29.6073 64.8578 30.326ZM61.2738 34.652C61.6565 35.0907 62.1605 35.31 62.7858 35.31C63.4112 35.31 63.9152 35.0907 64.2978 34.652C64.6805 34.2133 64.8718 33.644 64.8718 32.944C64.8718 32.2253 64.6805 31.6467 64.2978 31.208C63.9152 30.76 63.4112 30.536 62.7858 30.536C62.1605 30.536 61.6565 30.76 61.2738 31.208C60.8912 31.6467 60.6998 32.216 60.6998 32.916C60.6998 33.6253 60.8912 34.204 61.2738 34.652ZM72.6914 32.916V29.332H74.2034V36.5H72.8734L72.7054 35.59C72.1641 36.2527 71.4267 36.584 70.4934 36.584C69.6534 36.584 68.9721 36.3273 68.4494 35.814C67.9267 35.3007 67.6654 34.47 67.6654 33.322V29.332H69.1774V33.154C69.1774 34.5633 69.7327 35.268 70.8434 35.268C71.4221 35.268 71.8747 35.0627 72.2014 34.652C72.5281 34.232 72.6914 33.6533 72.6914 32.916ZM75.6234 36.5V26.7H77.1354V36.5H75.6234ZM81.9495 36.584C80.8295 36.584 79.9382 36.2527 79.2755 35.59C78.6129 34.918 78.2815 34.0313 78.2815 32.93C78.2815 31.8287 78.6035 30.942 79.2475 30.27C79.9009 29.5887 80.7549 29.248 81.8095 29.248C82.8455 29.248 83.6809 29.556 84.3155 30.172C84.9595 30.788 85.2909 31.6187 85.3095 32.664C85.3095 32.8507 85.2955 33.042 85.2675 33.238H79.8635V33.336C79.8822 33.952 80.0735 34.442 80.4375 34.806C80.8015 35.17 81.2775 35.352 81.8655 35.352C82.3322 35.352 82.7242 35.2447 83.0415 35.03C83.3589 34.806 83.5689 34.4933 83.6715 34.092H85.1835C85.0529 34.82 84.6982 35.4173 84.1195 35.884C83.5409 36.3507 82.8175 36.584 81.9495 36.584ZM79.9195 32.132H83.7415C83.6762 31.6093 83.4709 31.2033 83.1255 30.914C82.7895 30.6153 82.3555 30.466 81.8235 30.466C81.3289 30.466 80.8995 30.62 80.5355 30.928C80.1809 31.2267 79.9755 31.628 79.9195 32.132Z" fill="#F4F4F4"/>
<path d="M180.022 39.0082C182.195 40.8709 182.427 44.131 180.749 46.4492C180.552 46.7207 180.358 46.9938 180.165 47.2686C175.404 54.0706 172.029 61.744 170.233 69.8504C169.939 71.1796 168.661 72.0703 167.321 71.8278L164.647 71.3438C161.83 70.8341 159.942 68.1313 160.649 65.3576C163.01 56.0887 167.157 47.368 172.855 39.6856C174.56 37.3866 177.849 37.1451 180.022 39.0082Z" fill="#0E4040"/>
<path d="M169.935 65.2984C170.85 66.7338 170.622 69.1039 169.899 70.638C169.447 71.5971 168.507 72.1506 167.515 72.7827C164.786 73.8965 162.814 73.7446 161.327 71.4117C160.478 70.0795 160.294 69.2206 160.374 67.9548C160.461 66.5935 160.512 64.7413 161.848 63.8899C164.426 62.2468 168.449 62.9655 169.935 65.2984Z" fill="#E67E22" fill-opacity="0.1"/>
<path d="M231.962 83.5256L231.96 83.5288L231.96 83.5266L231.962 83.5256ZM229.72 9.97182C239.011 9.68886 248.272 11.1688 257.013 14.3334L253.483 24.0798C250.924 23.1533 248.303 22.3897 245.634 21.7985C240.504 20.6618 235.264 20.1728 230.035 20.3319L229.72 9.97182Z" fill="#0E4141"/>
<circle cx="229.695" cy="15.1625" r="5.18249" transform="rotate(-32.5074 229.695 15.1625)" fill="#0E4141"/>
<path d="M182.942 28.6426C192.633 19.9865 204.444 14.0507 217.173 11.4388L219.256 21.5928C211.705 23.1423 204.496 26.06 197.987 30.2077C195.105 32.0443 192.383 34.1077 189.846 36.3738L182.942 28.6426Z" fill="#0E4141"/>
<circle cx="217.359" cy="16.6337" r="5.18249" transform="rotate(-32.5074 217.359 16.6337)" fill="#0E4141"/>
<circle cx="186.556" cy="32.3295" r="5.18249" transform="rotate(-32.5074 186.556 32.3295)" fill="#0E4141"/>
<path d="M188.277 116.037C184.429 109.999 181.809 103.262 180.564 96.2116C179.32 89.1609 179.477 81.9341 181.026 74.944C182.575 67.9539 185.485 61.3372 189.591 55.4719C193.697 49.6065 198.917 44.6073 204.955 40.7597C210.993 36.912 217.73 34.2913 224.781 33.0471C231.831 31.803 239.058 31.9597 246.048 33.5085C253.038 35.0572 259.655 37.9676 265.52 42.0734C271.386 46.1792 276.385 51.4001 280.232 57.438" stroke="#A0A2B1" stroke-width="0.414599" stroke-dasharray="0.83 4.98"/>
<path d="M216.266 93.6356L208.21 80.9926L209.355 80.42L208.179 90.3255L207.676 90.0796L217.634 83.734L219.245 86.2626L207.721 93.6064L205.03 92.0492L206.771 77.5989L209.053 76.1444L219.064 91.8531L216.266 93.6356ZM228.668 85.9527C227.579 86.6466 226.447 87.0428 225.272 87.1413C224.088 87.2248 222.92 87.0044 221.768 86.48L222.267 83.7079C223.389 84.0206 224.301 84.1523 225.004 84.103C225.697 84.0388 226.357 83.8071 226.984 83.4078C227.551 83.0466 227.982 82.604 228.277 82.0801C228.563 81.5413 228.707 80.9775 228.71 80.3887C228.702 79.785 228.537 79.2295 228.214 78.7223C227.862 78.1703 227.426 77.7663 226.907 77.5102C226.377 77.2392 225.816 77.1147 225.221 77.1368C224.627 77.1589 224.054 77.3458 223.502 77.6975C223.204 77.8877 222.935 78.0907 222.695 78.3065C222.455 78.5224 222.198 78.8116 221.926 79.174C221.668 79.5269 221.361 80.0162 221.005 80.6419L218.42 79.6463L215.045 72.3262L223.705 66.8076L225.345 69.381L218.318 73.8586L218.511 72.729L220.938 78.1672L219.739 78.113C219.819 77.8104 219.993 77.4583 220.262 77.0565C220.545 76.6452 220.877 76.2448 221.258 75.8552C221.639 75.4655 222.046 75.1329 222.479 74.8572C223.448 74.2393 224.456 73.9117 225.502 73.8744C226.548 73.8371 227.547 74.0712 228.498 74.5766C229.44 75.0672 230.234 75.8196 230.881 76.8341C231.537 77.8634 231.877 78.9574 231.902 80.116C231.933 81.2502 231.673 82.3392 231.121 83.3828C230.56 84.4116 229.742 85.2682 228.668 85.9527ZM238.775 79.2918L239.154 57.0256L241.817 55.3287L241.326 77.6662L238.775 79.2918ZM235.359 71.117C234.658 71.5638 233.913 71.7766 233.123 71.7554C232.348 71.7246 231.6 71.4884 230.878 71.0465C230.171 70.5952 229.556 69.9593 229.033 69.1388C228.501 68.3034 228.179 67.4699 228.069 66.6383C227.964 65.7822 228.061 64.9966 228.36 64.2814C228.675 63.5567 229.19 62.9662 229.906 62.5099C230.607 62.0631 231.345 61.8551 232.12 61.8858C232.909 61.907 233.662 62.1507 234.379 62.617C235.101 63.0588 235.728 63.6975 236.261 64.5329C236.774 65.3384 237.083 66.1692 237.188 67.0253C237.284 67.8664 237.174 68.6493 236.86 69.374C236.546 70.0987 236.045 70.6797 235.359 71.117ZM234.17 69.2007C234.453 69.02 234.637 68.7662 234.723 68.4392C234.808 68.1122 234.801 67.7391 234.702 67.3199C234.593 66.8858 234.381 66.4226 234.068 65.9303C233.754 65.438 233.423 65.0509 233.076 64.7689C232.728 64.4869 232.388 64.3155 232.056 64.2547C231.724 64.1938 231.408 64.2585 231.11 64.4486C230.826 64.6292 230.639 64.8953 230.549 65.2467C230.463 65.5737 230.475 65.9543 230.584 66.3884C230.683 66.8076 230.89 67.2633 231.203 67.7556C231.517 68.2479 231.84 68.6398 232.173 68.9312C232.511 69.1983 232.854 69.3575 233.201 69.4088C233.548 69.4602 233.871 69.3908 234.17 69.2007ZM250.808 71.907C250.107 72.3538 249.362 72.5666 248.572 72.5454C247.797 72.5147 247.049 72.2784 246.327 71.8366C245.605 71.3947 244.982 70.7636 244.459 69.9431C243.927 69.1077 243.606 68.2742 243.495 67.4426C243.39 66.5865 243.495 65.7962 243.809 65.0715C244.123 64.3468 244.631 63.761 245.332 63.3142C246.048 62.8579 246.794 62.6451 247.569 62.6758C248.343 62.7065 249.089 62.955 249.806 63.4213C250.528 63.8631 251.155 64.5018 251.687 65.3372C252.201 66.1427 252.51 66.9735 252.615 67.8296C252.71 68.6707 252.601 69.4536 252.287 70.1783C251.987 70.8935 251.494 71.4697 250.808 71.907ZM249.61 70.0273C249.894 69.8467 250.078 69.5929 250.163 69.2659C250.254 68.9144 250.25 68.5291 250.15 68.1099C250.042 67.6758 249.83 67.2127 249.517 66.7204C249.212 66.243 248.887 65.8633 248.539 65.5813C248.192 65.2993 247.844 65.1327 247.497 65.0814C247.155 65.0056 246.842 65.058 246.559 65.2386C246.26 65.4288 246.061 65.6921 245.961 66.0286C245.876 66.3557 245.892 66.7437 246.01 67.1927C246.119 67.6268 246.326 68.0825 246.63 68.5599C246.944 69.0522 247.274 69.4393 247.622 69.7213C247.96 69.9883 248.3 70.1598 248.642 70.2355C248.989 70.2869 249.312 70.2175 249.61 70.0273Z" fill="#1D2145"/>
<g filter="url(#filter0_d_47137_23310)">
<circle cx="201.656" cy="22.4617" r="4.14599" transform="rotate(-32.5074 201.656 22.4617)" fill="white" fill-opacity="0.74" shape-rendering="crispEdges"/>
<circle cx="201.656" cy="22.4617" r="5.80439" transform="rotate(-32.5074 201.656 22.4617)" stroke="#0E4141" stroke-width="3.31679" shape-rendering="crispEdges"/>
</g>
</g>
<defs>
<filter id="filter0_d_47137_23310" x="190.047" y="14.998" width="23.2178" height="23.2192" filterUnits="userSpaceOnUse" color-interpolation-filters="sRGB">
<feFlood flood-opacity="0" result="BackgroundImageFix"/>
<feColorMatrix in="SourceAlpha" type="matrix" values="0 0 0 0 0 0 0 0 0 0 0 0 0 0 0 0 0 0 127 0" result="hardAlpha"/>
<feOffset dy="4.14599"/>
<feGaussianBlur stdDeviation="2.07299"/>
<feComposite in2="hardAlpha" operator="out"/>
<feColorMatrix type="matrix" values="0 0 0 0 0 0 0 0 0 0 0 0 0 0 0 0 0 0 0.1 0"/>
<feBlend mode="normal" in2="BackgroundImageFix" result="effect1_dropShadow_47137_23310"/>
<feBlend mode="normal" in="SourceGraphic" in2="effect1_dropShadow_47137_23310" result="shape"/>
</filter>
<linearGradient id="paint0_linear_47137_23310" x1="0" y1="31.5" x2="245" y2="31.5" gradientUnits="userSpaceOnUse">
<stop stop-color="#008080"/>
<stop offset="1" stop-color="#001A1A"/>
</linearGradient>
<clipPath id="clip0_47137_23310">
<rect width="245" height="63" rx="5" fill="white"/>
</clipPath>
</defs>
</svg>
