<svg width="379" height="441" viewBox="0 0 379 441" fill="none" xmlns="http://www.w3.org/2000/svg">
<g filter="url(#filter0_d_44586_59339)">
<rect x="39.0781" y="101.303" width="1272.89" height="236.277" rx="11.5822" transform="rotate(3.77291 39.0781 101.303)" fill="white"/>
<rect x="39.6179" y="101.919" width="1271.73" height="235.119" rx="11.0031" transform="rotate(3.77291 39.6179 101.919)" stroke="#E5E9EB" stroke-opacity="0.5" stroke-width="1.15822"/>
<path d="M83.9344 267.483L74.2264 266.843L74.4871 262.89C74.5218 262.363 74.6873 261.896 74.9835 261.488C75.271 261.071 75.6498 260.748 76.1199 260.519C76.5901 260.29 77.1025 260.193 77.6572 260.23C78.212 260.267 78.7073 260.429 79.1433 260.718C79.5793 261.007 79.9216 261.378 80.1703 261.83C80.4104 262.273 80.5131 262.758 80.4783 263.285L80.3164 265.74L84.0332 265.985L83.9344 267.483ZM78.8741 265.645L79.0341 263.218C79.0506 262.968 78.9962 262.737 78.8709 262.525C78.7364 262.312 78.5575 262.137 78.3343 262.002C78.1025 261.857 77.8432 261.774 77.5566 261.756C77.27 261.737 77.0069 261.784 76.7672 261.899C76.5281 262.003 76.3325 262.153 76.1804 262.347C76.0283 262.542 75.944 262.764 75.9276 263.013L75.7675 265.44L78.8741 265.645ZM84.8395 255.87C84.7901 256.619 84.5891 257.274 84.2363 257.836C83.8749 258.388 83.4059 258.812 82.8292 259.108C82.2531 259.395 81.6045 259.515 80.8833 259.467C80.3101 259.43 79.7938 259.303 79.3344 259.087C78.8751 258.871 78.4851 258.59 78.1643 258.243C77.8349 257.887 77.5927 257.477 77.4377 257.012C77.274 256.537 77.2098 256.031 77.2452 255.495C77.2763 255.023 77.3977 254.59 77.6095 254.195C77.812 253.8 78.0801 253.465 78.414 253.19C78.7485 252.905 79.1382 252.699 79.5831 252.57C80.0194 252.432 80.4914 252.384 80.9993 252.427L81.6087 252.481L81.2163 258.431L80.058 258.675L80.39 253.641L80.6121 253.864L80.2792 253.842C79.9723 253.85 79.6928 253.933 79.4409 254.093C79.1889 254.253 78.9847 254.463 78.8284 254.721C78.672 254.98 78.5834 255.267 78.5627 255.581C78.5298 256.081 78.5991 256.508 78.7707 256.863C78.9331 257.217 79.1934 257.494 79.5516 257.694C79.9006 257.894 80.3432 258.011 80.8795 258.046C81.388 258.08 81.8388 258.003 82.2319 257.815C82.6158 257.627 82.9222 257.345 83.1512 256.971C83.3802 256.596 83.5115 256.154 83.545 255.645C83.5688 255.285 83.5307 254.948 83.4306 254.635C83.3311 254.313 83.1361 253.961 82.8455 253.58L83.9055 252.925C84.1128 253.162 84.2889 253.447 84.434 253.782C84.5797 254.107 84.6915 254.453 84.7694 254.821C84.8387 255.178 84.8621 255.528 84.8395 255.87ZM85.0081 251.202L77.7271 250.722L77.8222 249.279L80.1105 249.43L79.5466 249.532C79.202 249.408 78.8943 249.216 78.6235 248.956C78.3534 248.688 78.1455 248.391 77.9998 248.065C77.8547 247.731 77.7934 247.393 77.816 247.05C77.8263 246.893 77.85 246.746 77.8869 246.609C77.9243 246.463 77.9643 246.35 78.0068 246.269L79.5354 246.746C79.4818 246.854 79.4366 246.976 79.3997 247.113C79.3542 247.24 79.3272 247.368 79.3187 247.498C79.3022 247.747 79.3372 247.991 79.4237 248.229C79.5015 248.457 79.6224 248.665 79.7865 248.852C79.942 249.029 80.1319 249.176 80.3563 249.293C80.5715 249.41 80.8132 249.477 81.0813 249.494L85.1032 249.76L85.0081 251.202ZM85.4245 244.887L77.3253 244.353C76.9092 244.326 76.5455 244.209 76.2341 244.003C75.9227 243.796 75.6852 243.525 75.5216 243.19C75.358 242.854 75.2903 242.473 75.3183 242.048C75.3378 241.752 75.4116 241.478 75.5396 241.227C75.6676 240.975 75.8293 240.777 76.0246 240.632L77.0882 241.19C76.9693 241.303 76.8726 241.431 76.7981 241.574C76.715 241.708 76.6692 241.84 76.6607 241.969C76.6479 242.163 76.6693 242.332 76.7248 242.475C76.7718 242.608 76.8578 242.711 76.983 242.785C77.0989 242.857 77.2447 242.899 77.4204 242.911L85.5196 243.445L85.4721 244.166C85.4641 244.286 85.4562 244.407 85.4483 244.527C85.4404 244.647 85.4324 244.767 85.4245 244.887ZM79.509 245.667L78.1915 245.58L78.4768 241.253L79.7944 241.34L79.509 245.667ZM86.0635 237.31C86.0165 238.022 85.8127 238.649 85.4519 239.192C85.0825 239.724 84.6051 240.134 84.0198 240.42C83.4252 240.706 82.7627 240.825 82.0323 240.777C81.3019 240.729 80.6653 240.524 80.1227 240.163C79.5708 239.802 79.1513 239.333 78.8643 238.757C78.5687 238.171 78.4443 237.522 78.4913 236.81C78.5376 236.108 78.7455 235.49 79.1149 234.957C79.4757 234.415 79.9534 234 80.548 233.714C81.1333 233.428 81.7912 233.309 82.5216 233.357C83.252 233.405 83.8931 233.61 84.445 233.971C84.9877 234.332 85.4068 234.806 85.7025 235.392C85.9895 235.968 86.1098 236.607 86.0635 237.31ZM84.7598 237.224C84.7885 236.789 84.7078 236.394 84.5177 236.038C84.3184 235.681 84.0402 235.393 83.6832 235.175C83.3169 234.956 82.8977 234.835 82.4255 234.813C81.9454 234.772 81.514 234.837 81.1313 235.007C80.7395 235.176 80.4259 235.424 80.1907 235.752C79.9555 236.08 79.8236 236.462 79.7949 236.896C79.7663 237.331 79.8513 237.731 80.05 238.097C80.2401 238.453 80.5183 238.741 80.8846 238.96C81.2416 239.179 81.6562 239.299 82.1283 239.321C82.5992 239.361 83.0306 239.297 83.4225 239.127C83.8051 238.958 84.1187 238.709 84.3631 238.382C84.599 238.044 84.7312 237.658 84.7598 237.224ZM86.2671 232.11L78.9861 231.63L79.0812 230.188L81.3695 230.339L80.8056 230.441C80.461 230.316 80.1533 230.124 79.8825 229.865C79.6124 229.596 79.4044 229.299 79.2588 228.974C79.1137 228.639 79.0524 228.301 79.075 227.959C79.0853 227.802 79.109 227.655 79.1458 227.518C79.1833 227.372 79.2233 227.258 79.2658 227.178L80.7944 227.654C80.7408 227.762 80.6956 227.885 80.6587 228.022C80.6132 228.149 80.5862 228.277 80.5776 228.406C80.5612 228.656 80.5962 228.9 80.6826 229.138C80.7605 229.366 80.8814 229.573 81.0455 229.76C81.201 229.938 81.3909 230.085 81.6153 230.202C81.8305 230.318 82.0722 230.385 82.3403 230.403L86.3622 230.668L86.2671 232.11ZM86.6295 226.614L79.3485 226.134L79.4437 224.692L80.9969 224.794L81.146 225.069C80.9105 224.979 80.6869 224.848 80.4754 224.676C80.2645 224.495 80.0834 224.283 79.9323 224.041C79.7724 223.789 79.6505 223.526 79.5665 223.251C79.4831 222.967 79.4508 222.682 79.4697 222.395C79.4972 221.979 79.5906 221.618 79.75 221.313C79.9094 221.008 80.1345 220.763 80.4253 220.578C80.7161 220.393 81.0726 220.268 81.4947 220.202L81.4246 220.421L81.1953 220.308C80.9893 220.192 80.7997 220.041 80.6263 219.853C80.4444 219.655 80.2871 219.436 80.1544 219.195C80.0217 218.954 79.9223 218.701 79.8561 218.437C79.79 218.173 79.7651 217.916 79.7816 217.666C79.8176 217.12 79.9581 216.679 80.2032 216.343C80.4488 215.997 80.804 215.751 81.2686 215.605C81.7338 215.45 82.3039 215.395 82.9789 215.439L87.3475 215.727L87.2523 217.17L82.967 216.887C82.5509 216.86 82.2098 216.893 81.9436 216.987C81.6688 217.071 81.4596 217.215 81.3161 217.419C81.1727 217.623 81.09 217.891 81.068 218.224C81.051 218.483 81.081 218.731 81.1582 218.968C81.2268 219.196 81.3342 219.398 81.4804 219.575C81.6266 219.752 81.803 219.893 82.0095 220C82.2069 220.106 82.4303 220.167 82.68 220.183L87.0347 220.47L86.9396 221.913L82.6264 221.628C82.2474 221.603 81.9247 221.638 81.6585 221.732C81.3831 221.825 81.169 221.973 81.0163 222.177C80.8636 222.38 80.7772 222.635 80.7571 222.94C80.74 223.198 80.7704 223.442 80.8482 223.67C80.9168 223.897 81.0242 224.099 81.1704 224.276C81.3073 224.452 81.4791 224.594 81.6856 224.7C81.8829 224.806 82.1018 224.867 82.3422 224.883L86.7246 225.172L86.6295 226.614ZM87.7924 211.092C87.7528 211.693 87.5501 212.232 87.1843 212.709C86.8192 213.177 86.3402 213.54 85.7475 213.798C85.1547 214.057 84.4978 214.162 83.7766 214.114C83.0462 214.066 82.4088 213.875 81.8643 213.542C81.3112 213.2 80.8896 212.763 80.5995 212.233C80.3101 211.694 80.1864 211.106 80.2284 210.468C80.2534 210.089 80.3318 209.746 80.4634 209.439C80.5951 209.131 80.7703 208.869 80.9889 208.651C81.199 208.424 81.4383 208.245 81.7069 208.114C81.9762 207.974 82.2599 207.895 82.5582 207.877L82.4262 208.189L80.5401 208.065L80.6352 206.622L87.9162 207.102L87.8211 208.545L86.0875 208.43L86.0124 208.091C86.2584 208.163 86.4958 208.295 86.7246 208.486C86.9447 208.668 87.1384 208.899 87.3057 209.179C87.4735 209.45 87.6022 209.751 87.6919 210.082C87.7821 210.404 87.8156 210.741 87.7924 211.092ZM86.4996 210.631C86.5283 210.196 86.4472 209.805 86.2565 209.458C86.0658 209.112 85.7917 208.833 85.434 208.624C85.0678 208.405 84.6442 208.28 84.1635 208.248C83.6919 208.217 83.2649 208.286 82.8822 208.456C82.5002 208.616 82.1919 208.856 81.9573 209.175C81.7227 209.494 81.5911 209.87 81.5624 210.305C81.5344 210.73 81.6157 211.116 81.8064 211.463C81.9977 211.801 82.2719 212.079 82.6289 212.297C82.9865 212.507 83.4011 212.627 83.8726 212.658C84.3534 212.69 84.7894 212.626 85.1807 212.466C85.5633 212.296 85.8716 212.056 86.1056 211.747C86.3402 211.428 86.4716 211.056 86.4996 210.631ZM88.0432 205.177L80.7622 204.697L80.8564 203.269L82.3542 203.367L82.5042 203.628C82.1867 203.514 81.9027 203.314 81.6522 203.029C81.3925 202.742 81.1917 202.409 81.0496 202.028C80.8984 201.646 80.8355 201.262 80.8611 200.873C80.8977 200.319 81.0392 199.864 81.2854 199.508C81.5225 199.153 81.869 198.897 82.325 198.741C82.781 198.586 83.3464 198.53 84.0214 198.574L88.4593 198.867L88.3651 200.296L84.0242 200.009C83.6082 199.982 83.2624 200.015 82.987 200.108C82.7023 200.201 82.4923 200.359 82.3568 200.582C82.2121 200.804 82.1378 201.087 82.1337 201.431C82.1154 201.708 82.1449 201.965 82.2221 202.203C82.29 202.439 82.3968 202.651 82.5424 202.837C82.6886 203.013 82.8647 203.16 83.0706 203.275C83.2679 203.381 83.4868 203.442 83.7272 203.458L88.1374 203.749L88.0907 204.456C88.0828 204.576 88.0749 204.697 88.067 204.817C88.059 204.937 88.0511 205.057 88.0432 205.177ZM88.9252 193.915C88.8806 194.59 88.6743 195.185 88.3061 195.699C87.9385 196.204 87.4577 196.595 86.8637 196.871C86.2704 197.139 85.6177 197.249 84.9058 197.202C84.1939 197.155 83.5614 196.96 83.0083 196.617C82.4558 196.265 82.0305 195.814 81.7324 195.265C81.4349 194.707 81.3084 194.091 81.3529 193.416C81.3956 192.769 81.5684 192.19 81.8713 191.681C82.1655 191.162 82.5483 190.778 83.0196 190.531L83.9383 191.386C83.7159 191.519 83.5092 191.696 83.3183 191.916C83.1274 192.135 82.9726 192.371 82.8538 192.623C82.735 192.875 82.6677 193.122 82.6518 193.362C82.6226 193.806 82.7073 194.211 82.906 194.577C83.0961 194.933 83.374 195.225 83.7397 195.454C84.1053 195.682 84.5239 195.812 84.9955 195.843C85.467 195.874 85.8993 195.796 86.2924 195.608C86.6762 195.42 86.9907 195.157 87.2358 194.821C87.4808 194.484 87.6174 194.103 87.6454 193.678C87.6619 193.428 87.6361 193.185 87.5682 192.948C87.5008 192.702 87.3912 192.463 87.2395 192.23C87.0877 191.997 86.898 191.776 86.6704 191.566L87.6933 190.839C88.0899 191.162 88.4039 191.61 88.6355 192.183C88.8676 192.746 88.9642 193.323 88.9252 193.915ZM89.4301 186.258C89.3807 187.006 89.1797 187.662 88.8269 188.223C88.4655 188.775 87.9965 189.199 87.4198 189.496C86.8437 189.783 86.1951 189.902 85.4739 189.855C84.9007 189.817 84.3844 189.69 83.925 189.474C83.4657 189.258 83.0757 188.977 82.7549 188.631C82.4255 188.275 82.1833 187.864 82.0283 187.399C81.8646 186.924 81.8004 186.418 81.8358 185.882C81.8669 185.411 81.9883 184.977 82.2001 184.583C82.4026 184.188 82.6707 183.852 83.0046 183.577C83.3391 183.293 83.7288 183.086 84.1737 182.958C84.61 182.82 85.082 182.772 85.59 182.815L86.1993 182.869L85.8069 188.818L84.6486 189.062L84.9806 184.028L85.2027 184.252L84.8698 184.23C84.5629 184.237 84.2834 184.321 84.0315 184.481C83.7795 184.641 83.5753 184.85 83.419 185.109C83.2626 185.368 83.174 185.655 83.1533 185.969C83.1204 186.468 83.1897 186.895 83.3613 187.25C83.5237 187.604 83.784 187.882 84.1422 188.082C84.4912 188.281 84.9339 188.399 85.4701 188.434C85.9786 188.467 86.4294 188.39 86.8225 188.203C87.2064 188.014 87.5128 187.733 87.7418 187.358C87.9708 186.983 88.1021 186.541 88.1356 186.033C88.1594 185.672 88.1213 185.335 88.0212 185.022C87.9217 184.7 87.7267 184.348 87.4361 183.967L88.4961 183.313C88.7034 183.549 88.8795 183.835 89.0246 184.169C89.1703 184.495 89.2821 184.841 89.36 185.208C89.4293 185.566 89.4527 185.915 89.4301 186.258ZM90.2104 174.425C90.1757 174.952 90.074 175.437 89.9055 175.881C89.7375 176.316 89.5027 176.709 89.2009 177.06C88.8905 177.402 88.5178 177.702 88.0829 177.962L86.9717 176.858C87.6488 176.447 88.1259 176.042 88.4029 175.643C88.68 175.243 88.8375 174.757 88.8753 174.183C88.8984 173.832 88.864 173.509 88.7719 173.216C88.6799 172.922 88.5423 172.685 88.3591 172.506C88.1759 172.327 87.9595 172.229 87.7099 172.212C87.5434 172.201 87.3844 172.219 87.2328 172.264C87.0813 172.31 86.9414 172.389 86.8133 172.501C86.6858 172.604 86.5651 172.745 86.4512 172.923C86.3379 173.092 86.2363 173.294 86.1465 173.53C86.0474 173.765 85.9598 174.038 85.8836 174.348C85.749 174.841 85.5863 175.267 85.3955 175.625C85.2046 175.984 84.9762 176.28 84.7101 176.513C84.444 176.747 84.1498 176.913 83.8275 177.012C83.496 177.111 83.1315 177.148 82.7339 177.121C82.3456 177.096 81.9905 176.989 81.6686 176.8C81.3473 176.603 81.0763 176.348 80.8554 176.036C80.6259 175.715 80.4598 175.346 80.3572 174.931C80.2454 174.515 80.205 174.071 80.2361 173.6C80.269 173.101 80.3639 172.647 80.5208 172.24C80.6776 171.832 80.8962 171.475 81.1764 171.169C81.4474 170.861 81.7748 170.614 82.1587 170.425L83.1293 171.548C82.812 171.713 82.544 171.904 82.3254 172.122C82.0975 172.339 81.9235 172.583 81.8035 172.854C81.6743 173.124 81.5993 173.416 81.5786 173.73C81.5548 174.091 81.5895 174.409 81.6828 174.684C81.7761 174.96 81.9192 175.183 82.1123 175.353C82.2967 175.514 82.5229 175.603 82.7911 175.621C82.9852 175.634 83.1679 175.609 83.3393 175.546C83.5013 175.482 83.6519 175.38 83.7911 175.241C83.9217 175.092 84.0464 174.891 84.1651 174.639C84.2747 174.386 84.3783 174.082 84.476 173.726C84.6205 173.225 84.7937 172.781 84.9956 172.395C85.1882 172.009 85.4093 171.684 85.6587 171.422C85.9081 171.16 86.1807 170.969 86.4765 170.849C86.7729 170.72 87.0875 170.667 87.4203 170.689C88.0398 170.73 88.5666 170.908 89.0007 171.225C89.4349 171.541 89.7594 171.971 89.9742 172.515C90.1799 173.058 90.2586 173.694 90.2104 174.425ZM90.7592 166.103C90.7147 166.778 90.5083 167.373 90.1401 167.887C89.7725 168.392 89.2918 168.783 88.6978 169.06C88.1044 169.327 87.4518 169.437 86.7399 169.39C86.028 169.343 85.3954 169.148 84.8423 168.805C84.2898 168.453 83.8645 168.003 83.5664 167.454C83.269 166.895 83.1425 166.279 83.187 165.604C83.2297 164.957 83.4024 164.378 83.7053 163.869C83.9996 163.35 84.3823 162.967 84.8537 162.719L85.7723 163.574C85.5499 163.708 85.3433 163.884 85.1524 164.104C84.9615 164.323 84.8066 164.559 84.6878 164.811C84.5691 165.064 84.5018 165.31 84.4859 165.55C84.4566 165.994 84.5414 166.399 84.7401 166.765C84.9302 167.121 85.2081 167.413 85.5737 167.642C85.9394 167.87 86.358 168 86.8295 168.031C87.301 168.062 87.7334 167.984 88.1264 167.796C88.5103 167.608 88.8248 167.345 89.0698 167.009C89.3149 166.672 89.4514 166.291 89.4795 165.866C89.496 165.616 89.4702 165.373 89.4022 165.136C89.3349 164.89 89.2253 164.651 89.0735 164.418C88.9217 164.185 88.732 163.964 88.5044 163.754L89.5274 163.027C89.9239 163.351 90.238 163.798 90.4695 164.371C90.7017 164.934 90.7982 165.512 90.7592 166.103ZM91.256 158.57C91.209 159.282 91.0051 159.91 90.6443 160.452C90.2749 160.985 89.7975 161.395 89.2122 161.681C88.6176 161.967 87.9551 162.086 87.2247 162.038C86.4943 161.989 85.8578 161.785 85.3152 161.424C84.7633 161.063 84.3438 160.594 84.0568 160.018C83.7611 159.432 83.6368 158.783 83.6837 158.071C83.7301 157.368 83.9379 156.751 84.3074 156.218C84.6682 155.675 85.1459 155.261 85.7404 154.975C86.3258 154.689 86.9836 154.57 87.714 154.618C88.4444 154.666 89.0856 154.871 89.6375 155.232C90.1801 155.593 90.5993 156.066 90.8949 156.652C91.182 157.228 91.3023 157.868 91.256 158.57ZM89.9523 158.485C89.981 158.05 89.9003 157.655 89.7102 157.299C89.5108 156.942 89.2326 156.654 88.8756 156.436C88.5093 156.216 88.0901 156.096 87.618 156.074C87.1378 156.033 86.7064 156.098 86.3238 156.267C85.9319 156.436 85.6184 156.685 85.3832 157.013C85.148 157.341 85.016 157.723 84.9874 158.157C84.9587 158.592 85.0438 158.992 85.2425 159.358C85.4326 159.714 85.7108 160.002 86.077 160.221C86.434 160.439 86.8486 160.56 87.3208 160.581C87.7917 160.622 88.2231 160.557 88.615 160.388C88.9976 160.218 89.3111 159.97 89.5556 159.642C89.7914 159.305 89.9237 158.919 89.9523 158.485ZM91.4595 153.371L84.1785 152.891L84.2737 151.449L86.562 151.6L85.9981 151.702C85.6535 151.577 85.3458 151.385 85.075 151.126C84.8048 150.857 84.5969 150.56 84.4512 150.235C84.3061 149.9 84.2449 149.562 84.2674 149.22C84.2778 149.063 84.3014 148.916 84.3383 148.779C84.3758 148.633 84.4158 148.519 84.4582 148.438L85.9868 148.915C85.9333 149.023 85.8881 149.146 85.8512 149.282C85.8057 149.409 85.7786 149.538 85.7701 149.667C85.7536 149.917 85.7886 150.16 85.8751 150.398C85.9529 150.626 86.0739 150.834 86.238 151.021C86.3934 151.199 86.5834 151.346 86.8078 151.463C87.023 151.579 87.2646 151.646 87.5328 151.664L91.5546 151.929L91.4595 153.371ZM92.166 144.77C92.1166 145.519 91.9156 146.174 91.5628 146.736C91.2014 147.288 90.7324 147.712 90.1557 148.008C89.5796 148.295 88.931 148.415 88.2098 148.367C87.6366 148.33 87.1203 148.203 86.6609 147.987C86.2016 147.771 85.8116 147.49 85.4908 147.143C85.1614 146.787 84.9192 146.377 84.7642 145.912C84.6005 145.436 84.5363 144.931 84.5717 144.395C84.6028 143.923 84.7242 143.49 84.936 143.095C85.1385 142.7 85.4066 142.365 85.7405 142.09C86.075 141.805 86.4647 141.599 86.9096 141.47C87.3459 141.332 87.8179 141.284 88.3258 141.327L88.9352 141.381L88.5428 147.331L87.3845 147.575L87.7165 142.54L87.9386 142.764L87.6057 142.742C87.2988 142.75 87.0193 142.833 86.7674 142.993C86.5154 143.153 86.3112 143.362 86.1549 143.621C85.9985 143.88 85.9099 144.167 85.8892 144.481C85.8563 144.981 85.9256 145.408 86.0972 145.763C86.2596 146.117 86.5199 146.394 86.8781 146.594C87.2271 146.794 87.6697 146.911 88.206 146.946C88.7145 146.98 89.1653 146.903 89.5584 146.715C89.9423 146.527 90.2487 146.245 90.4777 145.87C90.7067 145.496 90.838 145.054 90.8715 144.545C90.8953 144.185 90.8572 143.848 90.7571 143.535C90.6576 143.213 90.4626 142.861 90.172 142.48L91.232 141.825C91.4393 142.062 91.6154 142.347 91.7605 142.682C91.9062 143.007 92.018 143.353 92.0959 143.721C92.1652 144.078 92.1886 144.428 92.166 144.77Z" fill="#667085"/>
<line x1="144.661" y1="145.989" x2="1237.96" y2="218.087" stroke="#EEF0F2" stroke-width="1.15822" stroke-linecap="round"/>
<line x1="142.221" y1="182.971" x2="1235.53" y2="255.069" stroke="#EEF0F2" stroke-width="1.15822" stroke-linecap="round"/>
<line x1="139.782" y1="219.954" x2="1233.09" y2="292.052" stroke="#EEF0F2" stroke-width="1.15822" stroke-linecap="round"/>
<line x1="137.343" y1="256.937" x2="1230.65" y2="329.035" stroke="#EEF0F2" stroke-width="1.15822" stroke-linecap="round"/>
<line x1="134.905" y1="293.92" x2="1228.21" y2="366.018" stroke="#EEF0F2" stroke-width="1.15822" stroke-linecap="round"/>
<path d="M104.681 147.415L105.201 139.538L105.688 139.96L103.707 140.846L103.391 139.516L106.076 138.3L106.797 138.348L106.193 147.515L104.681 147.415ZM103.097 147.993L103.192 146.551L107.824 146.856L107.729 148.299L103.097 147.993ZM112.685 148.765C111.945 148.716 111.321 148.471 110.811 148.028C110.311 147.587 109.942 146.987 109.704 146.228C109.467 145.46 109.382 144.563 109.45 143.537C109.517 142.511 109.719 141.637 110.054 140.916C110.39 140.186 110.835 139.635 111.389 139.263C111.952 138.892 112.604 138.731 113.343 138.779C114.083 138.828 114.707 139.074 115.217 139.516C115.726 139.958 116.1 140.563 116.337 141.331C116.575 142.089 116.66 142.982 116.592 144.008C116.524 145.034 116.323 145.912 115.987 146.642C115.651 147.363 115.202 147.909 114.639 148.281C114.076 148.652 113.424 148.814 112.685 148.765ZM112.774 147.406C113.449 147.45 113.992 147.17 114.404 146.566C114.816 145.952 115.06 145.068 115.136 143.912C115.212 142.756 115.086 141.852 114.758 141.199C114.43 140.536 113.929 140.183 113.254 140.139C112.579 140.094 112.035 140.379 111.623 140.992C111.212 141.596 110.968 142.476 110.892 143.632C110.816 144.788 110.942 145.697 111.269 146.359C111.598 147.012 112.099 147.361 112.774 147.406ZM121.039 149.316C120.3 149.267 119.675 149.021 119.166 148.579C118.666 148.138 118.297 147.538 118.059 146.779C117.822 146.011 117.737 145.114 117.804 144.088C117.872 143.062 118.074 142.188 118.409 141.467C118.745 140.737 119.19 140.186 119.744 139.814C120.307 139.443 120.958 139.282 121.698 139.33C122.438 139.379 123.062 139.625 123.572 140.067C124.081 140.509 124.454 141.114 124.692 141.882C124.929 142.64 125.014 143.533 124.947 144.559C124.879 145.585 124.677 146.463 124.341 147.193C124.006 147.914 123.557 148.46 122.994 148.832C122.43 149.203 121.779 149.364 121.039 149.316ZM121.129 147.957C121.804 148.001 122.347 147.721 122.758 147.117C123.17 146.503 123.414 145.619 123.491 144.463C123.567 143.307 123.441 142.403 123.112 141.75C122.785 141.087 122.283 140.734 121.608 140.689C120.933 140.645 120.39 140.929 119.978 141.543C119.567 142.147 119.323 143.027 119.247 144.183C119.171 145.339 119.296 146.248 119.624 146.91C119.952 147.563 120.454 147.912 121.129 147.957ZM126.99 149.569L134.052 140.284L135.48 140.379L128.349 149.658L126.99 149.569ZM128.179 145.065C127.763 145.037 127.4 144.902 127.091 144.659C126.792 144.407 126.563 144.081 126.403 143.68C126.254 143.271 126.196 142.812 126.23 142.304C126.263 141.795 126.381 141.348 126.583 140.962C126.794 140.567 127.069 140.27 127.408 140.069C127.747 139.859 128.124 139.768 128.54 139.795C128.956 139.823 129.314 139.963 129.613 140.214C129.922 140.458 130.151 140.789 130.3 141.207C130.458 141.617 130.521 142.076 130.487 142.584C130.455 143.074 130.333 143.512 130.122 143.897C129.911 144.283 129.636 144.58 129.297 144.79C128.958 145 128.585 145.091 128.179 145.065ZM128.261 144.025C128.455 144.038 128.626 143.984 128.773 143.864C128.93 143.744 129.052 143.572 129.142 143.345C129.241 143.11 129.301 142.831 129.322 142.507C129.344 142.184 129.321 141.899 129.253 141.653C129.195 141.408 129.096 141.216 128.957 141.077C128.827 140.938 128.66 140.862 128.457 140.849C128.263 140.836 128.087 140.894 127.93 141.023C127.773 141.142 127.646 141.32 127.547 141.555C127.457 141.781 127.402 142.056 127.381 142.379C127.359 142.703 127.378 142.987 127.436 143.233C127.504 143.469 127.608 143.657 127.747 143.796C127.886 143.936 128.058 144.012 128.261 144.025ZM134.013 150.157C133.597 150.13 133.235 149.99 132.927 149.737C132.628 149.486 132.398 149.159 132.239 148.759C132.08 148.349 132.017 147.895 132.05 147.395C132.084 146.887 132.202 146.44 132.404 146.054C132.615 145.659 132.89 145.361 133.228 145.161C133.567 144.951 133.945 144.86 134.361 144.887C134.777 144.915 135.134 145.054 135.434 145.306C135.743 145.549 135.971 145.88 136.12 146.299C136.279 146.708 136.342 147.168 136.308 147.676C136.276 148.166 136.154 148.604 135.943 148.989C135.732 149.375 135.457 149.672 135.118 149.882C134.788 150.092 134.42 150.184 134.013 150.157ZM134.081 149.131C134.275 149.144 134.45 149.09 134.607 148.971C134.764 148.842 134.887 148.664 134.976 148.438C135.075 148.203 135.136 147.924 135.157 147.6C135.178 147.277 135.155 146.996 135.087 146.76C135.029 146.515 134.93 146.322 134.791 146.183C134.652 146.035 134.485 145.954 134.291 145.941C134.088 145.928 133.908 145.981 133.752 146.101C133.595 146.22 133.467 146.398 133.368 146.633C133.278 146.868 133.223 147.148 133.201 147.471C133.18 147.795 133.199 148.079 133.257 148.325C133.325 148.561 133.428 148.754 133.567 148.902C133.706 149.041 133.878 149.118 134.081 149.131Z" fill="#667085"/>
<path d="M110.552 184.135C109.951 184.095 109.409 183.934 108.926 183.652C108.453 183.36 108.083 182.992 107.815 182.548C107.547 182.103 107.43 181.621 107.465 181.104C107.483 180.817 107.538 180.551 107.629 180.307C107.729 180.053 107.865 179.825 108.036 179.623C108.216 179.421 108.428 179.24 108.67 179.08C108.913 178.92 109.192 178.78 109.506 178.662L109.404 178.947C109.169 178.839 108.959 178.714 108.774 178.571C108.598 178.421 108.446 178.253 108.319 178.068C108.192 177.883 108.098 177.687 108.038 177.478C107.987 177.271 107.968 177.056 107.983 176.834C108.015 176.344 108.179 175.909 108.473 175.529C108.776 175.15 109.163 174.855 109.632 174.644C110.11 174.434 110.631 174.348 111.195 174.385C111.759 174.422 112.259 174.576 112.697 174.846C113.143 175.117 113.487 175.46 113.729 175.876C113.98 176.292 114.09 176.744 114.057 177.234C114.043 177.456 113.992 177.667 113.904 177.865C113.826 178.064 113.717 178.243 113.576 178.401C113.436 178.559 113.26 178.7 113.047 178.825C112.844 178.951 112.614 179.057 112.358 179.142L112.331 178.904C112.602 179.033 112.842 179.193 113.052 179.383C113.272 179.574 113.457 179.786 113.609 180.019C113.761 180.251 113.87 180.495 113.937 180.751C114.013 181.006 114.042 181.268 114.024 181.536C113.99 182.063 113.81 182.53 113.486 182.936C113.162 183.341 112.743 183.653 112.227 183.869C111.72 184.087 111.162 184.175 110.552 184.135ZM110.643 182.748C110.985 182.771 111.295 182.726 111.571 182.614C111.857 182.503 112.086 182.342 112.258 182.13C112.43 181.919 112.525 181.67 112.544 181.383C112.564 181.078 112.503 180.805 112.361 180.563C112.22 180.312 112.015 180.108 111.747 179.951C111.488 179.795 111.188 179.706 110.845 179.683C110.503 179.661 110.194 179.71 109.916 179.831C109.639 179.952 109.414 180.127 109.241 180.357C109.068 180.578 108.972 180.841 108.952 181.146C108.934 181.423 108.996 181.678 109.138 181.911C109.281 182.143 109.482 182.337 109.741 182.494C110 182.641 110.301 182.725 110.643 182.748ZM110.933 178.352C111.229 178.371 111.496 178.333 111.735 178.237C111.982 178.142 112.177 178.007 112.319 177.83C112.47 177.645 112.554 177.428 112.571 177.178C112.587 176.929 112.532 176.702 112.406 176.499C112.29 176.296 112.115 176.131 111.882 176.005C111.659 175.869 111.399 175.792 111.103 175.772C110.807 175.753 110.535 175.795 110.287 175.899C110.049 175.995 109.854 176.135 109.702 176.32C109.56 176.506 109.481 176.724 109.464 176.973C109.448 177.223 109.498 177.449 109.614 177.652C109.741 177.846 109.916 178.006 110.14 178.132C110.373 178.259 110.637 178.332 110.933 178.352ZM118.702 184.77C117.962 184.721 117.337 184.476 116.828 184.033C116.328 183.592 115.959 182.992 115.721 182.233C115.484 181.465 115.399 180.568 115.467 179.542C115.534 178.516 115.736 177.642 116.071 176.922C116.407 176.192 116.852 175.641 117.406 175.268C117.969 174.897 118.62 174.736 119.36 174.784C120.1 174.833 120.724 175.079 121.234 175.521C121.743 175.963 122.116 176.568 122.354 177.336C122.591 178.094 122.677 178.987 122.609 180.013C122.541 181.039 122.339 181.918 122.003 182.648C121.668 183.368 121.219 183.914 120.656 184.286C120.093 184.657 119.441 184.819 118.702 184.77ZM118.791 183.411C119.466 183.455 120.009 183.175 120.421 182.571C120.832 181.957 121.076 181.073 121.153 179.917C121.229 178.761 121.103 177.857 120.774 177.204C120.447 176.542 119.945 176.188 119.27 176.144C118.595 176.099 118.052 176.384 117.64 176.997C117.229 177.601 116.985 178.481 116.909 179.637C116.833 180.793 116.958 181.702 117.286 182.364C117.615 183.017 118.116 183.366 118.791 183.411ZM124.652 185.023L131.714 175.738L133.142 175.833L126.011 185.113L124.652 185.023ZM125.841 180.519C125.425 180.491 125.062 180.356 124.753 180.113C124.454 179.861 124.225 179.535 124.066 179.134C123.916 178.725 123.858 178.266 123.892 177.758C123.925 177.249 124.043 176.802 124.245 176.416C124.457 176.021 124.732 175.724 125.07 175.523C125.409 175.313 125.786 175.222 126.202 175.25C126.618 175.277 126.976 175.417 127.275 175.669C127.584 175.912 127.813 176.243 127.962 176.661C128.12 177.071 128.183 177.53 128.149 178.038C128.117 178.528 127.995 178.966 127.784 179.352C127.573 179.737 127.298 180.034 126.959 180.244C126.62 180.454 126.248 180.546 125.841 180.519ZM125.923 179.479C126.117 179.492 126.288 179.439 126.435 179.318C126.592 179.199 126.715 179.026 126.804 178.799C126.903 178.564 126.963 178.285 126.984 177.962C127.006 177.638 126.983 177.353 126.915 177.107C126.857 176.862 126.759 176.67 126.619 176.531C126.489 176.392 126.322 176.316 126.119 176.303C125.925 176.29 125.749 176.348 125.592 176.477C125.435 176.597 125.308 176.774 125.209 177.009C125.119 177.235 125.064 177.51 125.043 177.834C125.021 178.157 125.04 178.442 125.098 178.687C125.166 178.923 125.27 179.111 125.409 179.251C125.548 179.39 125.72 179.466 125.923 179.479ZM131.675 185.611C131.259 185.584 130.897 185.444 130.589 185.192C130.29 184.94 130.06 184.614 129.901 184.213C129.742 183.803 129.68 183.349 129.713 182.849C129.746 182.341 129.864 181.894 130.066 181.508C130.277 181.113 130.552 180.816 130.891 180.615C131.229 180.405 131.607 180.314 132.023 180.341C132.439 180.369 132.797 180.508 133.096 180.76C133.405 181.004 133.634 181.334 133.782 181.753C133.941 182.163 134.004 182.622 133.97 183.13C133.938 183.62 133.816 184.058 133.605 184.443C133.394 184.829 133.119 185.126 132.78 185.336C132.45 185.546 132.082 185.638 131.675 185.611ZM131.743 184.585C131.937 184.598 132.113 184.545 132.269 184.425C132.426 184.296 132.549 184.118 132.638 183.892C132.738 183.657 132.798 183.378 132.819 183.054C132.84 182.731 132.817 182.451 132.749 182.214C132.691 181.969 132.592 181.776 132.453 181.637C132.314 181.489 132.148 181.408 131.953 181.395C131.75 181.382 131.57 181.435 131.414 181.555C131.257 181.674 131.129 181.852 131.03 182.087C130.941 182.322 130.885 182.602 130.864 182.925C130.842 183.249 130.861 183.533 130.919 183.779C130.987 184.015 131.09 184.208 131.229 184.356C131.368 184.495 131.54 184.572 131.743 184.585Z" fill="#667085"/>
<path d="M108.445 219.563C107.964 219.532 107.521 219.419 107.116 219.225C106.721 219.023 106.381 218.759 106.096 218.433C105.82 218.109 105.608 217.733 105.46 217.305C105.321 216.878 105.268 216.415 105.301 215.916C105.317 215.666 105.368 215.391 105.453 215.09C105.547 214.78 105.676 214.445 105.839 214.085C106.012 213.725 106.213 213.348 106.443 212.954C106.674 212.552 106.938 212.137 107.236 211.711L108.638 209.659L110.095 209.755L110.141 209.897L108.446 212.362C108.138 212.816 107.859 213.247 107.609 213.658C107.368 214.069 107.161 214.46 106.988 214.829C106.816 215.189 106.683 215.519 106.589 215.819L106.35 214.369C106.545 214.094 106.751 213.857 106.968 213.658C107.186 213.449 107.415 213.279 107.656 213.146C107.907 213.014 108.163 212.919 108.427 212.862C108.691 212.806 108.962 212.786 109.239 212.805C109.775 212.84 110.255 213.02 110.68 213.345C111.114 213.662 111.449 214.069 111.686 214.568C111.931 215.067 112.035 215.603 111.997 216.176C111.952 216.87 111.767 217.48 111.445 218.006C111.132 218.524 110.716 218.924 110.196 219.205C109.676 219.487 109.092 219.606 108.445 219.563ZM108.536 218.177C108.897 218.2 109.221 218.138 109.51 217.99C109.808 217.833 110.046 217.607 110.223 217.313C110.41 217.009 110.517 216.659 110.543 216.261C110.566 215.919 110.504 215.595 110.357 215.288C110.21 214.972 110.005 214.712 109.739 214.509C109.474 214.306 109.171 214.193 108.828 214.17C108.449 214.145 108.106 214.211 107.799 214.367C107.491 214.523 107.245 214.744 107.059 215.029C106.873 215.314 106.768 215.636 106.744 215.997C106.718 216.385 106.778 216.742 106.924 217.067C107.07 217.383 107.281 217.643 107.555 217.847C107.83 218.042 108.157 218.152 108.536 218.177ZM116.364 220.225C115.624 220.176 114.999 219.931 114.49 219.488C113.99 219.047 113.621 218.447 113.383 217.688C113.146 216.92 113.061 216.023 113.129 214.997C113.196 213.971 113.398 213.097 113.733 212.377C114.069 211.647 114.514 211.096 115.068 210.724C115.631 210.352 116.282 210.191 117.022 210.24C117.762 210.288 118.386 210.534 118.896 210.976C119.405 211.418 119.779 212.023 120.016 212.791C120.254 213.549 120.339 214.442 120.271 215.468C120.203 216.494 120.001 217.373 119.665 218.103C119.33 218.823 118.881 219.369 118.318 219.741C117.755 220.112 117.103 220.274 116.364 220.225ZM116.453 218.866C117.128 218.91 117.671 218.63 118.083 218.026C118.495 217.412 118.739 216.528 118.815 215.372C118.891 214.216 118.765 213.312 118.437 212.659C118.109 211.997 117.607 211.643 116.933 211.599C116.258 211.554 115.714 211.839 115.302 212.452C114.891 213.057 114.647 213.937 114.571 215.092C114.495 216.248 114.621 217.157 114.948 217.819C115.277 218.472 115.778 218.821 116.453 218.866ZM122.314 220.478L129.376 211.193L130.804 211.288L123.674 220.568L122.314 220.478ZM123.503 215.974C123.087 215.946 122.724 215.811 122.415 215.568C122.116 215.316 121.887 214.99 121.728 214.589C121.578 214.18 121.52 213.721 121.554 213.213C121.587 212.704 121.705 212.257 121.907 211.871C122.119 211.476 122.394 211.179 122.732 210.978C123.071 210.768 123.448 210.677 123.864 210.705C124.28 210.732 124.638 210.872 124.937 211.124C125.246 211.367 125.475 211.698 125.624 212.116C125.782 212.526 125.845 212.985 125.811 213.493C125.779 213.984 125.657 214.421 125.446 214.807C125.235 215.192 124.96 215.49 124.621 215.699C124.283 215.909 123.91 216.001 123.503 215.974ZM123.585 214.935C123.779 214.947 123.95 214.894 124.097 214.773C124.254 214.654 124.377 214.481 124.466 214.254C124.565 214.02 124.625 213.74 124.647 213.417C124.668 213.093 124.645 212.808 124.577 212.562C124.519 212.317 124.421 212.125 124.281 211.986C124.151 211.847 123.984 211.771 123.781 211.758C123.587 211.745 123.411 211.803 123.254 211.932C123.098 212.052 122.97 212.229 122.871 212.464C122.782 212.69 122.726 212.965 122.705 213.289C122.684 213.612 122.702 213.897 122.76 214.142C122.828 214.379 122.932 214.566 123.071 214.706C123.211 214.845 123.382 214.921 123.585 214.935ZM129.338 221.067C128.921 221.039 128.559 220.899 128.251 220.647C127.952 220.395 127.723 220.069 127.563 219.668C127.405 219.258 127.342 218.804 127.375 218.305C127.408 217.796 127.526 217.349 127.728 216.963C127.939 216.568 128.214 216.271 128.553 216.07C128.892 215.86 129.269 215.769 129.685 215.796C130.101 215.824 130.459 215.964 130.758 216.215C131.067 216.459 131.296 216.789 131.445 217.208C131.603 217.618 131.666 218.077 131.632 218.585C131.6 219.075 131.478 219.513 131.267 219.898C131.056 220.284 130.781 220.581 130.442 220.791C130.113 221.002 129.744 221.093 129.338 221.067ZM129.405 220.04C129.599 220.053 129.775 220 129.931 219.88C130.088 219.751 130.211 219.573 130.301 219.347C130.4 219.112 130.46 218.833 130.481 218.509C130.503 218.186 130.479 217.906 130.411 217.669C130.353 217.424 130.254 217.232 130.115 217.092C129.976 216.944 129.81 216.863 129.616 216.85C129.412 216.837 129.232 216.89 129.076 217.01C128.919 217.13 128.791 217.307 128.692 217.542C128.603 217.777 128.547 218.057 128.526 218.38C128.504 218.704 128.523 218.988 128.581 219.234C128.649 219.47 128.752 219.663 128.891 219.811C129.03 219.951 129.202 220.027 129.405 220.04Z" fill="#667085"/>
<path d="M106.184 255.023L106.7 247.201L107.041 247.307L103.594 250.993L103.549 250.823L109.582 251.221L109.492 252.594L102.53 252.135L101.974 250.845L107.115 245.334L108.266 245.41L107.626 255.118L106.184 255.023ZM114.026 255.679C113.286 255.63 112.662 255.385 112.152 254.943C111.652 254.501 111.283 253.901 111.045 253.142C110.808 252.375 110.723 251.478 110.791 250.451C110.858 249.425 111.06 248.551 111.395 247.831C111.731 247.101 112.176 246.55 112.73 246.178C113.293 245.806 113.945 245.645 114.684 245.694C115.424 245.742 116.048 245.988 116.558 246.43C117.067 246.872 117.441 247.477 117.678 248.245C117.916 249.004 118.001 249.896 117.933 250.922C117.865 251.949 117.664 252.827 117.328 253.557C116.992 254.277 116.543 254.824 115.98 255.195C115.417 255.566 114.765 255.728 114.026 255.679ZM114.115 254.32C114.79 254.364 115.333 254.084 115.745 253.48C116.157 252.867 116.401 251.982 116.477 250.826C116.553 249.671 116.427 248.766 116.099 248.113C115.771 247.451 115.27 247.097 114.595 247.053C113.92 247.008 113.376 247.293 112.964 247.906C112.553 248.511 112.309 249.391 112.233 250.546C112.157 251.702 112.283 252.611 112.61 253.273C112.939 253.927 113.44 254.275 114.115 254.32ZM119.977 255.932L127.038 246.648L128.466 246.742L121.336 256.022L119.977 255.932ZM121.165 251.428C120.749 251.4 120.386 251.265 120.077 251.022C119.778 250.77 119.549 250.444 119.39 250.043C119.24 249.634 119.182 249.175 119.216 248.667C119.249 248.158 119.367 247.711 119.569 247.325C119.781 246.93 120.056 246.633 120.394 246.432C120.733 246.223 121.11 246.131 121.526 246.159C121.942 246.186 122.3 246.326 122.599 246.578C122.908 246.821 123.137 247.152 123.286 247.57C123.445 247.98 123.507 248.439 123.474 248.948C123.441 249.438 123.32 249.875 123.108 250.261C122.897 250.646 122.622 250.944 122.283 251.153C121.945 251.363 121.572 251.455 121.165 251.428ZM121.247 250.389C121.442 250.401 121.612 250.348 121.76 250.227C121.916 250.108 122.039 249.935 122.128 249.709C122.227 249.474 122.287 249.194 122.309 248.871C122.33 248.547 122.307 248.262 122.24 248.017C122.181 247.771 122.083 247.579 121.943 247.44C121.813 247.301 121.646 247.225 121.443 247.212C121.249 247.199 121.073 247.257 120.916 247.386C120.76 247.506 120.632 247.683 120.533 247.918C120.444 248.144 120.388 248.419 120.367 248.743C120.346 249.066 120.364 249.351 120.422 249.596C120.49 249.833 120.594 250.021 120.733 250.16C120.873 250.299 121.044 250.375 121.247 250.389ZM127 256.521C126.584 256.493 126.221 256.353 125.913 256.101C125.614 255.849 125.385 255.523 125.225 255.122C125.067 254.712 125.004 254.258 125.037 253.759C125.07 253.25 125.188 252.803 125.39 252.417C125.602 252.022 125.877 251.725 126.215 251.524C126.554 251.314 126.931 251.223 127.347 251.251C127.763 251.278 128.121 251.418 128.42 251.67C128.729 251.913 128.958 252.244 129.107 252.662C129.265 253.072 129.328 253.531 129.294 254.039C129.262 254.529 129.14 254.967 128.929 255.352C128.718 255.738 128.443 256.035 128.104 256.245C127.775 256.456 127.406 256.547 127 256.521ZM127.067 255.494C127.261 255.507 127.437 255.454 127.593 255.334C127.75 255.205 127.873 255.028 127.963 254.801C128.062 254.566 128.122 254.287 128.143 253.963C128.165 253.64 128.141 253.36 128.073 253.123C128.015 252.878 127.916 252.686 127.777 252.546C127.638 252.398 127.472 252.317 127.278 252.305C127.074 252.291 126.894 252.344 126.738 252.464C126.581 252.584 126.454 252.761 126.355 252.996C126.265 253.231 126.209 253.511 126.188 253.835C126.166 254.158 126.185 254.443 126.243 254.688C126.311 254.924 126.414 255.117 126.553 255.265C126.692 255.405 126.864 255.481 127.067 255.494Z" fill="#667085"/>
<path d="M101.256 290.307L100.873 289.139L104.062 285.993C104.23 285.837 104.404 285.658 104.585 285.456C104.775 285.246 104.956 285.03 105.129 284.81C105.301 284.589 105.441 284.371 105.548 284.155C105.665 283.93 105.73 283.716 105.743 283.513C105.763 283.217 105.719 282.964 105.613 282.752C105.516 282.532 105.36 282.359 105.145 282.234C104.94 282.109 104.685 282.036 104.38 282.016C104.112 281.999 103.843 282.06 103.574 282.2C103.304 282.34 103.054 282.546 102.822 282.819C102.591 283.092 102.402 283.413 102.257 283.785L101.154 282.987C101.346 282.462 101.612 282.019 101.952 281.661C102.301 281.294 102.704 281.024 103.161 280.849C103.628 280.676 104.124 280.607 104.651 280.641C105.197 280.677 105.675 280.825 106.085 281.084C106.495 281.334 106.807 281.67 107.021 282.093C107.235 282.506 107.325 282.977 107.29 283.504C107.276 283.716 107.239 283.932 107.178 284.151C107.117 284.37 107.028 284.596 106.91 284.83C106.793 285.054 106.648 285.291 106.473 285.539C106.3 285.778 106.093 286.029 105.853 286.292C105.622 286.555 105.358 286.83 105.06 287.117L102.697 289.371L102.447 288.937L107.218 289.251L107.122 290.694L101.256 290.307ZM111.688 291.134C110.948 291.085 110.324 290.84 109.814 290.398C109.314 289.956 108.945 289.356 108.707 288.597C108.47 287.83 108.385 286.933 108.453 285.906C108.521 284.88 108.722 284.007 109.058 283.286C109.394 282.556 109.838 282.005 110.392 281.633C110.955 281.261 111.607 281.1 112.346 281.149C113.086 281.197 113.711 281.443 114.22 281.885C114.729 282.327 115.103 282.932 115.34 283.7C115.578 284.459 115.663 285.351 115.595 286.377C115.528 287.404 115.326 288.282 114.99 289.012C114.654 289.733 114.205 290.279 113.642 290.65C113.079 291.022 112.428 291.183 111.688 291.134ZM111.778 289.775C112.452 289.819 112.996 289.54 113.407 288.935C113.819 288.322 114.063 287.437 114.139 286.281C114.215 285.126 114.089 284.221 113.761 283.568C113.433 282.906 112.932 282.552 112.257 282.508C111.582 282.463 111.038 282.748 110.626 283.361C110.215 283.966 109.971 284.846 109.895 286.001C109.819 287.157 109.945 288.066 110.273 288.729C110.601 289.382 111.103 289.73 111.778 289.775ZM117.639 291.387L124.7 282.103L126.128 282.197L118.998 291.477L117.639 291.387ZM118.827 286.883C118.411 286.856 118.049 286.72 117.74 286.477C117.44 286.225 117.211 285.899 117.052 285.498C116.902 285.089 116.845 284.63 116.878 284.122C116.912 283.613 117.029 283.166 117.231 282.78C117.443 282.386 117.718 282.088 118.056 281.887C118.395 281.678 118.772 281.586 119.188 281.614C119.605 281.641 119.962 281.781 120.261 282.033C120.57 282.276 120.799 282.607 120.948 283.025C121.107 283.435 121.169 283.894 121.136 284.403C121.103 284.893 120.982 285.33 120.771 285.716C120.559 286.101 120.284 286.399 119.946 286.609C119.607 286.818 119.234 286.91 118.827 286.883ZM118.91 285.844C119.104 285.857 119.274 285.803 119.422 285.683C119.578 285.563 119.701 285.39 119.79 285.164C119.889 284.929 119.949 284.649 119.971 284.326C119.992 284.002 119.969 283.718 119.902 283.472C119.844 283.226 119.745 283.034 119.605 282.895C119.475 282.756 119.309 282.68 119.105 282.667C118.911 282.654 118.735 282.712 118.578 282.841C118.422 282.961 118.294 283.138 118.195 283.373C118.106 283.599 118.05 283.874 118.029 284.198C118.008 284.521 118.026 284.806 118.084 285.051C118.152 285.288 118.256 285.476 118.395 285.615C118.535 285.754 118.706 285.83 118.91 285.844ZM124.662 291.976C124.246 291.948 123.883 291.808 123.575 291.556C123.276 291.304 123.047 290.978 122.887 290.577C122.729 290.167 122.666 289.713 122.699 289.214C122.732 288.705 122.85 288.258 123.052 287.872C123.264 287.477 123.539 287.18 123.877 286.979C124.216 286.769 124.593 286.678 125.009 286.706C125.425 286.733 125.783 286.873 126.082 287.125C126.391 287.368 126.62 287.699 126.769 288.117C126.927 288.527 126.99 288.986 126.956 289.494C126.924 289.984 126.802 290.422 126.591 290.808C126.38 291.193 126.105 291.491 125.766 291.7C125.437 291.911 125.069 292.003 124.662 291.976ZM124.729 290.949C124.924 290.962 125.099 290.909 125.255 290.789C125.412 290.66 125.536 290.483 125.625 290.256C125.724 290.021 125.784 289.742 125.805 289.419C125.827 289.095 125.803 288.815 125.735 288.578C125.677 288.333 125.579 288.141 125.439 288.002C125.3 287.853 125.134 287.772 124.94 287.76C124.736 287.746 124.556 287.799 124.4 287.919C124.243 288.039 124.116 288.216 124.017 288.451C123.927 288.686 123.871 288.966 123.85 289.29C123.829 289.613 123.847 289.898 123.905 290.143C123.973 290.38 124.076 290.572 124.215 290.721C124.355 290.86 124.526 290.936 124.729 290.949Z" fill="#667085"/>
<rect width="23.1644" height="38.2213" transform="translate(168.084 257.224) rotate(3.77291)" fill="#CC0905"/>
<rect width="23.1644" height="81.0756" transform="translate(206.73 216.825) rotate(3.77291)" fill="#E67E22"/>
<rect width="23.1644" height="44.0125" transform="translate(240.119 256.17) rotate(3.77291)" fill="#F9CF4A"/>
<rect width="23.1644" height="110.031" transform="translate(280.289 192.657) rotate(3.77291)" fill="#3ECE80"/>
<rect width="23.1644" height="76.4427" transform="translate(313.906 228.535) rotate(3.77291)" fill="#2980B9"/>
<path d="M248.163 330.3L244.796 325.175L246.26 324.311L249.588 329.392L248.163 330.3ZM245.231 328.714C244.538 328.669 243.903 328.501 243.328 328.213C242.753 327.924 242.258 327.543 241.843 327.07C241.439 326.588 241.136 326.035 240.936 325.408C240.736 324.782 240.66 324.109 240.707 323.388C240.755 322.666 240.919 322.009 241.2 321.414C241.48 320.82 241.852 320.315 242.316 319.9C242.79 319.476 243.331 319.159 243.939 318.948C244.547 318.738 245.198 318.655 245.891 318.701C246.594 318.747 247.233 318.915 247.808 319.204C248.384 319.492 248.874 319.877 249.278 320.359C249.683 320.841 249.985 321.395 250.185 322.021C250.386 322.638 250.463 323.307 250.415 324.028C250.368 324.74 250.205 325.393 249.924 325.987C249.643 326.582 249.271 327.091 248.806 327.515C248.342 327.94 247.806 328.257 247.197 328.468C246.589 328.678 245.934 328.761 245.231 328.714ZM245.345 326.995C245.788 327.024 246.196 326.972 246.567 326.838C246.947 326.696 247.282 326.486 247.569 326.208C247.858 325.921 248.089 325.583 248.263 325.195C248.446 324.808 248.554 324.379 248.585 323.907C248.616 323.436 248.566 322.996 248.435 322.588C248.313 322.181 248.128 321.82 247.879 321.507C247.631 321.184 247.328 320.932 246.968 320.75C246.619 320.56 246.222 320.45 245.778 320.421C245.343 320.392 244.936 320.449 244.555 320.591C244.175 320.724 243.841 320.929 243.553 321.207C243.266 321.486 243.035 321.819 242.861 322.206C242.686 322.594 242.584 323.028 242.552 323.509C242.521 323.981 242.566 324.425 242.687 324.841C242.809 325.249 242.994 325.609 243.242 325.923C243.491 326.236 243.795 326.488 244.154 326.679C244.513 326.861 244.91 326.966 245.345 326.995ZM253.703 328.451L254.222 320.574L254.692 321.273L252.656 322.142L252.358 320.534L255.098 319.336L256.096 319.402L255.492 328.569L253.703 328.451ZM252.035 329.024L252.145 327.359L257.221 327.694L257.111 329.358L252.035 329.024Z" fill="#667085"/>
</g>
<defs>
<filter id="filter0_d_44586_59339" x="-87.7739" y="-0.736662" width="1508.28" height="542.135" filterUnits="userSpaceOnUse" color-interpolation-filters="sRGB">
<feFlood flood-opacity="0" result="BackgroundImageFix"/>
<feColorMatrix in="SourceAlpha" type="matrix" values="0 0 0 0 0 0 0 0 0 0 0 0 0 0 0 0 0 0 127 0" result="hardAlpha"/>
<feMorphology radius="44.0125" operator="dilate" in="SourceAlpha" result="effect1_dropShadow_44586_59339"/>
<feOffset dy="9.26578"/>
<feGaussianBlur stdDeviation="33.6464"/>
<feColorMatrix type="matrix" values="0 0 0 0 1 0 0 0 0 1 0 0 0 0 1 0 0 0 0.14 0"/>
<feBlend mode="normal" in2="BackgroundImageFix" result="effect1_dropShadow_44586_59339"/>
<feBlend mode="normal" in="SourceGraphic" in2="effect1_dropShadow_44586_59339" result="shape"/>
</filter>
</defs>
</svg>
