<svg width="24" height="25" viewBox="0 0 24 25" fill="none" xmlns="http://www.w3.org/2000/svg">
<path d="M23.0101 3.91486C22.8752 3.15818 22.6119 2.46834 22.2466 1.91403C21.8812 1.35972 21.4265 0.960288 20.9278 0.755501C19.1018 0 11.753 0 11.753 0C11.753 0 4.40377 0.0228686 2.57782 0.77837C2.07905 0.983169 1.62435 1.38263 1.25899 1.93696C0.89364 2.49129 0.630379 3.18116 0.49543 3.93786C-0.0568767 8.85992 -0.271127 16.36 0.510596 21.0851C0.645559 21.8418 0.908825 22.5317 1.27418 23.086C1.63953 23.6403 2.09423 24.0397 2.59298 24.2445C4.41893 25 11.768 25 11.768 25C11.768 25 19.1169 25 20.9427 24.2445C21.4415 24.0397 21.8962 23.6403 22.2616 23.086C22.627 22.5317 22.8903 21.8418 23.0252 21.0851C23.6078 16.1561 23.7873 8.66065 23.0101 3.91486Z" fill="#FF0000"/>
<path d="M8.82227 17.9462L17.9668 12.6496L8.82227 7.35303V17.9462Z" fill="white"/>
</svg>
